M48
;DRILL file {Pcbnew (2012-01-19 BZR 3256)-stable} date 06/08/2012 15:41:29
;FORMAT={-:-/ absolute / metric / decimal}
FMAT,2
METRIC,TZ
T1C0.599
T2C0.635
T3C0.762
T4C0.800
T5C1.001
T6C1.016
T7C3.000
%
G90
G05
M71
T1
X14.600Y-42.901
X16.601Y-42.901
T2
X3.899Y-21.699
X12.499Y-36.299
X14.501Y-11.999
X14.801Y-23.599
X15.199Y-16.200
X15.900Y-19.700
X16.500Y-24.699
X16.599Y-38.999
X16.701Y-18.400
X17.000Y-25.801
X17.800Y-17.300
X19.901Y-19.299
X21.600Y-37.000
X21.699Y-27.099
X21.801Y-14.000
X21.801Y-24.900
X22.799Y-29.299
X23.000Y-23.200
X23.000Y-25.301
X23.701Y-11.100
X23.899Y-20.800
X23.899Y-24.201
X25.100Y-21.001
X25.900Y-28.999
X27.000Y-21.001
X27.600Y-36.200
X28.199Y-24.699
X28.400Y-21.699
X30.401Y-42.400
X32.484Y-31.722
X32.700Y-18.301
X33.200Y-41.300
X33.500Y-46.101
X35.532Y-29.690
T3
X11.910Y-20.038
X11.910Y-25.118
T4
X8.999Y-41.001
T5
X1.648Y-12.751
X1.648Y-17.252
X4.252Y-31.852
X4.252Y-36.251
X8.151Y-12.751
X8.151Y-17.252
X22.550Y-39.550
X22.550Y-44.051
X29.053Y-39.550
X29.053Y-44.051
X36.248Y-12.250
X36.248Y-16.751
X36.248Y-19.749
X36.248Y-24.249
X42.751Y-12.250
X42.751Y-16.751
X42.751Y-19.749
X42.751Y-24.249
T6
X1.623Y-42.390
X1.623Y-44.930
X1.750Y-3.020
X1.750Y-22.070
X1.750Y-24.610
X4.290Y-3.020
X6.830Y-3.020
X6.830Y-48.740
X9.370Y-3.020
X9.370Y-48.740
X11.910Y-3.020
X11.910Y-48.740
X14.450Y-3.020
X14.450Y-48.740
X14.501Y-30.930
X14.501Y-33.470
X16.990Y-3.020
X16.990Y-48.740
X17.000Y-30.930
X17.000Y-33.470
X19.530Y-3.020
X19.530Y-48.740
X22.070Y-3.020
X22.070Y-48.740
X24.610Y-3.020
X24.610Y-48.740
X27.150Y-3.020
X27.150Y-48.740
X29.690Y-3.020
X29.690Y-48.740
X32.230Y-3.020
X32.230Y-48.740
X34.770Y-3.020
X34.770Y-48.740
X37.310Y-3.020
X37.310Y-48.740
X38.702Y-32.202
X39.850Y-3.020
X39.850Y-48.740
X40.500Y-34.000
X42.390Y-3.020
X42.390Y-48.740
X44.930Y-3.020
X44.930Y-48.740
X47.470Y-5.560
X47.470Y-8.100
X47.470Y-10.640
X47.470Y-13.180
X47.470Y-15.720
X47.470Y-18.260
X47.470Y-20.800
X47.470Y-23.340
X47.470Y-25.880
X47.470Y-28.420
X47.470Y-30.960
X47.470Y-33.500
X47.470Y-36.040
X47.470Y-38.580
X47.470Y-41.120
X47.470Y-43.660
T7
X5.001Y-8.001
X41.001Y-41.999
T0
M30
