G04 (created by PCBNEW-RS274X (2012-01-19 BZR 3256)-stable) date 07/08/2012 11:34:10*
G01*
G70*
G90*
%MOIN*%
G04 Gerber Fmt 3.4, Leading zero omitted, Abs format*
%FSLAX34Y34*%
G04 APERTURE LIST*
%ADD10C,0.006000*%
%ADD11C,0.007900*%
%ADD12C,0.003900*%
%ADD13R,0.045000X0.045000*%
%ADD14C,0.045000*%
%ADD15R,0.098400X0.078700*%
%ADD16R,0.110200X0.019700*%
%ADD17C,0.050000*%
%ADD18R,0.009800X0.060000*%
%ADD19O,0.009800X0.060000*%
%ADD20O,0.060000X0.009800*%
%ADD21R,0.060000X0.060000*%
%ADD22C,0.060000*%
%ADD23C,0.056000*%
%ADD24R,0.025000X0.045000*%
%ADD25R,0.039400X0.039400*%
%ADD26R,0.031400X0.031400*%
%ADD27C,0.059100*%
%ADD28C,0.039400*%
%ADD29C,0.236200*%
%ADD30C,0.035000*%
%ADD31C,0.012000*%
%ADD32C,0.010000*%
%ADD33C,0.025000*%
%ADD34C,0.016000*%
G04 APERTURE END LIST*
G54D10*
G54D11*
X05268Y-00591D02*
X05287Y-00610D01*
X05324Y-00629D01*
X05418Y-00629D01*
X05456Y-00610D01*
X05474Y-00591D01*
X05493Y-00553D01*
X05493Y-00516D01*
X05474Y-00460D01*
X05249Y-00235D01*
X05493Y-00235D01*
X05737Y-00629D02*
X05774Y-00629D01*
X05812Y-00610D01*
X05831Y-00591D01*
X05849Y-00553D01*
X05868Y-00478D01*
X05868Y-00385D01*
X05849Y-00310D01*
X05831Y-00272D01*
X05812Y-00253D01*
X05774Y-00235D01*
X05737Y-00235D01*
X05699Y-00253D01*
X05681Y-00272D01*
X05662Y-00310D01*
X05643Y-00385D01*
X05643Y-00478D01*
X05662Y-00553D01*
X05681Y-00591D01*
X05699Y-00610D01*
X05737Y-00629D01*
X06243Y-00235D02*
X06018Y-00235D01*
X06131Y-00235D02*
X06131Y-00629D01*
X06093Y-00572D01*
X06056Y-00535D01*
X06018Y-00516D01*
X06393Y-00591D02*
X06412Y-00610D01*
X06449Y-00629D01*
X06543Y-00629D01*
X06581Y-00610D01*
X06599Y-00591D01*
X06618Y-00553D01*
X06618Y-00516D01*
X06599Y-00460D01*
X06374Y-00235D01*
X06618Y-00235D01*
X06862Y-00629D02*
X06899Y-00629D01*
X06937Y-00610D01*
X06956Y-00591D01*
X06974Y-00553D01*
X06993Y-00478D01*
X06993Y-00385D01*
X06974Y-00310D01*
X06956Y-00272D01*
X06937Y-00253D01*
X06899Y-00235D01*
X06862Y-00235D01*
X06824Y-00253D01*
X06806Y-00272D01*
X06787Y-00310D01*
X06768Y-00385D01*
X06768Y-00478D01*
X06787Y-00553D01*
X06806Y-00591D01*
X06824Y-00610D01*
X06862Y-00629D01*
X07218Y-00460D02*
X07181Y-00478D01*
X07162Y-00497D01*
X07143Y-00535D01*
X07143Y-00553D01*
X07162Y-00591D01*
X07181Y-00610D01*
X07218Y-00629D01*
X07293Y-00629D01*
X07331Y-00610D01*
X07349Y-00591D01*
X07368Y-00553D01*
X07368Y-00535D01*
X07349Y-00497D01*
X07331Y-00478D01*
X07293Y-00460D01*
X07218Y-00460D01*
X07181Y-00441D01*
X07162Y-00422D01*
X07143Y-00385D01*
X07143Y-00310D01*
X07162Y-00272D01*
X07181Y-00253D01*
X07218Y-00235D01*
X07293Y-00235D01*
X07331Y-00253D01*
X07349Y-00272D01*
X07368Y-00310D01*
X07368Y-00385D01*
X07349Y-00422D01*
X07331Y-00441D01*
X07293Y-00460D01*
X07612Y-00629D02*
X07649Y-00629D01*
X07687Y-00610D01*
X07706Y-00591D01*
X07724Y-00553D01*
X07743Y-00478D01*
X07743Y-00385D01*
X07724Y-00310D01*
X07706Y-00272D01*
X07687Y-00253D01*
X07649Y-00235D01*
X07612Y-00235D01*
X07574Y-00253D01*
X07556Y-00272D01*
X07537Y-00310D01*
X07518Y-00385D01*
X07518Y-00478D01*
X07537Y-00553D01*
X07556Y-00591D01*
X07574Y-00610D01*
X07612Y-00629D01*
X08081Y-00629D02*
X08006Y-00629D01*
X07968Y-00610D01*
X07949Y-00591D01*
X07912Y-00535D01*
X07893Y-00460D01*
X07893Y-00310D01*
X07912Y-00272D01*
X07931Y-00253D01*
X07968Y-00235D01*
X08043Y-00235D01*
X08081Y-00253D01*
X08099Y-00272D01*
X08118Y-00310D01*
X08118Y-00403D01*
X08099Y-00441D01*
X08081Y-00460D01*
X08043Y-00478D01*
X07968Y-00478D01*
X07931Y-00460D01*
X07912Y-00441D01*
X07893Y-00403D01*
G54D12*
X00000Y-19685D02*
X00000Y00000D01*
X19685Y-19685D02*
X00000Y-19685D01*
X19685Y00000D02*
X19685Y-19685D01*
X00000Y00000D02*
X19685Y00000D01*
G54D13*
X06536Y-16890D03*
G54D14*
X05748Y-16890D03*
G54D15*
X00591Y-15158D03*
X00591Y-11654D03*
X02737Y-15158D03*
X02737Y-11654D03*
G54D16*
X02894Y-13406D03*
X02894Y-13721D03*
X02894Y-14036D03*
X02894Y-13091D03*
X02894Y-12776D03*
G54D17*
X01674Y-14272D03*
X01674Y-12540D03*
G54D18*
X08367Y-07532D03*
G54D19*
X08564Y-07532D03*
X08761Y-07532D03*
X08958Y-07532D03*
X09155Y-07532D03*
X09351Y-07532D03*
X09548Y-07532D03*
X09745Y-07532D03*
X09942Y-07532D03*
X10139Y-07532D03*
X10336Y-07532D03*
X10532Y-07532D03*
X10729Y-07532D03*
X10926Y-07532D03*
X11123Y-07532D03*
X11320Y-07532D03*
G54D20*
X12218Y-08367D03*
X12218Y-08564D03*
X12218Y-08761D03*
X12218Y-08958D03*
X12218Y-09155D03*
X12218Y-09351D03*
X12218Y-09548D03*
X12218Y-09745D03*
X12218Y-09942D03*
X12218Y-10139D03*
X12218Y-10336D03*
X12218Y-10532D03*
X12218Y-10729D03*
X12218Y-10926D03*
X12218Y-11123D03*
X12218Y-11320D03*
G54D19*
X11320Y-12218D03*
X11123Y-12218D03*
X10926Y-12218D03*
X10729Y-12218D03*
X10532Y-12218D03*
X10336Y-12218D03*
X10139Y-12218D03*
X09942Y-12218D03*
X09745Y-12218D03*
X09548Y-12218D03*
X09351Y-12218D03*
X09155Y-12218D03*
X08958Y-12218D03*
X08761Y-12218D03*
X08564Y-12218D03*
X08367Y-12218D03*
G54D20*
X07532Y-11320D03*
X07532Y-11123D03*
X07532Y-10729D03*
X07525Y-10926D03*
X07532Y-10532D03*
X07532Y-10336D03*
X07532Y-10139D03*
X07532Y-09942D03*
X07532Y-09745D03*
X07532Y-09548D03*
X07532Y-09354D03*
X07532Y-09157D03*
X07532Y-08960D03*
X07532Y-08763D03*
X07532Y-08567D03*
X07532Y-08370D03*
G54D10*
G36*
X13911Y-12055D02*
X13689Y-12277D01*
X13133Y-11721D01*
X13355Y-11499D01*
X13911Y-12055D01*
X13911Y-12055D01*
G37*
G36*
X13577Y-12389D02*
X13355Y-12611D01*
X12799Y-12055D01*
X13021Y-11833D01*
X13577Y-12389D01*
X13577Y-12389D01*
G37*
G54D21*
X18689Y-17189D03*
G54D22*
X18689Y-16189D03*
X18689Y-15189D03*
X18689Y-14189D03*
G54D21*
X13689Y-01189D03*
G54D22*
X12689Y-01189D03*
X11689Y-01189D03*
X10689Y-01189D03*
G54D21*
X17689Y-01189D03*
G54D22*
X16689Y-01189D03*
X15689Y-01189D03*
X14689Y-01189D03*
G54D21*
X18689Y-13189D03*
G54D22*
X18689Y-12189D03*
X18689Y-11189D03*
X18689Y-10189D03*
G54D21*
X18689Y-05189D03*
G54D22*
X18689Y-04189D03*
X18689Y-03189D03*
X18689Y-02189D03*
G54D21*
X18689Y-09189D03*
G54D22*
X18689Y-08189D03*
X18689Y-07189D03*
X18689Y-06189D03*
G54D21*
X06689Y-19189D03*
G54D22*
X07689Y-19189D03*
X08689Y-19189D03*
X09689Y-19189D03*
G54D21*
X10689Y-19189D03*
G54D22*
X11689Y-19189D03*
X12689Y-19189D03*
X13689Y-19189D03*
G54D21*
X14689Y-19189D03*
G54D22*
X15689Y-19189D03*
X16689Y-19189D03*
X17689Y-19189D03*
G54D21*
X09689Y-01189D03*
G54D22*
X08689Y-01189D03*
X07689Y-01189D03*
X06689Y-01189D03*
G54D21*
X03689Y-01189D03*
G54D22*
X02689Y-01189D03*
X01689Y-01189D03*
X00689Y-01189D03*
X02689Y-19189D03*
X03689Y-19189D03*
X04689Y-19189D03*
X05689Y-19189D03*
G54D23*
X04689Y-09889D03*
X04689Y-07889D03*
G54D24*
X01889Y-16689D03*
X02489Y-16689D03*
X04228Y-13701D03*
X04828Y-13701D03*
X04228Y-12992D03*
X04828Y-12992D03*
G54D21*
X00639Y-16689D03*
G54D22*
X00639Y-17689D03*
G54D21*
X00689Y-09689D03*
G54D22*
X00689Y-08689D03*
G54D25*
X03543Y-16142D03*
G54D21*
X05689Y-01189D03*
G54D22*
X04689Y-01189D03*
G54D10*
G36*
X16369Y-13386D02*
X15945Y-13810D01*
X15521Y-13386D01*
X15945Y-12962D01*
X16369Y-13386D01*
X16369Y-13386D01*
G37*
G54D22*
X15237Y-12678D03*
G54D26*
X12500Y-17441D03*
X13090Y-17441D03*
X12500Y-16693D03*
X13090Y-16693D03*
G54D27*
X00649Y-06792D03*
X00649Y-05020D03*
X03209Y-05020D03*
X03209Y-06792D03*
X11438Y-15571D03*
X11438Y-17343D03*
X08878Y-17343D03*
X08878Y-15571D03*
G54D21*
X06693Y-13177D03*
G54D22*
X06693Y-12177D03*
G54D21*
X05709Y-13177D03*
G54D22*
X05709Y-12177D03*
G54D28*
X18898Y-18504D03*
X12598Y-03543D03*
G54D29*
X16142Y-16535D03*
X01969Y-03150D03*
G54D27*
X14271Y-06595D03*
X14271Y-04823D03*
X16831Y-04823D03*
X16831Y-06595D03*
X14271Y-09547D03*
X14271Y-07775D03*
X16831Y-07775D03*
X16831Y-09547D03*
G54D30*
X09409Y-08189D03*
X08583Y-09803D03*
X08976Y-11535D03*
X11969Y-16693D03*
X01535Y-08543D03*
X11181Y-08543D03*
X09409Y-09528D03*
X10197Y-11417D03*
X10866Y-14252D03*
X07835Y-07598D03*
X09882Y-08268D03*
X05984Y-06378D03*
X08543Y-10669D03*
X10630Y-08268D03*
X06260Y-07756D03*
X11102Y-09724D03*
X07008Y-06811D03*
X09055Y-09134D03*
X06693Y-10158D03*
X06496Y-09724D03*
X05827Y-09291D03*
X08583Y-05512D03*
X06535Y-15354D03*
X12874Y-07205D03*
X08504Y-14567D03*
X04921Y-14291D03*
X13071Y-16260D03*
X13989Y-11689D03*
X13189Y-18150D03*
X12789Y-12489D03*
X09331Y-04370D03*
X05709Y-04724D03*
X09055Y-09961D03*
X06575Y-07244D03*
G54D31*
X06891Y-02559D02*
X06891Y-02914D01*
X06221Y-03111D02*
X06536Y-03111D01*
X06221Y-02559D02*
X06221Y-03111D01*
X06221Y-03111D02*
X06221Y-03346D01*
X06419Y-03544D02*
X06615Y-03544D01*
X06221Y-03346D02*
X06419Y-03544D01*
X07206Y-03111D02*
X07088Y-03111D01*
X07088Y-03111D02*
X06891Y-02914D01*
X06891Y-02914D02*
X06891Y-03111D01*
G54D32*
X11397Y-08564D02*
X11202Y-08564D01*
X08583Y-09646D02*
X08485Y-09548D01*
X08169Y-09548D02*
X08485Y-09548D01*
X09548Y-07532D02*
X09548Y-08050D01*
X08976Y-11535D02*
X08958Y-11553D01*
X09389Y-09548D02*
X09409Y-09528D01*
X01535Y-08543D02*
X01535Y-07677D01*
X00649Y-06792D02*
X01535Y-07678D01*
X01535Y-07678D02*
X01535Y-07677D01*
G54D31*
X12500Y-16693D02*
X11969Y-16693D01*
G54D32*
X08485Y-09548D02*
X09389Y-09548D01*
X09548Y-08050D02*
X09409Y-08189D01*
X08958Y-11553D02*
X08958Y-12218D01*
X08583Y-09803D02*
X08583Y-09646D01*
X11202Y-08564D02*
X11181Y-08543D01*
X12218Y-08564D02*
X11397Y-08564D01*
X07532Y-09548D02*
X08169Y-09548D01*
X09351Y-12218D02*
X09351Y-15727D01*
X09351Y-15727D02*
X07689Y-17389D01*
X07689Y-17389D02*
X07689Y-19189D01*
X09351Y-11790D02*
X09724Y-11417D01*
X09724Y-11417D02*
X10197Y-11417D01*
X09351Y-12218D02*
X09351Y-11790D01*
X10879Y-13963D02*
X10879Y-13609D01*
X10729Y-12218D02*
X10729Y-13459D01*
X10729Y-13459D02*
X10879Y-13609D01*
X12900Y-15630D02*
X13622Y-15630D01*
X10879Y-13963D02*
X10879Y-14160D01*
X13976Y-15984D02*
X13976Y-18228D01*
X10879Y-14160D02*
X10866Y-14252D01*
X10879Y-13609D02*
X12900Y-15630D01*
X13976Y-18476D02*
X14689Y-19189D01*
X13976Y-18228D02*
X13976Y-18476D01*
X13622Y-15630D02*
X13976Y-15984D01*
G54D31*
X10449Y-09506D02*
X10688Y-09745D01*
G54D32*
X10449Y-08370D02*
X10512Y-08307D01*
X06260Y-07756D02*
X05984Y-07480D01*
G54D31*
X09902Y-08288D02*
X09902Y-08287D01*
X08701Y-08583D02*
X09567Y-08583D01*
X07835Y-07717D02*
X08150Y-08032D01*
G54D32*
X10512Y-08307D02*
X10532Y-08287D01*
X05984Y-07480D02*
X05984Y-06378D01*
G54D31*
X10512Y-08307D02*
X10591Y-08307D01*
G54D32*
X09745Y-08286D02*
X09903Y-08286D01*
X07532Y-10336D02*
X08543Y-10336D01*
G54D31*
X10630Y-08268D02*
X10591Y-08307D01*
G54D32*
X07532Y-08370D02*
X08488Y-08370D01*
G54D31*
X08150Y-08032D02*
X08488Y-08370D01*
X09567Y-08583D02*
X09882Y-08268D01*
G54D33*
X10365Y-08286D02*
X10449Y-08370D01*
G54D31*
X10097Y-10336D02*
X10688Y-09745D01*
G54D32*
X08543Y-10336D02*
X10097Y-10336D01*
G54D31*
X07835Y-07598D02*
X07835Y-07717D01*
G54D32*
X10532Y-08287D02*
X10532Y-07532D01*
G54D31*
X10688Y-09745D02*
X11102Y-09745D01*
X09903Y-08286D02*
X10365Y-08286D01*
G54D32*
X08543Y-10669D02*
X08543Y-10336D01*
X08488Y-08370D02*
X08488Y-08370D01*
G54D31*
X08488Y-08370D02*
X08701Y-08583D01*
X11102Y-09724D02*
X11102Y-09745D01*
G54D32*
X11102Y-09745D02*
X12218Y-09745D01*
G54D31*
X10449Y-08370D02*
X10449Y-09506D01*
X09882Y-08268D02*
X09902Y-08288D01*
G54D32*
X09745Y-07532D02*
X09745Y-08286D01*
X09902Y-08287D02*
X09903Y-08286D01*
X16689Y-01893D02*
X16689Y-01189D01*
X10139Y-06593D02*
X11614Y-05118D01*
X16689Y-02642D02*
X16689Y-01893D01*
X13228Y-05118D02*
X15157Y-03189D01*
X13228Y-05118D02*
X13227Y-05118D01*
X10139Y-06593D02*
X10139Y-07532D01*
X16142Y-03189D02*
X16689Y-02642D01*
X11614Y-05118D02*
X13228Y-05118D01*
X15157Y-03189D02*
X16142Y-03189D01*
X16457Y-03386D02*
X17689Y-02154D01*
X10336Y-07532D02*
X10336Y-06790D01*
X17689Y-02154D02*
X17689Y-01189D01*
X14449Y-05394D02*
X13976Y-05394D01*
X10336Y-06790D02*
X11732Y-05394D01*
X11732Y-05394D02*
X13976Y-05394D01*
X14449Y-05394D02*
X15197Y-04646D01*
X15197Y-04646D02*
X16457Y-03386D01*
X14961Y-08346D02*
X14961Y-08346D01*
X15669Y-07638D02*
X14961Y-08346D01*
X15669Y-06929D02*
X15669Y-07638D01*
X12735Y-08761D02*
X13150Y-08346D01*
X13150Y-08346D02*
X14961Y-08346D01*
X12218Y-08761D02*
X12735Y-08761D01*
X18689Y-06189D02*
X18551Y-06051D01*
X16547Y-06051D02*
X15669Y-06929D01*
X18551Y-06051D02*
X16547Y-06051D01*
X17968Y-07189D02*
X18689Y-07189D01*
X16831Y-07775D02*
X17417Y-07189D01*
X13267Y-08583D02*
X15123Y-08583D01*
X12892Y-08958D02*
X13267Y-08583D01*
X12218Y-08958D02*
X12892Y-08958D01*
X17417Y-07189D02*
X17968Y-07189D01*
X15123Y-08583D02*
X15276Y-08430D01*
X15931Y-07775D02*
X16831Y-07775D01*
X15734Y-07972D02*
X15931Y-07775D01*
X15276Y-08430D02*
X15734Y-07972D01*
X12218Y-09155D02*
X13050Y-09155D01*
X15481Y-08583D02*
X17401Y-08583D01*
X15245Y-08819D02*
X15481Y-08583D01*
X17795Y-08189D02*
X18689Y-08189D01*
X17401Y-08583D02*
X17795Y-08189D01*
X13050Y-09155D02*
X13386Y-08819D01*
X13386Y-08819D02*
X15245Y-08819D01*
X15669Y-08858D02*
X17519Y-08858D01*
X12218Y-09351D02*
X13208Y-09351D01*
X15669Y-08859D02*
X15669Y-08858D01*
X15473Y-09055D02*
X15669Y-08859D01*
X13504Y-09055D02*
X15473Y-09055D01*
X13208Y-09351D02*
X13504Y-09055D01*
X17850Y-09189D02*
X18689Y-09189D01*
X17519Y-08858D02*
X17850Y-09189D01*
X07650Y-14528D02*
X07363Y-14528D01*
X03689Y-18280D02*
X03689Y-19189D01*
X04646Y-15828D02*
X05946Y-14528D01*
X05946Y-14528D02*
X07363Y-14528D01*
X08564Y-12218D02*
X08564Y-13614D01*
X03689Y-18280D02*
X04646Y-17323D01*
X08564Y-13614D02*
X07650Y-14528D01*
X04646Y-17323D02*
X04646Y-15828D01*
X07400Y-14134D02*
X08367Y-13167D01*
X02739Y-18801D02*
X04389Y-17151D01*
X08367Y-13167D02*
X08367Y-12218D01*
X05865Y-14134D02*
X07400Y-14134D01*
X02739Y-19139D02*
X02689Y-19189D01*
X04389Y-17151D02*
X04389Y-15610D01*
X02739Y-18801D02*
X02739Y-19139D01*
X04389Y-15610D02*
X05865Y-14134D01*
X01930Y-09646D02*
X01930Y-05512D01*
X00689Y-02264D02*
X00512Y-02441D01*
X00512Y-04094D02*
X01930Y-05512D01*
X00689Y-01189D02*
X00689Y-02264D01*
X05451Y-11320D02*
X05236Y-11535D01*
X03819Y-11535D02*
X01930Y-09646D01*
X05236Y-11535D02*
X03819Y-11535D01*
X00512Y-02441D02*
X00512Y-04094D01*
X05451Y-11320D02*
X07532Y-11320D01*
X01701Y-01189D02*
X02244Y-01732D01*
X03801Y-11123D02*
X02283Y-09605D01*
X02283Y-04843D02*
X02283Y-09605D01*
X05236Y-11123D02*
X07532Y-11123D01*
X05231Y-11123D02*
X05236Y-11123D01*
X01701Y-01189D02*
X01689Y-01189D01*
X02795Y-01732D02*
X03346Y-02283D01*
X05236Y-11123D02*
X03801Y-11123D01*
X03346Y-02283D02*
X03346Y-03780D01*
X02244Y-01732D02*
X02795Y-01732D01*
X03346Y-03780D02*
X02283Y-04843D01*
X02677Y-09528D02*
X02677Y-09607D01*
X03622Y-03937D02*
X03622Y-02835D01*
X07525Y-10926D02*
X03996Y-10926D01*
X02677Y-09607D02*
X02992Y-09922D01*
X02677Y-04882D02*
X03622Y-03937D01*
X02677Y-05866D02*
X02677Y-09528D01*
X02677Y-05866D02*
X02677Y-04882D01*
X03996Y-10926D02*
X02992Y-09922D01*
X03622Y-02122D02*
X02689Y-01189D01*
X03622Y-02835D02*
X03622Y-02122D01*
X04193Y-10729D02*
X05709Y-10729D01*
X03898Y-06890D02*
X03898Y-01398D01*
X03268Y-07520D02*
X03898Y-06890D01*
X04193Y-10729D02*
X03268Y-09804D01*
X03268Y-09764D02*
X03268Y-09804D01*
X03898Y-01398D02*
X03689Y-01189D01*
X05709Y-10729D02*
X05693Y-10729D01*
X07532Y-10729D02*
X05709Y-10729D01*
X03689Y-01189D02*
X03689Y-01189D01*
X04173Y-10709D02*
X04193Y-10729D01*
X03268Y-09764D02*
X03268Y-07520D01*
X04312Y-10532D02*
X03583Y-09803D01*
X04689Y-06729D02*
X04689Y-01189D01*
X03583Y-07835D02*
X04689Y-06729D01*
X07532Y-10532D02*
X05768Y-10532D01*
X03583Y-09803D02*
X03583Y-07835D01*
X04390Y-10532D02*
X04312Y-10532D01*
X05768Y-10532D02*
X04390Y-10532D01*
X08206Y-09354D02*
X07532Y-09354D01*
X08689Y-01189D02*
X08689Y-03831D01*
X08835Y-09354D02*
X09055Y-09134D01*
X07559Y-04961D02*
X07008Y-05512D01*
X08206Y-09354D02*
X08835Y-09354D01*
X07559Y-04961D02*
X08689Y-03831D01*
X07008Y-05512D02*
X07008Y-06811D01*
X09351Y-06555D02*
X11378Y-04528D01*
X09351Y-06555D02*
X09351Y-07532D01*
X13032Y-04528D02*
X14689Y-02871D01*
X11378Y-04528D02*
X13032Y-04528D01*
X14689Y-01189D02*
X14689Y-02871D01*
X06850Y-07993D02*
X07402Y-07441D01*
X09689Y-03264D02*
X09689Y-01189D01*
X06850Y-08346D02*
X06850Y-07993D01*
X07071Y-08567D02*
X06850Y-08346D01*
X07402Y-07441D02*
X07402Y-05551D01*
X07532Y-08567D02*
X07071Y-08567D01*
X07402Y-05551D02*
X07795Y-05158D01*
X08937Y-04016D02*
X09689Y-03264D01*
X07795Y-05158D02*
X08937Y-04016D01*
X09942Y-06397D02*
X11496Y-04843D01*
X15689Y-01189D02*
X15689Y-02264D01*
X13110Y-04843D02*
X15689Y-02264D01*
X09942Y-07532D02*
X09942Y-06397D01*
X11496Y-04843D02*
X13110Y-04843D01*
X03543Y-16142D02*
X03189Y-16142D01*
X06909Y-09942D02*
X06693Y-10158D01*
X06909Y-09942D02*
X07532Y-09942D01*
X06517Y-09745D02*
X07532Y-09745D01*
X07532Y-09740D02*
X07532Y-09745D01*
X06517Y-09745D02*
X06496Y-09724D01*
X06763Y-08763D02*
X06489Y-08489D01*
X04489Y-08089D02*
X04689Y-07889D01*
X04489Y-08389D02*
X04489Y-08089D01*
X07532Y-08763D02*
X06763Y-08763D01*
X04689Y-08489D02*
X04489Y-08389D01*
X06489Y-08489D02*
X04889Y-08489D01*
X04489Y-08389D02*
X04489Y-08389D01*
X04889Y-08489D02*
X04689Y-08489D01*
X05089Y-08789D02*
X04689Y-09189D01*
X06389Y-08789D02*
X05089Y-08789D01*
X06560Y-08960D02*
X06389Y-08789D01*
X07532Y-08960D02*
X06560Y-08960D01*
X04689Y-09189D02*
X04689Y-09889D01*
G54D33*
X05748Y-16339D02*
X06457Y-15630D01*
X04689Y-17949D02*
X05748Y-16890D01*
X08504Y-14567D02*
X08740Y-14331D01*
X06457Y-15630D02*
X07441Y-15630D01*
G54D32*
X08564Y-06793D02*
X08564Y-05531D01*
X08564Y-05531D02*
X08583Y-05512D01*
G54D33*
X07441Y-15630D02*
X08504Y-14567D01*
G54D32*
X05961Y-09157D02*
X05827Y-09291D01*
X08761Y-14074D02*
X08740Y-14095D01*
X12874Y-08189D02*
X12874Y-07205D01*
X06204Y-09157D02*
X05961Y-09157D01*
G54D33*
X08740Y-14331D02*
X08740Y-14095D01*
G54D32*
X07532Y-09157D02*
X06204Y-09157D01*
X12218Y-08367D02*
X12696Y-08367D01*
X12696Y-08367D02*
X12874Y-08189D01*
G54D33*
X04689Y-19189D02*
X04689Y-17949D01*
X06535Y-15354D02*
X06535Y-15630D01*
X06535Y-15630D02*
X06457Y-15630D01*
G54D32*
X08761Y-13955D02*
X08761Y-14074D01*
G54D33*
X05748Y-16890D02*
X05748Y-16339D01*
G54D32*
X08761Y-12218D02*
X08761Y-13955D01*
X08564Y-07532D02*
X08564Y-06793D01*
G54D33*
X00639Y-16689D02*
X01889Y-16689D01*
G54D34*
X02894Y-14036D02*
X03682Y-14036D01*
X03682Y-14036D02*
X03937Y-14291D01*
X03937Y-14291D02*
X04921Y-14291D01*
G54D32*
X02894Y-13721D02*
X04208Y-13721D01*
X04208Y-13721D02*
X04228Y-13701D01*
X02894Y-13406D02*
X03641Y-13406D01*
X03819Y-13228D02*
X04055Y-12992D01*
X04055Y-12992D02*
X04228Y-12992D01*
X03641Y-13406D02*
X03819Y-13228D01*
X04828Y-13701D02*
X06378Y-13701D01*
X06378Y-13701D02*
X06693Y-13386D01*
X06693Y-13386D02*
X06693Y-13177D01*
X04828Y-12992D02*
X05524Y-12992D01*
X05524Y-12992D02*
X05709Y-13177D01*
G54D31*
X13090Y-16279D02*
X13071Y-16260D01*
X13090Y-16693D02*
X13090Y-16279D01*
G54D32*
X12218Y-11123D02*
X12620Y-11123D01*
X13385Y-11888D02*
X13522Y-11888D01*
X12620Y-11123D02*
X13385Y-11888D01*
G54D31*
X13721Y-11689D02*
X13522Y-11888D01*
X13721Y-11689D02*
X13989Y-11689D01*
X13189Y-18150D02*
X13090Y-18169D01*
X13090Y-18169D02*
X13090Y-17441D01*
G54D32*
X12218Y-11918D02*
X12789Y-12489D01*
X12218Y-11320D02*
X12218Y-11918D01*
X12218Y-11320D02*
X12286Y-11320D01*
G54D31*
X13056Y-12222D02*
X13188Y-12222D01*
X12789Y-12489D02*
X13056Y-12222D01*
G54D32*
X14410Y-10000D02*
X16575Y-10000D01*
X13210Y-09548D02*
X13603Y-09548D01*
X12218Y-09548D02*
X13210Y-09548D01*
X13603Y-09548D02*
X14016Y-09961D01*
X14016Y-09961D02*
X14055Y-10000D01*
X16764Y-10189D02*
X18689Y-10189D01*
X14055Y-10000D02*
X14410Y-10000D01*
X16575Y-10000D02*
X16764Y-10189D01*
X18681Y-10197D02*
X18689Y-10189D01*
X09155Y-06317D02*
X11220Y-04252D01*
X13689Y-03515D02*
X13689Y-01783D01*
X09155Y-07532D02*
X09155Y-06317D01*
X11220Y-04252D02*
X12952Y-04252D01*
X13689Y-01783D02*
X13689Y-01189D01*
X12952Y-04252D02*
X13689Y-03515D01*
X08958Y-06121D02*
X08958Y-07532D01*
X12689Y-01189D02*
X12689Y-02390D01*
X12689Y-02390D02*
X11103Y-03976D01*
X08958Y-06121D02*
X11103Y-03976D01*
X15157Y-11654D02*
X15157Y-11653D01*
X13465Y-11339D02*
X13499Y-11373D01*
X13052Y-10926D02*
X13465Y-11339D01*
X16693Y-13190D02*
X15157Y-11654D01*
X15157Y-11653D02*
X15118Y-11614D01*
X14876Y-11373D02*
X15157Y-11654D01*
X12218Y-10926D02*
X13052Y-10926D01*
X13499Y-11373D02*
X14838Y-11373D01*
X18689Y-16189D02*
X18511Y-16189D01*
X17283Y-14961D02*
X18511Y-16189D01*
X16693Y-13780D02*
X16693Y-14371D01*
X14838Y-11373D02*
X14876Y-11373D01*
X16693Y-14371D02*
X17283Y-14961D01*
X16693Y-13190D02*
X16693Y-13780D01*
X12218Y-10340D02*
X12218Y-10336D01*
X13131Y-10336D02*
X13407Y-10336D01*
X17598Y-12323D02*
X17598Y-12912D01*
X13407Y-10336D02*
X13780Y-10709D01*
X17717Y-13031D02*
X17875Y-13189D01*
X17598Y-12912D02*
X17717Y-13031D01*
X15984Y-10709D02*
X17598Y-12323D01*
X12218Y-10336D02*
X12974Y-10336D01*
X12974Y-10336D02*
X13131Y-10336D01*
X13780Y-10709D02*
X15984Y-10709D01*
X18689Y-13189D02*
X17875Y-13189D01*
X13170Y-10729D02*
X13622Y-11181D01*
X15748Y-11181D02*
X13622Y-11181D01*
X17638Y-13791D02*
X17570Y-13791D01*
X16929Y-12362D02*
X16929Y-13150D01*
X12218Y-10729D02*
X12218Y-10734D01*
X17638Y-14764D02*
X17638Y-13819D01*
X17570Y-13791D02*
X16929Y-13150D01*
X12218Y-10729D02*
X13170Y-10729D01*
X15748Y-11181D02*
X16929Y-12362D01*
X17638Y-14764D02*
X18063Y-15189D01*
X17638Y-13791D02*
X17638Y-13819D01*
X18689Y-15189D02*
X18063Y-15189D01*
X08761Y-05885D02*
X08937Y-05709D01*
X11689Y-02957D02*
X11689Y-01189D01*
X08937Y-05709D02*
X11689Y-02957D01*
X08761Y-07532D02*
X08761Y-05885D01*
X10689Y-01189D02*
X10689Y-03484D01*
X09331Y-04370D02*
X09370Y-04331D01*
X08425Y-05000D02*
X09173Y-05000D01*
X08110Y-05748D02*
X08110Y-05315D01*
X08367Y-06005D02*
X08110Y-05748D01*
X10689Y-03484D02*
X09842Y-04331D01*
X09173Y-05000D02*
X09842Y-04331D01*
X09370Y-04331D02*
X09842Y-04331D01*
X08367Y-07532D02*
X08367Y-06005D01*
X08110Y-05315D02*
X08425Y-05000D01*
X16496Y-05709D02*
X17322Y-05709D01*
X14922Y-07283D02*
X16496Y-05709D01*
X18689Y-05189D02*
X17842Y-05189D01*
X13386Y-06693D02*
X13976Y-07283D01*
X14567Y-07283D02*
X14922Y-07283D01*
X11811Y-06693D02*
X13386Y-06693D01*
X13976Y-07283D02*
X14567Y-07283D01*
X17842Y-05189D02*
X17322Y-05709D01*
X11320Y-07532D02*
X11320Y-07184D01*
X11320Y-07184D02*
X11811Y-06693D01*
X13131Y-10139D02*
X13486Y-10139D01*
X13486Y-10139D02*
X13819Y-10472D01*
X12218Y-10139D02*
X13131Y-10139D01*
X16102Y-10472D02*
X17520Y-11890D01*
X18390Y-11890D02*
X18689Y-12189D01*
X13819Y-10472D02*
X16102Y-10472D01*
X17520Y-11890D02*
X18390Y-11890D01*
X16418Y-10433D02*
X16221Y-10236D01*
X18689Y-11189D02*
X17174Y-11189D01*
X16418Y-10433D02*
X17174Y-11189D01*
X16221Y-10236D02*
X13897Y-10236D01*
X12218Y-09942D02*
X13603Y-09942D01*
X13603Y-09942D02*
X13897Y-10236D01*
X15669Y-06142D02*
X15118Y-06142D01*
X11123Y-07106D02*
X12087Y-06142D01*
X11123Y-07106D02*
X11123Y-07532D01*
X12087Y-06142D02*
X15118Y-06142D01*
X18689Y-04189D02*
X18449Y-04189D01*
X18449Y-04189D02*
X17205Y-05433D01*
X16378Y-05433D02*
X17205Y-05433D01*
X15669Y-06142D02*
X16378Y-05433D01*
X18031Y-03189D02*
X17559Y-03189D01*
X10926Y-06987D02*
X10926Y-07532D01*
X12047Y-05866D02*
X14882Y-05866D01*
X10926Y-06987D02*
X12047Y-05866D01*
X16535Y-04213D02*
X16063Y-04685D01*
X14882Y-05866D02*
X16063Y-04685D01*
X17559Y-03189D02*
X16535Y-04213D01*
X18029Y-03189D02*
X18031Y-03189D01*
X18031Y-03189D02*
X18689Y-03189D01*
X18689Y-02189D02*
X18126Y-02189D01*
X10729Y-06791D02*
X11890Y-05630D01*
X10729Y-06791D02*
X10729Y-07532D01*
X11890Y-05630D02*
X14685Y-05630D01*
X16457Y-03858D02*
X14685Y-05630D01*
X18126Y-02189D02*
X16457Y-03858D01*
X09155Y-14546D02*
X09159Y-14542D01*
X09155Y-12218D02*
X09155Y-14542D01*
X09159Y-14546D02*
X09159Y-14542D01*
X09159Y-14542D02*
X08346Y-15355D01*
X08346Y-15355D02*
X08346Y-16220D01*
X08346Y-16220D02*
X08346Y-16232D01*
X09155Y-14542D02*
X09159Y-14546D01*
X06689Y-19189D02*
X06689Y-17889D01*
X08346Y-16232D02*
X06689Y-17889D01*
X08689Y-19189D02*
X08689Y-18634D01*
X08689Y-18634D02*
X09548Y-17775D01*
X09548Y-17775D02*
X09548Y-16230D01*
X09548Y-16230D02*
X09548Y-12218D01*
X09745Y-12218D02*
X09745Y-19133D01*
X09745Y-19133D02*
X09689Y-19189D01*
X10689Y-16989D02*
X10689Y-19189D01*
X09942Y-12218D02*
X09942Y-16242D01*
X09942Y-16242D02*
X10689Y-16989D01*
X12218Y-10532D02*
X12854Y-10532D01*
X12854Y-10532D02*
X13288Y-10532D01*
X13288Y-10532D02*
X13701Y-10945D01*
X15866Y-10945D02*
X17205Y-12284D01*
X18689Y-14189D02*
X18441Y-14189D01*
X18441Y-14189D02*
X17913Y-13661D01*
X17913Y-13661D02*
X17205Y-12953D01*
X17205Y-12284D02*
X17205Y-12953D01*
X13701Y-10945D02*
X15866Y-10945D01*
X12774Y-15926D02*
X13471Y-15926D01*
X10532Y-13684D02*
X10532Y-12218D01*
X10532Y-13684D02*
X10532Y-14627D01*
X10532Y-14627D02*
X10944Y-15039D01*
X10944Y-15039D02*
X11887Y-15039D01*
X13471Y-15926D02*
X13689Y-16144D01*
X13689Y-19189D02*
X13689Y-16144D01*
X11887Y-15039D02*
X12774Y-15926D01*
X10926Y-13235D02*
X10926Y-12218D01*
X15669Y-19169D02*
X15669Y-18583D01*
X14370Y-17835D02*
X14881Y-18346D01*
X12849Y-15158D02*
X13622Y-15158D01*
X14370Y-15906D02*
X14370Y-16024D01*
X13622Y-15158D02*
X14370Y-15906D01*
X14881Y-18346D02*
X15432Y-18346D01*
X15689Y-19189D02*
X15669Y-19169D01*
X14370Y-17835D02*
X14370Y-16024D01*
X15432Y-18346D02*
X15669Y-18583D01*
X10926Y-13235D02*
X12849Y-15158D01*
X11123Y-13011D02*
X12994Y-14882D01*
X14685Y-17204D02*
X15709Y-18228D01*
X15709Y-18228D02*
X16339Y-18228D01*
X12994Y-14882D02*
X13819Y-14882D01*
X11123Y-13011D02*
X11123Y-12218D01*
X16689Y-19189D02*
X16689Y-18578D01*
X14685Y-15748D02*
X13819Y-14882D01*
X14685Y-17204D02*
X14685Y-15748D01*
X16339Y-18228D02*
X16689Y-18578D01*
X16495Y-14606D02*
X17689Y-15800D01*
X13140Y-14606D02*
X16495Y-14606D01*
X17689Y-15800D02*
X17689Y-19189D01*
X11320Y-12786D02*
X13140Y-14606D01*
X11320Y-12218D02*
X11320Y-12786D01*
G54D33*
X02489Y-16689D02*
X02489Y-15975D01*
X00591Y-15158D02*
X02737Y-15158D01*
X00591Y-11654D02*
X00591Y-09787D01*
G54D34*
X02894Y-12776D02*
X02737Y-12619D01*
G54D33*
X02737Y-15727D02*
X02737Y-15158D01*
X02737Y-11654D02*
X00591Y-11654D01*
X02480Y-15984D02*
X02737Y-15727D01*
G54D34*
X02737Y-12619D02*
X02737Y-11654D01*
G54D33*
X00591Y-11654D02*
X00591Y-15158D01*
X02489Y-15975D02*
X02480Y-15984D01*
G54D34*
X00591Y-09787D02*
X00689Y-09689D01*
G54D32*
X08286Y-10139D02*
X08877Y-10139D01*
X06575Y-05630D02*
X05945Y-05000D01*
X05689Y-04744D02*
X05945Y-05000D01*
X05709Y-04724D02*
X05689Y-04724D01*
X07532Y-10139D02*
X08286Y-10139D01*
X05689Y-01189D02*
X05689Y-02023D01*
X05689Y-02023D02*
X05689Y-04744D01*
X05689Y-04724D02*
X05689Y-04744D01*
X06575Y-07244D02*
X06575Y-05630D01*
X08877Y-10139D02*
X09055Y-09961D01*
X10336Y-14836D02*
X10336Y-14836D01*
X12689Y-18633D02*
X12689Y-18633D01*
X12500Y-17441D02*
X12205Y-17441D01*
X12689Y-18633D02*
X12689Y-19189D01*
X11457Y-16693D02*
X10336Y-15572D01*
X11890Y-17126D02*
X11890Y-17126D01*
X10336Y-14841D02*
X10331Y-14836D01*
X12500Y-17992D02*
X12689Y-18181D01*
X12500Y-17441D02*
X12500Y-17992D01*
X10331Y-14836D02*
X10336Y-14836D01*
X11890Y-17126D02*
X11457Y-16693D01*
X12689Y-18181D02*
X12689Y-18633D01*
X10336Y-12218D02*
X10336Y-14836D01*
X12205Y-17441D02*
X11890Y-17126D01*
X10336Y-15572D02*
X10336Y-14841D01*
X10139Y-12218D02*
X10139Y-16048D01*
X10984Y-16893D02*
X10984Y-17756D01*
X10984Y-18032D02*
X10985Y-18032D01*
X10985Y-18032D02*
X11689Y-18736D01*
X10984Y-17756D02*
X10984Y-18032D01*
X10139Y-16048D02*
X10984Y-16893D01*
X11689Y-18736D02*
X11689Y-19189D01*
G54D10*
G36*
X04281Y-15304D02*
X04182Y-15403D01*
X04118Y-15498D01*
X04096Y-15610D01*
X04096Y-17029D01*
X02532Y-18594D01*
X02468Y-18689D01*
X02466Y-18694D01*
X02383Y-18729D01*
X02230Y-18881D01*
X02147Y-19080D01*
X02147Y-19296D01*
X02199Y-19423D01*
X00262Y-19423D01*
X00262Y-18078D01*
X00331Y-18148D01*
X00530Y-18231D01*
X00746Y-18231D01*
X00945Y-18149D01*
X01098Y-17997D01*
X01181Y-17798D01*
X01181Y-17582D01*
X01099Y-17383D01*
X00947Y-17231D01*
X00987Y-17231D01*
X01076Y-17194D01*
X01144Y-17126D01*
X01172Y-17057D01*
X01565Y-17057D01*
X01627Y-17119D01*
X01716Y-17156D01*
X01812Y-17156D01*
X02062Y-17156D01*
X02151Y-17119D01*
X02189Y-17081D01*
X02227Y-17119D01*
X02316Y-17156D01*
X02412Y-17156D01*
X02662Y-17156D01*
X02751Y-17119D01*
X02819Y-17051D01*
X02856Y-16962D01*
X02856Y-16866D01*
X02856Y-16694D01*
X02857Y-16689D01*
X02857Y-16127D01*
X02997Y-15988D01*
X02997Y-15987D01*
X03077Y-15868D01*
X03091Y-15793D01*
X03277Y-15793D01*
X03366Y-15756D01*
X03434Y-15688D01*
X03471Y-15599D01*
X03471Y-15503D01*
X03471Y-14816D01*
X04281Y-14814D01*
X04281Y-15304D01*
X04281Y-15304D01*
G37*
G54D32*
X04281Y-15304D02*
X04182Y-15403D01*
X04118Y-15498D01*
X04096Y-15610D01*
X04096Y-17029D01*
X02532Y-18594D01*
X02468Y-18689D01*
X02466Y-18694D01*
X02383Y-18729D01*
X02230Y-18881D01*
X02147Y-19080D01*
X02147Y-19296D01*
X02199Y-19423D01*
X00262Y-19423D01*
X00262Y-18078D01*
X00331Y-18148D01*
X00530Y-18231D01*
X00746Y-18231D01*
X00945Y-18149D01*
X01098Y-17997D01*
X01181Y-17798D01*
X01181Y-17582D01*
X01099Y-17383D01*
X00947Y-17231D01*
X00987Y-17231D01*
X01076Y-17194D01*
X01144Y-17126D01*
X01172Y-17057D01*
X01565Y-17057D01*
X01627Y-17119D01*
X01716Y-17156D01*
X01812Y-17156D01*
X02062Y-17156D01*
X02151Y-17119D01*
X02189Y-17081D01*
X02227Y-17119D01*
X02316Y-17156D01*
X02412Y-17156D01*
X02662Y-17156D01*
X02751Y-17119D01*
X02819Y-17051D01*
X02856Y-16962D01*
X02856Y-16866D01*
X02856Y-16694D01*
X02857Y-16689D01*
X02857Y-16127D01*
X02997Y-15988D01*
X02997Y-15987D01*
X03077Y-15868D01*
X03091Y-15793D01*
X03277Y-15793D01*
X03366Y-15756D01*
X03434Y-15688D01*
X03471Y-15599D01*
X03471Y-15503D01*
X03471Y-14816D01*
X04281Y-14814D01*
X04281Y-15304D01*
M02*
