G04 (created by PCBNEW-RS274X (2012-01-19 BZR 3256)-stable) date 05/08/2012 19:19:35*
G01*
G70*
G90*
%MOIN*%
G04 Gerber Fmt 3.4, Leading zero omitted, Abs format*
%FSLAX34Y34*%
G04 APERTURE LIST*
%ADD10C,0.006000*%
%ADD11C,0.003900*%
%ADD12R,0.065000X0.065000*%
%ADD13C,0.065000*%
%ADD14C,0.070000*%
%ADD15R,0.080000X0.080000*%
%ADD16C,0.080000*%
%ADD17C,0.076000*%
%ADD18R,0.148000X0.094800*%
%ADD19R,0.057400X0.094800*%
%ADD20R,0.065000X0.045000*%
%ADD21R,0.045000X0.065000*%
%ADD22R,0.098700X0.130300*%
%ADD23C,0.079100*%
%ADD24C,0.118200*%
%ADD25C,0.256200*%
%ADD26R,0.075000X0.055000*%
%ADD27R,0.070000X0.035000*%
G04 APERTURE END LIST*
G54D10*
G54D11*
X00000Y-19685D02*
X00000Y00000D01*
X19685Y-19685D02*
X00000Y-19685D01*
X19685Y00000D02*
X19685Y-19685D01*
X00000Y00000D02*
X19685Y00000D01*
G54D12*
X06536Y-16890D03*
G54D13*
X05748Y-16890D03*
G54D14*
X01674Y-14272D03*
X01674Y-12540D03*
G54D15*
X18689Y-17189D03*
G54D16*
X18689Y-16189D03*
X18689Y-15189D03*
X18689Y-14189D03*
G54D15*
X13689Y-01189D03*
G54D16*
X12689Y-01189D03*
X11689Y-01189D03*
X10689Y-01189D03*
G54D15*
X17689Y-01189D03*
G54D16*
X16689Y-01189D03*
X15689Y-01189D03*
X14689Y-01189D03*
G54D15*
X18689Y-13189D03*
G54D16*
X18689Y-12189D03*
X18689Y-11189D03*
X18689Y-10189D03*
G54D15*
X18689Y-05189D03*
G54D16*
X18689Y-04189D03*
X18689Y-03189D03*
X18689Y-02189D03*
G54D15*
X18689Y-09189D03*
G54D16*
X18689Y-08189D03*
X18689Y-07189D03*
X18689Y-06189D03*
G54D15*
X06689Y-19189D03*
G54D16*
X07689Y-19189D03*
X08689Y-19189D03*
X09689Y-19189D03*
G54D15*
X10689Y-19189D03*
G54D16*
X11689Y-19189D03*
X12689Y-19189D03*
X13689Y-19189D03*
G54D15*
X14689Y-19189D03*
G54D16*
X15689Y-19189D03*
X16689Y-19189D03*
X17689Y-19189D03*
G54D15*
X09689Y-01189D03*
G54D16*
X08689Y-01189D03*
X07689Y-01189D03*
X06689Y-01189D03*
G54D15*
X03689Y-01189D03*
G54D16*
X02689Y-01189D03*
X01689Y-01189D03*
X00689Y-01189D03*
X02689Y-19189D03*
X03689Y-19189D03*
X04689Y-19189D03*
X05689Y-19189D03*
G54D17*
X04689Y-09889D03*
X04689Y-07889D03*
G54D18*
X03780Y-14567D03*
G54D19*
X04686Y-12165D03*
X03780Y-12165D03*
X02874Y-12165D03*
G54D20*
X11378Y-07387D03*
X11378Y-06787D03*
G54D21*
X11669Y-08071D03*
X12269Y-08071D03*
G54D20*
X10118Y-06787D03*
X10118Y-07387D03*
G54D21*
X11590Y-09646D03*
X12190Y-09646D03*
G54D20*
X09213Y-05418D03*
X09213Y-04818D03*
G54D15*
X00639Y-16689D03*
G54D16*
X00639Y-17689D03*
G54D15*
X00689Y-09689D03*
G54D16*
X00689Y-08689D03*
G54D15*
X05689Y-01189D03*
G54D16*
X04689Y-01189D03*
G54D21*
X08095Y-08346D03*
X07495Y-08346D03*
X08095Y-11417D03*
X07495Y-11417D03*
X08095Y-09252D03*
X07495Y-09252D03*
X08095Y-10669D03*
X07495Y-10669D03*
G54D10*
G36*
X16511Y-13386D02*
X15945Y-13952D01*
X15379Y-13386D01*
X15945Y-12820D01*
X16511Y-13386D01*
X16511Y-13386D01*
G37*
G54D16*
X15237Y-12678D03*
G54D20*
X13439Y-15489D03*
X13439Y-14889D03*
X12689Y-15489D03*
X12689Y-14889D03*
G54D21*
X14489Y-11689D03*
X15089Y-11689D03*
G54D20*
X12756Y-13007D03*
X12756Y-13607D03*
G54D21*
X03189Y-07889D03*
X02589Y-07889D03*
X03189Y-09889D03*
X02589Y-09889D03*
G54D22*
X07579Y-15354D03*
X05807Y-15354D03*
G54D23*
X00649Y-06792D03*
X00649Y-05020D03*
X03209Y-05020D03*
X03209Y-06792D03*
X11438Y-15571D03*
X11438Y-17343D03*
X08878Y-17343D03*
X08878Y-15571D03*
G54D15*
X06693Y-13177D03*
G54D16*
X06693Y-12177D03*
G54D15*
X05709Y-13177D03*
G54D16*
X05709Y-12177D03*
G54D24*
X18898Y-18504D03*
X12598Y-03543D03*
G54D25*
X16142Y-16535D03*
X01969Y-03150D03*
G54D21*
X11669Y-08701D03*
X12269Y-08701D03*
G54D20*
X10748Y-06787D03*
X10748Y-07387D03*
G54D21*
X08095Y-12047D03*
X07495Y-12047D03*
X08095Y-09882D03*
X07495Y-09882D03*
G54D26*
X09409Y-06830D03*
X09409Y-07580D03*
G54D20*
X08150Y-13686D03*
X08150Y-13086D03*
X08898Y-13686D03*
X08898Y-13086D03*
G54D27*
X09701Y-13750D03*
X09701Y-14006D03*
X09701Y-14262D03*
X09701Y-14518D03*
X11401Y-14518D03*
X11401Y-14262D03*
X11401Y-14006D03*
X11401Y-13750D03*
G54D20*
X11890Y-12456D03*
X11890Y-13056D03*
M02*
