G04 (created by PCBNEW-RS274X (2012-01-19 BZR 3256)-stable) date 06/08/2012 15:41:16*
G01*
G70*
G90*
%MOIN*%
G04 Gerber Fmt 3.4, Leading zero omitted, Abs format*
%FSLAX34Y34*%
G04 APERTURE LIST*
%ADD10C,0.006000*%
%ADD11C,0.007500*%
%ADD12C,0.007900*%
%ADD13C,0.009900*%
%ADD14C,0.008900*%
%ADD15C,0.015000*%
%ADD16C,0.003900*%
%ADD17C,0.012000*%
%ADD18C,0.010000*%
%ADD19C,0.005000*%
%ADD20C,0.006500*%
%ADD21C,0.008000*%
%ADD22C,0.004500*%
G04 APERTURE END LIST*
G54D10*
G54D11*
X06065Y-09759D02*
X05671Y-09759D01*
X06065Y-09607D02*
X05859Y-09607D01*
X05822Y-09624D01*
X05803Y-09658D01*
X05803Y-09708D01*
X05822Y-09742D01*
X05840Y-09759D01*
X05803Y-09489D02*
X05803Y-09354D01*
X05671Y-09439D02*
X06009Y-09439D01*
X06047Y-09422D01*
X06065Y-09388D01*
X06065Y-09354D01*
X05803Y-09287D02*
X05803Y-09152D01*
X05671Y-09237D02*
X06009Y-09237D01*
X06047Y-09220D01*
X06065Y-09186D01*
X06065Y-09152D01*
X05803Y-09035D02*
X06197Y-09035D01*
X05822Y-09035D02*
X05803Y-09001D01*
X05803Y-08934D01*
X05822Y-08900D01*
X05840Y-08883D01*
X05878Y-08866D01*
X05990Y-08866D01*
X06028Y-08883D01*
X06047Y-08900D01*
X06065Y-08934D01*
X06065Y-09001D01*
X06047Y-09035D01*
X06047Y-08732D02*
X06065Y-08698D01*
X06065Y-08630D01*
X06047Y-08597D01*
X06009Y-08580D01*
X05990Y-08580D01*
X05953Y-08597D01*
X05934Y-08630D01*
X05934Y-08681D01*
X05915Y-08715D01*
X05878Y-08732D01*
X05859Y-08732D01*
X05822Y-08715D01*
X05803Y-08681D01*
X05803Y-08630D01*
X05822Y-08597D01*
X06028Y-08428D02*
X06047Y-08411D01*
X06065Y-08428D01*
X06047Y-08445D01*
X06028Y-08428D01*
X06065Y-08428D01*
X05822Y-08428D02*
X05840Y-08411D01*
X05859Y-08428D01*
X05840Y-08445D01*
X05822Y-08428D01*
X05859Y-08428D01*
X05653Y-08006D02*
X06159Y-08309D01*
X05653Y-07635D02*
X06159Y-07938D01*
X05803Y-07365D02*
X06122Y-07365D01*
X06159Y-07382D01*
X06178Y-07399D01*
X06197Y-07432D01*
X06197Y-07483D01*
X06178Y-07517D01*
X06047Y-07365D02*
X06065Y-07399D01*
X06065Y-07466D01*
X06047Y-07500D01*
X06028Y-07517D01*
X05990Y-07534D01*
X05878Y-07534D01*
X05840Y-07517D01*
X05822Y-07500D01*
X05803Y-07466D01*
X05803Y-07399D01*
X05822Y-07365D01*
X06065Y-07197D02*
X05803Y-07197D01*
X05671Y-07197D02*
X05690Y-07214D01*
X05709Y-07197D01*
X05690Y-07180D01*
X05671Y-07197D01*
X05709Y-07197D01*
X05803Y-07078D02*
X05803Y-06943D01*
X05671Y-07028D02*
X06009Y-07028D01*
X06047Y-07011D01*
X06065Y-06977D01*
X06065Y-06943D01*
X06065Y-06826D02*
X05671Y-06826D01*
X06065Y-06674D02*
X05859Y-06674D01*
X05822Y-06691D01*
X05803Y-06725D01*
X05803Y-06775D01*
X05822Y-06809D01*
X05840Y-06826D01*
X05803Y-06354D02*
X06065Y-06354D01*
X05803Y-06506D02*
X06009Y-06506D01*
X06047Y-06489D01*
X06065Y-06455D01*
X06065Y-06405D01*
X06047Y-06371D01*
X06028Y-06354D01*
X06065Y-06186D02*
X05671Y-06186D01*
X05822Y-06186D02*
X05803Y-06152D01*
X05803Y-06085D01*
X05822Y-06051D01*
X05840Y-06034D01*
X05878Y-06017D01*
X05990Y-06017D01*
X06028Y-06034D01*
X06047Y-06051D01*
X06065Y-06085D01*
X06065Y-06152D01*
X06047Y-06186D01*
X06028Y-05866D02*
X06047Y-05849D01*
X06065Y-05866D01*
X06047Y-05883D01*
X06028Y-05866D01*
X06065Y-05866D01*
X06047Y-05545D02*
X06065Y-05579D01*
X06065Y-05646D01*
X06047Y-05680D01*
X06028Y-05697D01*
X05990Y-05714D01*
X05878Y-05714D01*
X05840Y-05697D01*
X05822Y-05680D01*
X05803Y-05646D01*
X05803Y-05579D01*
X05822Y-05545D01*
X06065Y-05343D02*
X06047Y-05377D01*
X06028Y-05394D01*
X05990Y-05411D01*
X05878Y-05411D01*
X05840Y-05394D01*
X05822Y-05377D01*
X05803Y-05343D01*
X05803Y-05293D01*
X05822Y-05259D01*
X05840Y-05242D01*
X05878Y-05225D01*
X05990Y-05225D01*
X06028Y-05242D01*
X06047Y-05259D01*
X06065Y-05293D01*
X06065Y-05343D01*
X06065Y-05074D02*
X05803Y-05074D01*
X05840Y-05074D02*
X05822Y-05057D01*
X05803Y-05023D01*
X05803Y-04973D01*
X05822Y-04939D01*
X05859Y-04922D01*
X06065Y-04922D01*
X05859Y-04922D02*
X05822Y-04905D01*
X05803Y-04871D01*
X05803Y-04821D01*
X05822Y-04787D01*
X05859Y-04770D01*
X06065Y-04770D01*
X05653Y-04349D02*
X06159Y-04652D01*
X05803Y-04281D02*
X05803Y-04146D01*
X06065Y-04231D02*
X05728Y-04231D01*
X05690Y-04214D01*
X05671Y-04180D01*
X05671Y-04146D01*
X06065Y-04029D02*
X05803Y-04029D01*
X05878Y-04029D02*
X05840Y-04012D01*
X05822Y-03995D01*
X05803Y-03961D01*
X05803Y-03928D01*
X06065Y-03810D02*
X05803Y-03810D01*
X05671Y-03810D02*
X05690Y-03827D01*
X05709Y-03810D01*
X05690Y-03793D01*
X05671Y-03810D01*
X05709Y-03810D01*
X06047Y-03506D02*
X06065Y-03540D01*
X06065Y-03607D01*
X06047Y-03641D01*
X06009Y-03658D01*
X05859Y-03658D01*
X05822Y-03641D01*
X05803Y-03607D01*
X05803Y-03540D01*
X05822Y-03506D01*
X05859Y-03489D01*
X05897Y-03489D01*
X05934Y-03658D01*
X05803Y-03186D02*
X06122Y-03186D01*
X06159Y-03203D01*
X06178Y-03220D01*
X06197Y-03253D01*
X06197Y-03304D01*
X06178Y-03338D01*
X06047Y-03186D02*
X06065Y-03220D01*
X06065Y-03287D01*
X06047Y-03321D01*
X06028Y-03338D01*
X05990Y-03355D01*
X05878Y-03355D01*
X05840Y-03338D01*
X05822Y-03321D01*
X05803Y-03287D01*
X05803Y-03220D01*
X05822Y-03186D01*
X06047Y-02883D02*
X06065Y-02917D01*
X06065Y-02984D01*
X06047Y-03018D01*
X06009Y-03035D01*
X05859Y-03035D01*
X05822Y-03018D01*
X05803Y-02984D01*
X05803Y-02917D01*
X05822Y-02883D01*
X05859Y-02866D01*
X05897Y-02866D01*
X05934Y-03035D01*
X06065Y-02715D02*
X05803Y-02715D01*
X05878Y-02715D02*
X05840Y-02698D01*
X05822Y-02681D01*
X05803Y-02647D01*
X05803Y-02614D01*
X05653Y-02243D02*
X06159Y-02546D01*
X06691Y-09607D02*
X06485Y-09607D01*
X06448Y-09624D01*
X06429Y-09658D01*
X06429Y-09725D01*
X06448Y-09759D01*
X06673Y-09607D02*
X06691Y-09641D01*
X06691Y-09725D01*
X06673Y-09759D01*
X06635Y-09776D01*
X06598Y-09776D01*
X06560Y-09759D01*
X06541Y-09725D01*
X06541Y-09641D01*
X06523Y-09607D01*
X06429Y-09489D02*
X06429Y-09354D01*
X06297Y-09439D02*
X06635Y-09439D01*
X06673Y-09422D01*
X06691Y-09388D01*
X06691Y-09354D01*
X06673Y-09254D02*
X06691Y-09220D01*
X06691Y-09152D01*
X06673Y-09119D01*
X06635Y-09102D01*
X06616Y-09102D01*
X06579Y-09119D01*
X06560Y-09152D01*
X06560Y-09203D01*
X06541Y-09237D01*
X06504Y-09254D01*
X06485Y-09254D01*
X06448Y-09237D01*
X06429Y-09203D01*
X06429Y-09152D01*
X06448Y-09119D01*
X06691Y-08798D02*
X06485Y-08798D01*
X06448Y-08815D01*
X06429Y-08849D01*
X06429Y-08916D01*
X06448Y-08950D01*
X06673Y-08798D02*
X06691Y-08832D01*
X06691Y-08916D01*
X06673Y-08950D01*
X06635Y-08967D01*
X06598Y-08967D01*
X06560Y-08950D01*
X06541Y-08916D01*
X06541Y-08832D01*
X06523Y-08798D01*
X06691Y-08630D02*
X06429Y-08630D01*
X06466Y-08630D02*
X06448Y-08613D01*
X06429Y-08579D01*
X06429Y-08529D01*
X06448Y-08495D01*
X06485Y-08478D01*
X06691Y-08478D01*
X06485Y-08478D02*
X06448Y-08461D01*
X06429Y-08427D01*
X06429Y-08377D01*
X06448Y-08343D01*
X06485Y-08326D01*
X06691Y-08326D01*
X06297Y-08191D02*
X06297Y-07972D01*
X06448Y-08090D01*
X06448Y-08040D01*
X06466Y-08006D01*
X06485Y-07989D01*
X06523Y-07972D01*
X06616Y-07972D01*
X06654Y-07989D01*
X06673Y-08006D01*
X06691Y-08040D01*
X06691Y-08141D01*
X06673Y-08175D01*
X06654Y-08191D01*
X06673Y-07838D02*
X06691Y-07804D01*
X06691Y-07736D01*
X06673Y-07703D01*
X06635Y-07686D01*
X06616Y-07686D01*
X06579Y-07703D01*
X06560Y-07736D01*
X06560Y-07787D01*
X06541Y-07821D01*
X06504Y-07838D01*
X06485Y-07838D01*
X06448Y-07821D01*
X06429Y-07787D01*
X06429Y-07736D01*
X06448Y-07703D01*
X06335Y-07551D02*
X06316Y-07534D01*
X06297Y-07500D01*
X06297Y-07416D01*
X06316Y-07382D01*
X06335Y-07365D01*
X06373Y-07348D01*
X06410Y-07348D01*
X06466Y-07365D01*
X06691Y-07567D01*
X06691Y-07348D01*
X06691Y-07197D02*
X06297Y-07197D01*
X06448Y-07197D02*
X06429Y-07163D01*
X06429Y-07096D01*
X06448Y-07062D01*
X06466Y-07045D01*
X06504Y-07028D01*
X06616Y-07028D01*
X06654Y-07045D01*
X06673Y-07062D01*
X06691Y-07096D01*
X06691Y-07163D01*
X06673Y-07197D01*
X06691Y-06725D02*
X06485Y-06725D01*
X06448Y-06742D01*
X06429Y-06776D01*
X06429Y-06843D01*
X06448Y-06877D01*
X06673Y-06725D02*
X06691Y-06759D01*
X06691Y-06843D01*
X06673Y-06877D01*
X06635Y-06894D01*
X06598Y-06894D01*
X06560Y-06877D01*
X06541Y-06843D01*
X06541Y-06759D01*
X06523Y-06725D01*
X06541Y-06557D02*
X06541Y-06287D01*
X06691Y-05967D02*
X06297Y-05967D01*
X06673Y-05967D02*
X06691Y-06001D01*
X06691Y-06068D01*
X06673Y-06102D01*
X06654Y-06119D01*
X06616Y-06136D01*
X06504Y-06136D01*
X06466Y-06119D01*
X06448Y-06102D01*
X06429Y-06068D01*
X06429Y-06001D01*
X06448Y-05967D01*
X06673Y-05664D02*
X06691Y-05698D01*
X06691Y-05765D01*
X06673Y-05799D01*
X06635Y-05816D01*
X06485Y-05816D01*
X06448Y-05799D01*
X06429Y-05765D01*
X06429Y-05698D01*
X06448Y-05664D01*
X06485Y-05647D01*
X06523Y-05647D01*
X06560Y-05816D01*
X06429Y-05529D02*
X06691Y-05445D01*
X06429Y-05361D01*
X06691Y-05226D02*
X06297Y-05226D01*
X06448Y-05226D02*
X06429Y-05192D01*
X06429Y-05125D01*
X06448Y-05091D01*
X06466Y-05074D01*
X06504Y-05057D01*
X06616Y-05057D01*
X06654Y-05074D01*
X06673Y-05091D01*
X06691Y-05125D01*
X06691Y-05192D01*
X06673Y-05226D01*
X06691Y-04855D02*
X06673Y-04889D01*
X06654Y-04906D01*
X06616Y-04923D01*
X06504Y-04923D01*
X06466Y-04906D01*
X06448Y-04889D01*
X06429Y-04855D01*
X06429Y-04805D01*
X06448Y-04771D01*
X06466Y-04754D01*
X06504Y-04737D01*
X06616Y-04737D01*
X06654Y-04754D01*
X06673Y-04771D01*
X06691Y-04805D01*
X06691Y-04855D01*
X06691Y-04434D02*
X06485Y-04434D01*
X06448Y-04451D01*
X06429Y-04485D01*
X06429Y-04552D01*
X06448Y-04586D01*
X06673Y-04434D02*
X06691Y-04468D01*
X06691Y-04552D01*
X06673Y-04586D01*
X06635Y-04603D01*
X06598Y-04603D01*
X06560Y-04586D01*
X06541Y-04552D01*
X06541Y-04468D01*
X06523Y-04434D01*
X06691Y-04266D02*
X06429Y-04266D01*
X06504Y-04266D02*
X06466Y-04249D01*
X06448Y-04232D01*
X06429Y-04198D01*
X06429Y-04165D01*
X06691Y-03895D02*
X06297Y-03895D01*
X06673Y-03895D02*
X06691Y-03929D01*
X06691Y-03996D01*
X06673Y-04030D01*
X06654Y-04047D01*
X06616Y-04064D01*
X06504Y-04064D01*
X06466Y-04047D01*
X06448Y-04030D01*
X06429Y-03996D01*
X06429Y-03929D01*
X06448Y-03895D01*
G54D12*
X13330Y-11203D02*
X13330Y-11334D01*
X13577Y-11334D02*
X13105Y-11334D01*
X13105Y-11147D01*
X13555Y-10846D02*
X13577Y-10884D01*
X13577Y-10959D01*
X13555Y-10996D01*
X13510Y-11015D01*
X13330Y-11015D01*
X13285Y-10996D01*
X13262Y-10959D01*
X13262Y-10884D01*
X13285Y-10846D01*
X13330Y-10827D01*
X13375Y-10827D01*
X13420Y-11015D01*
X13577Y-10602D02*
X13555Y-10639D01*
X13510Y-10658D01*
X13105Y-10658D01*
X13577Y-10452D02*
X13262Y-10452D01*
X13105Y-10452D02*
X13128Y-10471D01*
X13150Y-10452D01*
X13128Y-10433D01*
X13105Y-10452D01*
X13150Y-10452D01*
X13577Y-10302D02*
X13262Y-10095D01*
X13262Y-10302D02*
X13577Y-10095D01*
X13577Y-09420D02*
X13352Y-09551D01*
X13577Y-09645D02*
X13105Y-09645D01*
X13105Y-09495D01*
X13128Y-09458D01*
X13150Y-09439D01*
X13195Y-09420D01*
X13262Y-09420D01*
X13307Y-09439D01*
X13330Y-09458D01*
X13352Y-09495D01*
X13352Y-09645D01*
X13577Y-09251D02*
X13262Y-09251D01*
X13105Y-09251D02*
X13128Y-09270D01*
X13150Y-09251D01*
X13128Y-09232D01*
X13105Y-09251D01*
X13150Y-09251D01*
X13555Y-08913D02*
X13577Y-08951D01*
X13577Y-09026D01*
X13555Y-09063D01*
X13510Y-09082D01*
X13330Y-09082D01*
X13285Y-09063D01*
X13262Y-09026D01*
X13262Y-08951D01*
X13285Y-08913D01*
X13330Y-08894D01*
X13375Y-08894D01*
X13420Y-09082D01*
X13262Y-08556D02*
X13644Y-08556D01*
X13689Y-08575D01*
X13712Y-08594D01*
X13734Y-08631D01*
X13734Y-08688D01*
X13712Y-08725D01*
X13555Y-08556D02*
X13577Y-08594D01*
X13577Y-08669D01*
X13555Y-08706D01*
X13532Y-08725D01*
X13487Y-08744D01*
X13352Y-08744D01*
X13307Y-08725D01*
X13285Y-08706D01*
X13262Y-08669D01*
X13262Y-08594D01*
X13285Y-08556D01*
X13555Y-08219D02*
X13577Y-08257D01*
X13577Y-08332D01*
X13555Y-08369D01*
X13510Y-08388D01*
X13330Y-08388D01*
X13285Y-08369D01*
X13262Y-08332D01*
X13262Y-08257D01*
X13285Y-08219D01*
X13330Y-08200D01*
X13375Y-08200D01*
X13420Y-08388D01*
X13577Y-08031D02*
X13262Y-08031D01*
X13352Y-08031D02*
X13307Y-08012D01*
X13285Y-07994D01*
X13262Y-07956D01*
X13262Y-07919D01*
X13555Y-07768D02*
X13577Y-07768D01*
X13622Y-07787D01*
X13644Y-07806D01*
X13150Y-07318D02*
X13128Y-07299D01*
X13105Y-07262D01*
X13105Y-07168D01*
X13128Y-07130D01*
X13150Y-07112D01*
X13195Y-07093D01*
X13240Y-07093D01*
X13307Y-07112D01*
X13577Y-07337D01*
X13577Y-07093D01*
X13105Y-06849D02*
X13105Y-06812D01*
X13128Y-06774D01*
X13150Y-06755D01*
X13195Y-06737D01*
X13285Y-06718D01*
X13397Y-06718D01*
X13487Y-06737D01*
X13532Y-06755D01*
X13555Y-06774D01*
X13577Y-06812D01*
X13577Y-06849D01*
X13555Y-06887D01*
X13532Y-06905D01*
X13487Y-06924D01*
X13397Y-06943D01*
X13285Y-06943D01*
X13195Y-06924D01*
X13150Y-06905D01*
X13128Y-06887D01*
X13105Y-06849D01*
X13577Y-06343D02*
X13577Y-06568D01*
X13577Y-06455D02*
X13105Y-06455D01*
X13172Y-06493D01*
X13217Y-06530D01*
X13240Y-06568D01*
X13150Y-06193D02*
X13128Y-06174D01*
X13105Y-06137D01*
X13105Y-06043D01*
X13128Y-06005D01*
X13150Y-05987D01*
X13195Y-05968D01*
X13240Y-05968D01*
X13307Y-05987D01*
X13577Y-06212D01*
X13577Y-05968D01*
G54D13*
X10742Y-18234D02*
X10742Y-17919D01*
X10836Y-18413D02*
X10930Y-18076D01*
X10686Y-18076D01*
X10461Y-18391D02*
X10424Y-18391D01*
X10386Y-18368D01*
X10367Y-18346D01*
X10349Y-18301D01*
X10330Y-18211D01*
X10330Y-18099D01*
X10349Y-18009D01*
X10367Y-17964D01*
X10386Y-17941D01*
X10424Y-17919D01*
X10461Y-17919D01*
X10499Y-17941D01*
X10517Y-17964D01*
X10536Y-18009D01*
X10555Y-18099D01*
X10555Y-18211D01*
X10536Y-18301D01*
X10517Y-18346D01*
X10499Y-18368D01*
X10461Y-18391D01*
X11933Y-18391D02*
X11689Y-18391D01*
X11820Y-18211D01*
X11764Y-18211D01*
X11726Y-18189D01*
X11708Y-18166D01*
X11689Y-18121D01*
X11689Y-18009D01*
X11708Y-17964D01*
X11726Y-17941D01*
X11764Y-17919D01*
X11876Y-17919D01*
X11914Y-17941D01*
X11933Y-17964D01*
X11501Y-17919D02*
X11426Y-17919D01*
X11389Y-17941D01*
X11370Y-17964D01*
X11333Y-18031D01*
X11314Y-18121D01*
X11314Y-18301D01*
X11333Y-18346D01*
X11351Y-18368D01*
X11389Y-18391D01*
X11464Y-18391D01*
X11501Y-18368D01*
X11520Y-18346D01*
X11539Y-18301D01*
X11539Y-18189D01*
X11520Y-18144D01*
X11501Y-18121D01*
X11464Y-18099D01*
X11389Y-18099D01*
X11351Y-18121D01*
X11333Y-18144D01*
X11314Y-18189D01*
X12917Y-18391D02*
X12673Y-18391D01*
X12804Y-18211D01*
X12748Y-18211D01*
X12710Y-18189D01*
X12692Y-18166D01*
X12673Y-18121D01*
X12673Y-18009D01*
X12692Y-17964D01*
X12710Y-17941D01*
X12748Y-17919D01*
X12860Y-17919D01*
X12898Y-17941D01*
X12917Y-17964D01*
X12448Y-18189D02*
X12485Y-18211D01*
X12504Y-18234D01*
X12523Y-18279D01*
X12523Y-18301D01*
X12504Y-18346D01*
X12485Y-18368D01*
X12448Y-18391D01*
X12373Y-18391D01*
X12335Y-18368D01*
X12317Y-18346D01*
X12298Y-18301D01*
X12298Y-18279D01*
X12317Y-18234D01*
X12335Y-18211D01*
X12373Y-18189D01*
X12448Y-18189D01*
X12485Y-18166D01*
X12504Y-18144D01*
X12523Y-18099D01*
X12523Y-18009D01*
X12504Y-17964D01*
X12485Y-17941D01*
X12448Y-17919D01*
X12373Y-17919D01*
X12335Y-17941D01*
X12317Y-17964D01*
X12298Y-18009D01*
X12298Y-18099D01*
X12317Y-18144D01*
X12335Y-18166D01*
X12373Y-18189D01*
X13902Y-18391D02*
X13658Y-18391D01*
X13789Y-18211D01*
X13733Y-18211D01*
X13695Y-18189D01*
X13677Y-18166D01*
X13658Y-18121D01*
X13658Y-18009D01*
X13677Y-17964D01*
X13695Y-17941D01*
X13733Y-17919D01*
X13845Y-17919D01*
X13883Y-17941D01*
X13902Y-17964D01*
X13527Y-18391D02*
X13264Y-18391D01*
X13433Y-17919D01*
X15083Y-18391D02*
X14839Y-18391D01*
X14970Y-18211D01*
X14914Y-18211D01*
X14876Y-18189D01*
X14858Y-18166D01*
X14839Y-18121D01*
X14839Y-18009D01*
X14858Y-17964D01*
X14876Y-17941D01*
X14914Y-17919D01*
X15026Y-17919D01*
X15064Y-17941D01*
X15083Y-17964D01*
X14501Y-18391D02*
X14576Y-18391D01*
X14614Y-18368D01*
X14633Y-18346D01*
X14670Y-18279D01*
X14689Y-18189D01*
X14689Y-18009D01*
X14670Y-17964D01*
X14651Y-17941D01*
X14614Y-17919D01*
X14539Y-17919D01*
X14501Y-17941D01*
X14483Y-17964D01*
X14464Y-18009D01*
X14464Y-18121D01*
X14483Y-18166D01*
X14501Y-18189D01*
X14539Y-18211D01*
X14614Y-18211D01*
X14651Y-18189D01*
X14670Y-18166D01*
X14689Y-18121D01*
X16067Y-18391D02*
X15823Y-18391D01*
X15954Y-18211D01*
X15898Y-18211D01*
X15860Y-18189D01*
X15842Y-18166D01*
X15823Y-18121D01*
X15823Y-18009D01*
X15842Y-17964D01*
X15860Y-17941D01*
X15898Y-17919D01*
X16010Y-17919D01*
X16048Y-17941D01*
X16067Y-17964D01*
X15467Y-18391D02*
X15654Y-18391D01*
X15673Y-18166D01*
X15654Y-18189D01*
X15617Y-18211D01*
X15523Y-18211D01*
X15485Y-18189D01*
X15467Y-18166D01*
X15448Y-18121D01*
X15448Y-18009D01*
X15467Y-17964D01*
X15485Y-17941D01*
X15523Y-17919D01*
X15617Y-17919D01*
X15654Y-17941D01*
X15673Y-17964D01*
X17051Y-18391D02*
X16807Y-18391D01*
X16938Y-18211D01*
X16882Y-18211D01*
X16844Y-18189D01*
X16826Y-18166D01*
X16807Y-18121D01*
X16807Y-18009D01*
X16826Y-17964D01*
X16844Y-17941D01*
X16882Y-17919D01*
X16994Y-17919D01*
X17032Y-17941D01*
X17051Y-17964D01*
X16469Y-18234D02*
X16469Y-17919D01*
X16563Y-18413D02*
X16657Y-18076D01*
X16413Y-18076D01*
X18036Y-18391D02*
X17792Y-18391D01*
X17923Y-18211D01*
X17867Y-18211D01*
X17829Y-18189D01*
X17811Y-18166D01*
X17792Y-18121D01*
X17792Y-18009D01*
X17811Y-17964D01*
X17829Y-17941D01*
X17867Y-17919D01*
X17979Y-17919D01*
X18017Y-17941D01*
X18036Y-17964D01*
X17661Y-18391D02*
X17417Y-18391D01*
X17548Y-18211D01*
X17492Y-18211D01*
X17454Y-18189D01*
X17436Y-18166D01*
X17417Y-18121D01*
X17417Y-18009D01*
X17436Y-17964D01*
X17454Y-17941D01*
X17492Y-17919D01*
X17604Y-17919D01*
X17642Y-17941D01*
X17661Y-17964D01*
X02868Y-18234D02*
X02868Y-17919D01*
X02962Y-18413D02*
X03056Y-18076D01*
X02812Y-18076D01*
X02606Y-18189D02*
X02643Y-18211D01*
X02662Y-18234D01*
X02681Y-18279D01*
X02681Y-18301D01*
X02662Y-18346D01*
X02643Y-18368D01*
X02606Y-18391D01*
X02531Y-18391D01*
X02493Y-18368D01*
X02475Y-18346D01*
X02456Y-18301D01*
X02456Y-18279D01*
X02475Y-18234D01*
X02493Y-18211D01*
X02531Y-18189D01*
X02606Y-18189D01*
X02643Y-18166D01*
X02662Y-18144D01*
X02681Y-18099D01*
X02681Y-18009D01*
X02662Y-17964D01*
X02643Y-17941D01*
X02606Y-17919D01*
X02531Y-17919D01*
X02493Y-17941D01*
X02475Y-17964D01*
X02456Y-18009D01*
X02456Y-18099D01*
X02475Y-18144D01*
X02493Y-18166D01*
X02531Y-18189D01*
X03852Y-18234D02*
X03852Y-17919D01*
X03946Y-18413D02*
X04040Y-18076D01*
X03796Y-18076D01*
X03684Y-18391D02*
X03421Y-18391D01*
X03590Y-17919D01*
X04466Y-18224D02*
X04443Y-18261D01*
X04443Y-18318D01*
X04466Y-18374D01*
X04510Y-18411D01*
X04555Y-18430D01*
X04645Y-18449D01*
X04713Y-18449D01*
X04803Y-18430D01*
X04848Y-18411D01*
X04893Y-18374D01*
X04915Y-18318D01*
X04915Y-18280D01*
X04893Y-18224D01*
X04870Y-18205D01*
X04713Y-18205D01*
X04713Y-18280D01*
X04915Y-18036D02*
X04443Y-18036D01*
X04915Y-17811D01*
X04443Y-17811D01*
X04915Y-17623D02*
X04443Y-17623D01*
X04443Y-17529D01*
X04466Y-17473D01*
X04510Y-17436D01*
X04555Y-17417D01*
X04645Y-17398D01*
X04713Y-17398D01*
X04803Y-17417D01*
X04848Y-17436D01*
X04893Y-17473D01*
X04915Y-17529D01*
X04915Y-17623D01*
G54D14*
X06231Y-18391D02*
X06012Y-18391D01*
X06130Y-18211D01*
X06080Y-18211D01*
X06046Y-18189D01*
X06029Y-18166D01*
X06012Y-18121D01*
X06012Y-18009D01*
X06029Y-17964D01*
X06046Y-17941D01*
X06080Y-17919D01*
X06181Y-17919D01*
X06215Y-17941D01*
X06231Y-17964D01*
X05861Y-17964D02*
X05844Y-17941D01*
X05861Y-17919D01*
X05878Y-17941D01*
X05861Y-17964D01*
X05861Y-17919D01*
X05725Y-18391D02*
X05506Y-18391D01*
X05624Y-18211D01*
X05574Y-18211D01*
X05540Y-18189D01*
X05523Y-18166D01*
X05506Y-18121D01*
X05506Y-18009D01*
X05523Y-17964D01*
X05540Y-17941D01*
X05574Y-17919D01*
X05675Y-17919D01*
X05709Y-17941D01*
X05725Y-17964D01*
X05405Y-18391D02*
X05287Y-17919D01*
X05169Y-18391D01*
G54D13*
X07002Y-18234D02*
X07002Y-17919D01*
X07096Y-18413D02*
X07190Y-18076D01*
X06946Y-18076D01*
X06627Y-18234D02*
X06627Y-17919D01*
X06721Y-18413D02*
X06815Y-18076D01*
X06571Y-18076D01*
X07789Y-18234D02*
X07789Y-17919D01*
X07883Y-18413D02*
X07977Y-18076D01*
X07733Y-18076D01*
X07621Y-18391D02*
X07377Y-18391D01*
X07508Y-18211D01*
X07452Y-18211D01*
X07414Y-18189D01*
X07396Y-18166D01*
X07377Y-18121D01*
X07377Y-18009D01*
X07396Y-17964D01*
X07414Y-17941D01*
X07452Y-17919D01*
X07564Y-17919D01*
X07602Y-17941D01*
X07621Y-17964D01*
X08773Y-18234D02*
X08773Y-17919D01*
X08867Y-18413D02*
X08961Y-18076D01*
X08717Y-18076D01*
X08586Y-18346D02*
X08567Y-18368D01*
X08530Y-18391D01*
X08436Y-18391D01*
X08398Y-18368D01*
X08380Y-18346D01*
X08361Y-18301D01*
X08361Y-18256D01*
X08380Y-18189D01*
X08605Y-17919D01*
X08361Y-17919D01*
X09758Y-18234D02*
X09758Y-17919D01*
X09852Y-18413D02*
X09946Y-18076D01*
X09702Y-18076D01*
X09346Y-17919D02*
X09571Y-17919D01*
X09458Y-17919D02*
X09458Y-18391D01*
X09496Y-18324D01*
X09533Y-18279D01*
X09571Y-18256D01*
X17820Y-14409D02*
X17801Y-14431D01*
X17764Y-14454D01*
X17670Y-14454D01*
X17632Y-14431D01*
X17614Y-14409D01*
X17595Y-14364D01*
X17595Y-14319D01*
X17614Y-14252D01*
X17839Y-13982D01*
X17595Y-13982D01*
X17370Y-14252D02*
X17407Y-14274D01*
X17426Y-14297D01*
X17445Y-14342D01*
X17445Y-14364D01*
X17426Y-14409D01*
X17407Y-14431D01*
X17370Y-14454D01*
X17295Y-14454D01*
X17257Y-14431D01*
X17239Y-14409D01*
X17220Y-14364D01*
X17220Y-14342D01*
X17239Y-14297D01*
X17257Y-14274D01*
X17295Y-14252D01*
X17370Y-14252D01*
X17407Y-14229D01*
X17426Y-14207D01*
X17445Y-14162D01*
X17445Y-14072D01*
X17426Y-14027D01*
X17407Y-14004D01*
X17370Y-13982D01*
X17295Y-13982D01*
X17257Y-14004D01*
X17239Y-14027D01*
X17220Y-14072D01*
X17220Y-14162D01*
X17239Y-14207D01*
X17257Y-14229D01*
X17295Y-14252D01*
G54D12*
X17638Y-15458D02*
X17619Y-15439D01*
X17600Y-15402D01*
X17600Y-15308D01*
X17619Y-15270D01*
X17638Y-15252D01*
X17676Y-15233D01*
X17713Y-15233D01*
X17769Y-15252D01*
X17994Y-15477D01*
X17994Y-15233D01*
X17994Y-15045D02*
X17994Y-14970D01*
X17976Y-14933D01*
X17957Y-14914D01*
X17901Y-14877D01*
X17826Y-14858D01*
X17676Y-14858D01*
X17638Y-14877D01*
X17619Y-14895D01*
X17600Y-14933D01*
X17600Y-15008D01*
X17619Y-15045D01*
X17638Y-15064D01*
X17676Y-15083D01*
X17769Y-15083D01*
X17807Y-15064D01*
X17826Y-15045D01*
X17844Y-15008D01*
X17844Y-14933D01*
X17826Y-14895D01*
X17807Y-14877D01*
X17769Y-14858D01*
X17600Y-16461D02*
X17600Y-16217D01*
X17751Y-16348D01*
X17751Y-16292D01*
X17769Y-16254D01*
X17788Y-16236D01*
X17826Y-16217D01*
X17919Y-16217D01*
X17957Y-16236D01*
X17976Y-16254D01*
X17994Y-16292D01*
X17994Y-16404D01*
X17976Y-16442D01*
X17957Y-16461D01*
X17600Y-15973D02*
X17600Y-15936D01*
X17619Y-15898D01*
X17638Y-15879D01*
X17676Y-15861D01*
X17751Y-15842D01*
X17844Y-15842D01*
X17919Y-15861D01*
X17957Y-15879D01*
X17976Y-15898D01*
X17994Y-15936D01*
X17994Y-15973D01*
X17976Y-16011D01*
X17957Y-16029D01*
X17919Y-16048D01*
X17844Y-16067D01*
X17751Y-16067D01*
X17676Y-16048D01*
X17638Y-16029D01*
X17619Y-16011D01*
X17600Y-15973D01*
G54D13*
X17595Y-02171D02*
X17820Y-02171D01*
X17707Y-02171D02*
X17707Y-02643D01*
X17745Y-02576D01*
X17782Y-02531D01*
X17820Y-02508D01*
X17464Y-02643D02*
X17220Y-02643D01*
X17351Y-02463D01*
X17295Y-02463D01*
X17257Y-02441D01*
X17239Y-02418D01*
X17220Y-02373D01*
X17220Y-02261D01*
X17239Y-02216D01*
X17257Y-02193D01*
X17295Y-02171D01*
X17407Y-02171D01*
X17445Y-02193D01*
X17464Y-02216D01*
X17595Y-02959D02*
X17820Y-02959D01*
X17707Y-02959D02*
X17707Y-03431D01*
X17745Y-03364D01*
X17782Y-03319D01*
X17820Y-03296D01*
X17257Y-03274D02*
X17257Y-02959D01*
X17351Y-03453D02*
X17445Y-03116D01*
X17201Y-03116D01*
X17595Y-03943D02*
X17820Y-03943D01*
X17707Y-03943D02*
X17707Y-04415D01*
X17745Y-04348D01*
X17782Y-04303D01*
X17820Y-04280D01*
X17239Y-04415D02*
X17426Y-04415D01*
X17445Y-04190D01*
X17426Y-04213D01*
X17389Y-04235D01*
X17295Y-04235D01*
X17257Y-04213D01*
X17239Y-04190D01*
X17220Y-04145D01*
X17220Y-04033D01*
X17239Y-03988D01*
X17257Y-03965D01*
X17295Y-03943D01*
X17389Y-03943D01*
X17426Y-03965D01*
X17445Y-03988D01*
X17595Y-04927D02*
X17820Y-04927D01*
X17707Y-04927D02*
X17707Y-05399D01*
X17745Y-05332D01*
X17782Y-05287D01*
X17820Y-05264D01*
X17257Y-05399D02*
X17332Y-05399D01*
X17370Y-05376D01*
X17389Y-05354D01*
X17426Y-05287D01*
X17445Y-05197D01*
X17445Y-05017D01*
X17426Y-04972D01*
X17407Y-04949D01*
X17370Y-04927D01*
X17295Y-04927D01*
X17257Y-04949D01*
X17239Y-04972D01*
X17220Y-05017D01*
X17220Y-05129D01*
X17239Y-05174D01*
X17257Y-05197D01*
X17295Y-05219D01*
X17370Y-05219D01*
X17407Y-05197D01*
X17426Y-05174D01*
X17445Y-05129D01*
X17595Y-05911D02*
X17820Y-05911D01*
X17707Y-05911D02*
X17707Y-06383D01*
X17745Y-06316D01*
X17782Y-06271D01*
X17820Y-06248D01*
X17407Y-05911D02*
X17332Y-05911D01*
X17295Y-05933D01*
X17276Y-05956D01*
X17239Y-06023D01*
X17220Y-06113D01*
X17220Y-06293D01*
X17239Y-06338D01*
X17257Y-06360D01*
X17295Y-06383D01*
X17370Y-06383D01*
X17407Y-06360D01*
X17426Y-06338D01*
X17445Y-06293D01*
X17445Y-06181D01*
X17426Y-06136D01*
X17407Y-06113D01*
X17370Y-06091D01*
X17295Y-06091D01*
X17257Y-06113D01*
X17239Y-06136D01*
X17220Y-06181D01*
X17820Y-07323D02*
X17801Y-07345D01*
X17764Y-07368D01*
X17670Y-07368D01*
X17632Y-07345D01*
X17614Y-07323D01*
X17595Y-07278D01*
X17595Y-07233D01*
X17614Y-07166D01*
X17839Y-06896D01*
X17595Y-06896D01*
X17351Y-07368D02*
X17314Y-07368D01*
X17276Y-07345D01*
X17257Y-07323D01*
X17239Y-07278D01*
X17220Y-07188D01*
X17220Y-07076D01*
X17239Y-06986D01*
X17257Y-06941D01*
X17276Y-06918D01*
X17314Y-06896D01*
X17351Y-06896D01*
X17389Y-06918D01*
X17407Y-06941D01*
X17426Y-06986D01*
X17445Y-07076D01*
X17445Y-07188D01*
X17426Y-07278D01*
X17407Y-07323D01*
X17389Y-07345D01*
X17351Y-07368D01*
X17820Y-08307D02*
X17801Y-08329D01*
X17764Y-08352D01*
X17670Y-08352D01*
X17632Y-08329D01*
X17614Y-08307D01*
X17595Y-08262D01*
X17595Y-08217D01*
X17614Y-08150D01*
X17839Y-07880D01*
X17595Y-07880D01*
X17220Y-07880D02*
X17445Y-07880D01*
X17332Y-07880D02*
X17332Y-08352D01*
X17370Y-08285D01*
X17407Y-08240D01*
X17445Y-08217D01*
X17820Y-09291D02*
X17801Y-09313D01*
X17764Y-09336D01*
X17670Y-09336D01*
X17632Y-09313D01*
X17614Y-09291D01*
X17595Y-09246D01*
X17595Y-09201D01*
X17614Y-09134D01*
X17839Y-08864D01*
X17595Y-08864D01*
X17445Y-09291D02*
X17426Y-09313D01*
X17389Y-09336D01*
X17295Y-09336D01*
X17257Y-09313D01*
X17239Y-09291D01*
X17220Y-09246D01*
X17220Y-09201D01*
X17239Y-09134D01*
X17464Y-08864D01*
X17220Y-08864D01*
X17820Y-10275D02*
X17801Y-10297D01*
X17764Y-10320D01*
X17670Y-10320D01*
X17632Y-10297D01*
X17614Y-10275D01*
X17595Y-10230D01*
X17595Y-10185D01*
X17614Y-10118D01*
X17839Y-09848D01*
X17595Y-09848D01*
X17464Y-10320D02*
X17220Y-10320D01*
X17351Y-10140D01*
X17295Y-10140D01*
X17257Y-10118D01*
X17239Y-10095D01*
X17220Y-10050D01*
X17220Y-09938D01*
X17239Y-09893D01*
X17257Y-09870D01*
X17295Y-09848D01*
X17407Y-09848D01*
X17445Y-09870D01*
X17464Y-09893D01*
X17820Y-11456D02*
X17801Y-11478D01*
X17764Y-11501D01*
X17670Y-11501D01*
X17632Y-11478D01*
X17614Y-11456D01*
X17595Y-11411D01*
X17595Y-11366D01*
X17614Y-11299D01*
X17839Y-11029D01*
X17595Y-11029D01*
X17239Y-11501D02*
X17426Y-11501D01*
X17445Y-11276D01*
X17426Y-11299D01*
X17389Y-11321D01*
X17295Y-11321D01*
X17257Y-11299D01*
X17239Y-11276D01*
X17220Y-11231D01*
X17220Y-11119D01*
X17239Y-11074D01*
X17257Y-11051D01*
X17295Y-11029D01*
X17389Y-11029D01*
X17426Y-11051D01*
X17445Y-11074D01*
X17820Y-12441D02*
X17801Y-12463D01*
X17764Y-12486D01*
X17670Y-12486D01*
X17632Y-12463D01*
X17614Y-12441D01*
X17595Y-12396D01*
X17595Y-12351D01*
X17614Y-12284D01*
X17839Y-12014D01*
X17595Y-12014D01*
X17257Y-12486D02*
X17332Y-12486D01*
X17370Y-12463D01*
X17389Y-12441D01*
X17426Y-12374D01*
X17445Y-12284D01*
X17445Y-12104D01*
X17426Y-12059D01*
X17407Y-12036D01*
X17370Y-12014D01*
X17295Y-12014D01*
X17257Y-12036D01*
X17239Y-12059D01*
X17220Y-12104D01*
X17220Y-12216D01*
X17239Y-12261D01*
X17257Y-12284D01*
X17295Y-12306D01*
X17370Y-12306D01*
X17407Y-12284D01*
X17426Y-12261D01*
X17445Y-12216D01*
X17820Y-13425D02*
X17801Y-13447D01*
X17764Y-13470D01*
X17670Y-13470D01*
X17632Y-13447D01*
X17614Y-13425D01*
X17595Y-13380D01*
X17595Y-13335D01*
X17614Y-13268D01*
X17839Y-12998D01*
X17595Y-12998D01*
X17464Y-13470D02*
X17201Y-13470D01*
X17370Y-12998D01*
X16807Y-02006D02*
X17032Y-02006D01*
X16919Y-02006D02*
X16919Y-02400D01*
X16957Y-02343D01*
X16994Y-02306D01*
X17032Y-02287D01*
X16563Y-02400D02*
X16526Y-02400D01*
X16488Y-02381D01*
X16469Y-02362D01*
X16451Y-02324D01*
X16432Y-02249D01*
X16432Y-02156D01*
X16451Y-02081D01*
X16469Y-02043D01*
X16488Y-02024D01*
X16526Y-02006D01*
X16563Y-02006D01*
X16601Y-02024D01*
X16619Y-02043D01*
X16638Y-02081D01*
X16657Y-02156D01*
X16657Y-02249D01*
X16638Y-02324D01*
X16619Y-02362D01*
X16601Y-02381D01*
X16563Y-02400D01*
X18776Y-00825D02*
X19001Y-00825D01*
X18888Y-00825D02*
X18888Y-01219D01*
X18926Y-01162D01*
X18963Y-01125D01*
X19001Y-01106D01*
X18401Y-00825D02*
X18626Y-00825D01*
X18513Y-00825D02*
X18513Y-01219D01*
X18551Y-01162D01*
X18588Y-01125D01*
X18626Y-01106D01*
X10452Y-00195D02*
X10795Y-00195D01*
X10623Y-00195D02*
X10574Y-00589D01*
X10638Y-00532D01*
X10701Y-00495D01*
X10760Y-00476D01*
X11774Y-00589D02*
X11403Y-00589D01*
X11603Y-00438D01*
X11517Y-00438D01*
X11460Y-00420D01*
X11431Y-00401D01*
X11403Y-00363D01*
X11403Y-00270D01*
X11431Y-00232D01*
X11460Y-00213D01*
X11517Y-00195D01*
X11689Y-00195D01*
X11746Y-00213D01*
X11774Y-00232D01*
X12444Y-00457D02*
X12444Y-00195D01*
X12587Y-00607D02*
X12730Y-00326D01*
X12358Y-00326D01*
X13597Y-00589D02*
X13883Y-00589D01*
X13912Y-00401D01*
X13883Y-00420D01*
X13826Y-00438D01*
X13683Y-00438D01*
X13626Y-00420D01*
X13597Y-00401D01*
X13569Y-00363D01*
X13569Y-00270D01*
X13597Y-00232D01*
X13626Y-00213D01*
X13683Y-00195D01*
X13826Y-00195D01*
X13883Y-00213D01*
X13912Y-00232D01*
X14649Y-02400D02*
X14763Y-02400D01*
X14820Y-02381D01*
X14849Y-02362D01*
X14906Y-02306D01*
X14935Y-02231D01*
X14935Y-02081D01*
X14906Y-02043D01*
X14878Y-02024D01*
X14820Y-02006D01*
X14706Y-02006D01*
X14649Y-02024D01*
X14620Y-02043D01*
X14592Y-02081D01*
X14592Y-02174D01*
X14620Y-02212D01*
X14649Y-02231D01*
X14706Y-02249D01*
X14820Y-02249D01*
X14878Y-02231D01*
X14906Y-02212D01*
X14935Y-02174D01*
X15862Y-02006D02*
X15747Y-02006D01*
X15690Y-02024D01*
X15662Y-02043D01*
X15604Y-02099D01*
X15576Y-02174D01*
X15576Y-02324D01*
X15604Y-02362D01*
X15633Y-02381D01*
X15690Y-02400D01*
X15804Y-02400D01*
X15862Y-02381D01*
X15890Y-02362D01*
X15919Y-02324D01*
X15919Y-02231D01*
X15890Y-02193D01*
X15862Y-02174D01*
X15804Y-02156D01*
X15690Y-02156D01*
X15633Y-02174D01*
X15604Y-02193D01*
X15576Y-02231D01*
X09719Y-00589D02*
X09794Y-00589D01*
X09832Y-00570D01*
X09851Y-00551D01*
X09888Y-00495D01*
X09907Y-00420D01*
X09907Y-00270D01*
X09888Y-00232D01*
X09869Y-00213D01*
X09832Y-00195D01*
X09757Y-00195D01*
X09719Y-00213D01*
X09701Y-00232D01*
X09682Y-00270D01*
X09682Y-00363D01*
X09701Y-00401D01*
X09719Y-00420D01*
X09757Y-00438D01*
X09832Y-00438D01*
X09869Y-00420D01*
X09888Y-00401D01*
X09907Y-00363D01*
X09551Y-00589D02*
X09307Y-00589D01*
X09438Y-00438D01*
X09382Y-00438D01*
X09344Y-00420D01*
X09326Y-00401D01*
X09307Y-00363D01*
X09307Y-00270D01*
X09326Y-00232D01*
X09344Y-00213D01*
X09382Y-00195D01*
X09494Y-00195D01*
X09532Y-00213D01*
X09551Y-00232D01*
X08716Y-00589D02*
X08903Y-00589D01*
X08922Y-00401D01*
X08903Y-00420D01*
X08866Y-00438D01*
X08772Y-00438D01*
X08734Y-00420D01*
X08716Y-00401D01*
X08697Y-00363D01*
X08697Y-00270D01*
X08716Y-00232D01*
X08734Y-00213D01*
X08772Y-00195D01*
X08866Y-00195D01*
X08903Y-00213D01*
X08922Y-00232D01*
X08509Y-00195D02*
X08434Y-00195D01*
X08397Y-00213D01*
X08378Y-00232D01*
X08341Y-00288D01*
X08322Y-00363D01*
X08322Y-00513D01*
X08341Y-00551D01*
X08359Y-00570D01*
X08397Y-00589D01*
X08472Y-00589D01*
X08509Y-00570D01*
X08528Y-00551D01*
X08547Y-00513D01*
X08547Y-00420D01*
X08528Y-00382D01*
X08509Y-00363D01*
X08472Y-00345D01*
X08397Y-00345D01*
X08359Y-00363D01*
X08341Y-00382D01*
X08322Y-00420D01*
X07317Y-03328D02*
X07789Y-03197D01*
X07317Y-03066D01*
X07767Y-02765D02*
X07789Y-02803D01*
X07789Y-02878D01*
X07767Y-02915D01*
X07744Y-02934D01*
X07699Y-02953D01*
X07564Y-02953D01*
X07519Y-02934D01*
X07497Y-02915D01*
X07474Y-02878D01*
X07474Y-02803D01*
X07497Y-02765D01*
X07789Y-02540D02*
X07767Y-02577D01*
X07744Y-02596D01*
X07699Y-02615D01*
X07564Y-02615D01*
X07519Y-02596D01*
X07497Y-02577D01*
X07474Y-02540D01*
X07474Y-02484D01*
X07497Y-02446D01*
X07519Y-02427D01*
X07564Y-02409D01*
X07699Y-02409D01*
X07744Y-02427D01*
X07767Y-02446D01*
X07789Y-02484D01*
X07789Y-02540D01*
X07789Y-02240D02*
X07474Y-02240D01*
X07564Y-02240D02*
X07519Y-02221D01*
X07497Y-02203D01*
X07474Y-02165D01*
X07474Y-02128D01*
X07767Y-01846D02*
X07789Y-01884D01*
X07789Y-01959D01*
X07767Y-01996D01*
X07722Y-02015D01*
X07542Y-02015D01*
X07497Y-01996D01*
X07474Y-01959D01*
X07474Y-01884D01*
X07497Y-01846D01*
X07542Y-01827D01*
X07587Y-01827D01*
X07632Y-02015D01*
X05763Y-00589D02*
X05950Y-00589D01*
X05969Y-00401D01*
X05950Y-00420D01*
X05913Y-00438D01*
X05819Y-00438D01*
X05781Y-00420D01*
X05763Y-00401D01*
X05744Y-00363D01*
X05744Y-00270D01*
X05763Y-00232D01*
X05781Y-00213D01*
X05819Y-00195D01*
X05913Y-00195D01*
X05950Y-00213D01*
X05969Y-00232D01*
X05388Y-00589D02*
X05575Y-00589D01*
X05594Y-00401D01*
X05575Y-00420D01*
X05538Y-00438D01*
X05444Y-00438D01*
X05406Y-00420D01*
X05388Y-00401D01*
X05369Y-00363D01*
X05369Y-00270D01*
X05388Y-00232D01*
X05406Y-00213D01*
X05444Y-00195D01*
X05538Y-00195D01*
X05575Y-00213D01*
X05594Y-00232D01*
X03795Y-00589D02*
X03982Y-00589D01*
X04001Y-00401D01*
X03982Y-00420D01*
X03945Y-00438D01*
X03851Y-00438D01*
X03813Y-00420D01*
X03795Y-00401D01*
X03776Y-00363D01*
X03776Y-00270D01*
X03795Y-00232D01*
X03813Y-00213D01*
X03851Y-00195D01*
X03945Y-00195D01*
X03982Y-00213D01*
X04001Y-00232D01*
X03626Y-00551D02*
X03607Y-00570D01*
X03570Y-00589D01*
X03476Y-00589D01*
X03438Y-00570D01*
X03420Y-00551D01*
X03401Y-00513D01*
X03401Y-00476D01*
X03420Y-00420D01*
X03645Y-00195D01*
X03401Y-00195D01*
X04779Y-00589D02*
X04966Y-00589D01*
X04985Y-00401D01*
X04966Y-00420D01*
X04929Y-00438D01*
X04835Y-00438D01*
X04797Y-00420D01*
X04779Y-00401D01*
X04760Y-00363D01*
X04760Y-00270D01*
X04779Y-00232D01*
X04797Y-00213D01*
X04835Y-00195D01*
X04929Y-00195D01*
X04966Y-00213D01*
X04985Y-00232D01*
X04629Y-00589D02*
X04385Y-00589D01*
X04516Y-00438D01*
X04460Y-00438D01*
X04422Y-00420D01*
X04404Y-00401D01*
X04385Y-00363D01*
X04385Y-00270D01*
X04404Y-00232D01*
X04422Y-00213D01*
X04460Y-00195D01*
X04572Y-00195D01*
X04610Y-00213D01*
X04629Y-00232D01*
X02771Y-00590D02*
X02958Y-00590D01*
X02977Y-00402D01*
X02958Y-00421D01*
X02921Y-00439D01*
X02827Y-00439D01*
X02789Y-00421D01*
X02771Y-00402D01*
X02752Y-00364D01*
X02752Y-00271D01*
X02771Y-00233D01*
X02789Y-00214D01*
X02827Y-00196D01*
X02921Y-00196D01*
X02958Y-00214D01*
X02977Y-00233D01*
X02377Y-00196D02*
X02602Y-00196D01*
X02489Y-00196D02*
X02489Y-00590D01*
X02527Y-00533D01*
X02564Y-00496D01*
X02602Y-00477D01*
X01787Y-00590D02*
X01974Y-00590D01*
X01993Y-00402D01*
X01974Y-00421D01*
X01937Y-00439D01*
X01843Y-00439D01*
X01805Y-00421D01*
X01787Y-00402D01*
X01768Y-00364D01*
X01768Y-00271D01*
X01787Y-00233D01*
X01805Y-00214D01*
X01843Y-00196D01*
X01937Y-00196D01*
X01974Y-00214D01*
X01993Y-00233D01*
X01524Y-00590D02*
X01487Y-00590D01*
X01449Y-00571D01*
X01430Y-00552D01*
X01412Y-00514D01*
X01393Y-00439D01*
X01393Y-00346D01*
X01412Y-00271D01*
X01430Y-00233D01*
X01449Y-00214D01*
X01487Y-00196D01*
X01524Y-00196D01*
X01562Y-00214D01*
X01580Y-00233D01*
X01599Y-00271D01*
X01618Y-00346D01*
X01618Y-00439D01*
X01599Y-00514D01*
X01580Y-00552D01*
X01562Y-00571D01*
X01524Y-00590D01*
X00820Y-00458D02*
X00820Y-00196D01*
X00914Y-00608D02*
X01008Y-00327D01*
X00764Y-00327D01*
X00595Y-00196D02*
X00520Y-00196D01*
X00483Y-00214D01*
X00464Y-00233D01*
X00427Y-00289D01*
X00408Y-00364D01*
X00408Y-00514D01*
X00427Y-00552D01*
X00445Y-00571D01*
X00483Y-00590D01*
X00558Y-00590D01*
X00595Y-00571D01*
X00614Y-00552D01*
X00633Y-00514D01*
X00633Y-00421D01*
X00614Y-00383D01*
X00595Y-00364D01*
X00558Y-00346D01*
X00483Y-00346D01*
X00445Y-00364D01*
X00427Y-00383D01*
X00408Y-00421D01*
G54D15*
X10631Y-01969D02*
X10630Y-01969D01*
X11024Y-02362D02*
X10631Y-01969D01*
X10237Y-02362D02*
X11024Y-02362D01*
X10630Y-01969D02*
X10237Y-02362D01*
G54D16*
X00000Y-19685D02*
X00000Y00000D01*
X19685Y-19685D02*
X00000Y-19685D01*
X19685Y00000D02*
X19685Y-19685D01*
X00000Y00000D02*
X19685Y00000D01*
G54D17*
X15796Y-05555D02*
X15262Y-05555D01*
X15415Y-05555D02*
X15339Y-05527D01*
X15301Y-05498D01*
X15262Y-05441D01*
X15262Y-05384D01*
X15758Y-04956D02*
X15796Y-05013D01*
X15796Y-05127D01*
X15758Y-05184D01*
X15682Y-05213D01*
X15377Y-05213D01*
X15301Y-05184D01*
X15262Y-05127D01*
X15262Y-05013D01*
X15301Y-04956D01*
X15377Y-04927D01*
X15453Y-04927D01*
X15529Y-05213D01*
X15262Y-04727D02*
X15796Y-04584D01*
X15262Y-04442D01*
X15720Y-04213D02*
X15758Y-04185D01*
X15796Y-04213D01*
X15758Y-04242D01*
X15720Y-04213D01*
X15796Y-04213D01*
X15796Y-03156D02*
X15796Y-03499D01*
X15796Y-03327D02*
X14996Y-03327D01*
X15110Y-03384D01*
X15186Y-03442D01*
X15224Y-03499D01*
G54D16*
X00000Y-19685D02*
X00000Y00000D01*
X19685Y-19685D02*
X00000Y-19685D01*
X19685Y00000D02*
X19685Y-19685D01*
X00000Y00000D02*
X19685Y00000D01*
G54D18*
X19189Y-13689D02*
X19189Y-17689D01*
X18189Y-13689D02*
X18189Y-17689D01*
X18189Y-17689D02*
X19189Y-17689D01*
X19189Y-13689D02*
X18189Y-13689D01*
X10189Y-00689D02*
X14189Y-00689D01*
X10189Y-01689D02*
X14189Y-01689D01*
X14189Y-01689D02*
X14189Y-00689D01*
X10189Y-00689D02*
X10189Y-01689D01*
X14189Y-00689D02*
X18189Y-00689D01*
X14189Y-01689D02*
X18189Y-01689D01*
X18189Y-01689D02*
X18189Y-00689D01*
X14189Y-00689D02*
X14189Y-01689D01*
X19189Y-09689D02*
X19189Y-13689D01*
X18189Y-09689D02*
X18189Y-13689D01*
X18189Y-13689D02*
X19189Y-13689D01*
X19189Y-09689D02*
X18189Y-09689D01*
X19189Y-01689D02*
X19189Y-05689D01*
X18189Y-01689D02*
X18189Y-05689D01*
X18189Y-05689D02*
X19189Y-05689D01*
X19189Y-01689D02*
X18189Y-01689D01*
X19189Y-05689D02*
X19189Y-09689D01*
X18189Y-05689D02*
X18189Y-09689D01*
X18189Y-09689D02*
X19189Y-09689D01*
X19189Y-05689D02*
X18189Y-05689D01*
X10189Y-19689D02*
X06189Y-19689D01*
X10189Y-18689D02*
X06189Y-18689D01*
X06189Y-18689D02*
X06189Y-19689D01*
X10189Y-19689D02*
X10189Y-18689D01*
X14189Y-19689D02*
X10189Y-19689D01*
X14189Y-18689D02*
X10189Y-18689D01*
X10189Y-18689D02*
X10189Y-19689D01*
X14189Y-19689D02*
X14189Y-18689D01*
X18189Y-19689D02*
X14189Y-19689D01*
X18189Y-18689D02*
X14189Y-18689D01*
X14189Y-18689D02*
X14189Y-19689D01*
X18189Y-19689D02*
X18189Y-18689D01*
X06189Y-00689D02*
X10189Y-00689D01*
X06189Y-01689D02*
X10189Y-01689D01*
X10189Y-01689D02*
X10189Y-00689D01*
X06189Y-00689D02*
X06189Y-01689D01*
X00189Y-00689D02*
X04189Y-00689D01*
X00189Y-01689D02*
X04189Y-01689D01*
X04189Y-01689D02*
X04189Y-00689D01*
X00189Y-00689D02*
X00189Y-01689D01*
X06189Y-19689D02*
X02189Y-19689D01*
X06189Y-18689D02*
X02189Y-18689D01*
X02189Y-18689D02*
X02189Y-19689D01*
X06189Y-19689D02*
X06189Y-18689D01*
G54D15*
X05158Y-13248D02*
X04666Y-12756D01*
X05158Y-12756D02*
X02402Y-12756D01*
X02402Y-12756D02*
X02402Y-13937D01*
X02402Y-13937D02*
X05158Y-13937D01*
X05158Y-13937D02*
X05158Y-12756D01*
G54D19*
X11128Y-07537D02*
X11128Y-06637D01*
X11128Y-06637D02*
X11628Y-06637D01*
X11628Y-06637D02*
X11628Y-07537D01*
X11628Y-07537D02*
X11128Y-07537D01*
X11519Y-07821D02*
X12419Y-07821D01*
X12419Y-07821D02*
X12419Y-08321D01*
X12419Y-08321D02*
X11519Y-08321D01*
X11519Y-08321D02*
X11519Y-07821D01*
X10368Y-06637D02*
X10368Y-07537D01*
X10368Y-07537D02*
X09868Y-07537D01*
X09868Y-07537D02*
X09868Y-06637D01*
X09868Y-06637D02*
X10368Y-06637D01*
X11440Y-09396D02*
X12340Y-09396D01*
X12340Y-09396D02*
X12340Y-09896D01*
X12340Y-09896D02*
X11440Y-09896D01*
X11440Y-09896D02*
X11440Y-09396D01*
X08963Y-05568D02*
X08963Y-04668D01*
X08963Y-04668D02*
X09463Y-04668D01*
X09463Y-04668D02*
X09463Y-05568D01*
X09463Y-05568D02*
X08963Y-05568D01*
G54D10*
X06189Y-00689D02*
X06189Y-01689D01*
X06189Y-01689D02*
X04189Y-01689D01*
X04189Y-01689D02*
X04189Y-00689D01*
X04189Y-00689D02*
X06189Y-00689D01*
G54D19*
X08245Y-08596D02*
X07345Y-08596D01*
X07345Y-08596D02*
X07345Y-08096D01*
X07345Y-08096D02*
X08245Y-08096D01*
X08245Y-08096D02*
X08245Y-08596D01*
X08245Y-11667D02*
X07345Y-11667D01*
X07345Y-11667D02*
X07345Y-11167D01*
X07345Y-11167D02*
X08245Y-11167D01*
X08245Y-11167D02*
X08245Y-11667D01*
X08245Y-09502D02*
X07345Y-09502D01*
X07345Y-09502D02*
X07345Y-09002D01*
X07345Y-09002D02*
X08245Y-09002D01*
X08245Y-09002D02*
X08245Y-09502D01*
X08245Y-10919D02*
X07345Y-10919D01*
X07345Y-10919D02*
X07345Y-10419D01*
X07345Y-10419D02*
X08245Y-10419D01*
X08245Y-10419D02*
X08245Y-10919D01*
G54D10*
X16652Y-13386D02*
X15945Y-14093D01*
X15945Y-14093D02*
X14530Y-12678D01*
X14530Y-12678D02*
X15237Y-11971D01*
X15237Y-11971D02*
X16652Y-13386D01*
G54D19*
X13189Y-15639D02*
X13189Y-14739D01*
X13189Y-14739D02*
X13689Y-14739D01*
X13689Y-14739D02*
X13689Y-15639D01*
X13689Y-15639D02*
X13189Y-15639D01*
X12439Y-15639D02*
X12439Y-14739D01*
X12439Y-14739D02*
X12939Y-14739D01*
X12939Y-14739D02*
X12939Y-15639D01*
X12939Y-15639D02*
X12439Y-15639D01*
X14339Y-11439D02*
X15239Y-11439D01*
X15239Y-11439D02*
X15239Y-11939D01*
X15239Y-11939D02*
X14339Y-11939D01*
X14339Y-11939D02*
X14339Y-11439D01*
X13006Y-12857D02*
X13006Y-13757D01*
X13006Y-13757D02*
X12506Y-13757D01*
X12506Y-13757D02*
X12506Y-12857D01*
X12506Y-12857D02*
X13006Y-12857D01*
X03339Y-08139D02*
X02439Y-08139D01*
X02439Y-08139D02*
X02439Y-07639D01*
X02439Y-07639D02*
X03339Y-07639D01*
X03339Y-07639D02*
X03339Y-08139D01*
X03339Y-10139D02*
X02439Y-10139D01*
X02439Y-10139D02*
X02439Y-09639D01*
X02439Y-09639D02*
X03339Y-09639D01*
X03339Y-09639D02*
X03339Y-10139D01*
G54D12*
X07047Y-15433D02*
X07047Y-15275D01*
X07126Y-15354D02*
X06969Y-15354D01*
X08189Y-14724D02*
X07992Y-14724D01*
X08071Y-15984D02*
X08071Y-14763D01*
X08150Y-14724D02*
X08150Y-15984D01*
X08071Y-14724D02*
X05276Y-14724D01*
X05276Y-14724D02*
X05276Y-16023D01*
X05276Y-16023D02*
X08228Y-16023D01*
X08228Y-16023D02*
X08228Y-14724D01*
X08228Y-14724D02*
X08110Y-14724D01*
G54D20*
X16536Y-15551D02*
X16536Y-15649D01*
X16536Y-15649D02*
X16437Y-15748D01*
X16437Y-15748D02*
X16240Y-15748D01*
X16240Y-15354D02*
X16437Y-15354D01*
X16437Y-15354D02*
X16536Y-15452D01*
X16536Y-15452D02*
X16536Y-15551D01*
X16536Y-15551D02*
X16339Y-15551D01*
X15650Y-15748D02*
X15650Y-15354D01*
X15650Y-15354D02*
X15847Y-15551D01*
X15847Y-15551D02*
X16044Y-15354D01*
X16044Y-15354D02*
X16044Y-15748D01*
X15355Y-17716D02*
X14961Y-17716D01*
X14961Y-17716D02*
X14961Y-17322D01*
X17323Y-17322D02*
X17323Y-17716D01*
X17323Y-17716D02*
X16929Y-17716D01*
X16929Y-15354D02*
X17323Y-15354D01*
X17323Y-15354D02*
X17323Y-15748D01*
X14961Y-15748D02*
X14961Y-15354D01*
X14961Y-15354D02*
X15355Y-15354D01*
X02363Y-02166D02*
X02363Y-02264D01*
X02363Y-02264D02*
X02264Y-02363D01*
X02264Y-02363D02*
X02067Y-02363D01*
X02067Y-01969D02*
X02264Y-01969D01*
X02264Y-01969D02*
X02363Y-02067D01*
X02363Y-02067D02*
X02363Y-02166D01*
X02363Y-02166D02*
X02166Y-02166D01*
X01477Y-02363D02*
X01477Y-01969D01*
X01477Y-01969D02*
X01674Y-02166D01*
X01674Y-02166D02*
X01871Y-01969D01*
X01871Y-01969D02*
X01871Y-02363D01*
X01182Y-04331D02*
X00788Y-04331D01*
X00788Y-04331D02*
X00788Y-03937D01*
X03150Y-03937D02*
X03150Y-04331D01*
X03150Y-04331D02*
X02756Y-04331D01*
X02756Y-01969D02*
X03150Y-01969D01*
X03150Y-01969D02*
X03150Y-02363D01*
X00788Y-02363D02*
X00788Y-01969D01*
X00788Y-01969D02*
X01182Y-01969D01*
G54D19*
X11519Y-08451D02*
X12419Y-08451D01*
X12419Y-08451D02*
X12419Y-08951D01*
X12419Y-08951D02*
X11519Y-08951D01*
X11519Y-08951D02*
X11519Y-08451D01*
X10998Y-06637D02*
X10998Y-07537D01*
X10998Y-07537D02*
X10498Y-07537D01*
X10498Y-07537D02*
X10498Y-06637D01*
X10498Y-06637D02*
X10998Y-06637D01*
X08245Y-12297D02*
X07345Y-12297D01*
X07345Y-12297D02*
X07345Y-11797D01*
X07345Y-11797D02*
X08245Y-11797D01*
X08245Y-11797D02*
X08245Y-12297D01*
X08245Y-10132D02*
X07345Y-10132D01*
X07345Y-10132D02*
X07345Y-09632D01*
X07345Y-09632D02*
X08245Y-09632D01*
X08245Y-09632D02*
X08245Y-10132D01*
X09159Y-06555D02*
X09158Y-06564D01*
X09155Y-06574D01*
X09150Y-06582D01*
X09144Y-06590D01*
X09136Y-06596D01*
X09128Y-06601D01*
X09119Y-06603D01*
X09109Y-06604D01*
X09100Y-06604D01*
X09091Y-06601D01*
X09082Y-06596D01*
X09075Y-06590D01*
X09068Y-06583D01*
X09064Y-06574D01*
X09061Y-06565D01*
X09060Y-06555D01*
X09060Y-06546D01*
X09063Y-06537D01*
X09067Y-06528D01*
X09074Y-06521D01*
X09081Y-06514D01*
X09089Y-06510D01*
X09099Y-06507D01*
X09108Y-06506D01*
X09117Y-06506D01*
X09127Y-06509D01*
X09135Y-06513D01*
X09143Y-06519D01*
X09149Y-06527D01*
X09154Y-06535D01*
X09157Y-06544D01*
X09158Y-06554D01*
X09159Y-06555D01*
X09109Y-07005D02*
X09109Y-06605D01*
X09109Y-06605D02*
X09709Y-06605D01*
X09709Y-06605D02*
X09709Y-07005D01*
X09709Y-07405D02*
X09709Y-07805D01*
X09709Y-07805D02*
X09109Y-07805D01*
X09109Y-07805D02*
X09109Y-07405D01*
X07900Y-13836D02*
X07900Y-12936D01*
X07900Y-12936D02*
X08400Y-12936D01*
X08400Y-12936D02*
X08400Y-13836D01*
X08400Y-13836D02*
X07900Y-13836D01*
X08648Y-13836D02*
X08648Y-12936D01*
X08648Y-12936D02*
X09148Y-12936D01*
X09148Y-12936D02*
X09148Y-13836D01*
X09148Y-13836D02*
X08648Y-13836D01*
G54D21*
X09926Y-14009D02*
X10401Y-13509D01*
X09926Y-13509D02*
X09926Y-14759D01*
X09926Y-14759D02*
X11176Y-14759D01*
X11176Y-14759D02*
X11176Y-13509D01*
X11176Y-13509D02*
X09926Y-13509D01*
G54D19*
X12140Y-12306D02*
X12140Y-13206D01*
X12140Y-13206D02*
X11640Y-13206D01*
X11640Y-13206D02*
X11640Y-12306D01*
X11640Y-12306D02*
X12140Y-12306D01*
G54D17*
X02181Y-14092D02*
X02181Y-14578D01*
X02209Y-14635D01*
X02238Y-14663D01*
X02295Y-14692D01*
X02409Y-14692D01*
X02467Y-14663D01*
X02495Y-14635D01*
X02524Y-14578D01*
X02524Y-14092D01*
X03124Y-14692D02*
X02781Y-14692D01*
X02953Y-14692D02*
X02953Y-14092D01*
X02896Y-14178D01*
X02838Y-14235D01*
X02781Y-14263D01*
G54D22*
X11389Y-06460D02*
X11380Y-06469D01*
X11354Y-06479D01*
X11337Y-06479D01*
X11312Y-06469D01*
X11294Y-06450D01*
X11286Y-06431D01*
X11277Y-06393D01*
X11277Y-06365D01*
X11286Y-06327D01*
X11294Y-06308D01*
X11312Y-06288D01*
X11337Y-06279D01*
X11354Y-06279D01*
X11380Y-06288D01*
X11389Y-06298D01*
X11449Y-06279D02*
X11560Y-06279D01*
X11500Y-06355D01*
X11526Y-06355D01*
X11543Y-06365D01*
X11552Y-06374D01*
X11560Y-06393D01*
X11560Y-06441D01*
X11552Y-06460D01*
X11543Y-06469D01*
X11526Y-06479D01*
X11474Y-06479D01*
X11457Y-06469D01*
X11449Y-06460D01*
X12668Y-08133D02*
X12659Y-08142D01*
X12633Y-08152D01*
X12616Y-08152D01*
X12591Y-08142D01*
X12573Y-08123D01*
X12565Y-08104D01*
X12556Y-08066D01*
X12556Y-08038D01*
X12565Y-08000D01*
X12573Y-07981D01*
X12591Y-07961D01*
X12616Y-07952D01*
X12633Y-07952D01*
X12659Y-07961D01*
X12668Y-07971D01*
X12822Y-08019D02*
X12822Y-08152D01*
X12779Y-07942D02*
X12736Y-08085D01*
X12848Y-08085D01*
X10109Y-06460D02*
X10100Y-06469D01*
X10074Y-06479D01*
X10057Y-06479D01*
X10032Y-06469D01*
X10014Y-06450D01*
X10006Y-06431D01*
X09997Y-06393D01*
X09997Y-06365D01*
X10006Y-06327D01*
X10014Y-06308D01*
X10032Y-06288D01*
X10057Y-06279D01*
X10074Y-06279D01*
X10100Y-06288D01*
X10109Y-06298D01*
X10272Y-06279D02*
X10186Y-06279D01*
X10177Y-06374D01*
X10186Y-06365D01*
X10203Y-06355D01*
X10246Y-06355D01*
X10263Y-06365D01*
X10272Y-06374D01*
X10280Y-06393D01*
X10280Y-06441D01*
X10272Y-06460D01*
X10263Y-06469D01*
X10246Y-06479D01*
X10203Y-06479D01*
X10186Y-06469D01*
X10177Y-06460D01*
X12569Y-09708D02*
X12560Y-09717D01*
X12534Y-09727D01*
X12517Y-09727D01*
X12492Y-09717D01*
X12474Y-09698D01*
X12466Y-09679D01*
X12457Y-09641D01*
X12457Y-09613D01*
X12466Y-09575D01*
X12474Y-09556D01*
X12492Y-09536D01*
X12517Y-09527D01*
X12534Y-09527D01*
X12560Y-09536D01*
X12569Y-09546D01*
X12723Y-09527D02*
X12689Y-09527D01*
X12672Y-09536D01*
X12663Y-09546D01*
X12646Y-09575D01*
X12637Y-09613D01*
X12637Y-09689D01*
X12646Y-09708D01*
X12654Y-09717D01*
X12672Y-09727D01*
X12706Y-09727D01*
X12723Y-09717D01*
X12732Y-09708D01*
X12740Y-09689D01*
X12740Y-09641D01*
X12732Y-09622D01*
X12723Y-09613D01*
X12706Y-09603D01*
X12672Y-09603D01*
X12654Y-09613D01*
X12646Y-09622D01*
X12637Y-09641D01*
X09715Y-05180D02*
X09706Y-05189D01*
X09680Y-05199D01*
X09663Y-05199D01*
X09638Y-05189D01*
X09620Y-05170D01*
X09612Y-05151D01*
X09603Y-05113D01*
X09603Y-05085D01*
X09612Y-05047D01*
X09620Y-05028D01*
X09638Y-05008D01*
X09663Y-04999D01*
X09680Y-04999D01*
X09706Y-05008D01*
X09715Y-05018D01*
X09775Y-04999D02*
X09895Y-04999D01*
X09818Y-05199D01*
X07058Y-08428D02*
X07049Y-08437D01*
X07023Y-08447D01*
X07006Y-08447D01*
X06981Y-08437D01*
X06963Y-08418D01*
X06955Y-08399D01*
X06946Y-08361D01*
X06946Y-08333D01*
X06955Y-08295D01*
X06963Y-08276D01*
X06981Y-08256D01*
X07006Y-08247D01*
X07023Y-08247D01*
X07049Y-08256D01*
X07058Y-08266D01*
X07161Y-08333D02*
X07143Y-08323D01*
X07135Y-08314D01*
X07126Y-08295D01*
X07126Y-08285D01*
X07135Y-08266D01*
X07143Y-08256D01*
X07161Y-08247D01*
X07195Y-08247D01*
X07212Y-08256D01*
X07221Y-08266D01*
X07229Y-08285D01*
X07229Y-08295D01*
X07221Y-08314D01*
X07212Y-08323D01*
X07195Y-08333D01*
X07161Y-08333D01*
X07143Y-08342D01*
X07135Y-08352D01*
X07126Y-08371D01*
X07126Y-08409D01*
X07135Y-08428D01*
X07143Y-08437D01*
X07161Y-08447D01*
X07195Y-08447D01*
X07212Y-08437D01*
X07221Y-08428D01*
X07229Y-08409D01*
X07229Y-08371D01*
X07221Y-08352D01*
X07212Y-08342D01*
X07195Y-08333D01*
X07058Y-11479D02*
X07049Y-11488D01*
X07023Y-11498D01*
X07006Y-11498D01*
X06981Y-11488D01*
X06963Y-11469D01*
X06955Y-11450D01*
X06946Y-11412D01*
X06946Y-11384D01*
X06955Y-11346D01*
X06963Y-11327D01*
X06981Y-11307D01*
X07006Y-11298D01*
X07023Y-11298D01*
X07049Y-11307D01*
X07058Y-11317D01*
X07143Y-11498D02*
X07178Y-11498D01*
X07195Y-11488D01*
X07203Y-11479D01*
X07221Y-11450D01*
X07229Y-11412D01*
X07229Y-11336D01*
X07221Y-11317D01*
X07212Y-11307D01*
X07195Y-11298D01*
X07161Y-11298D01*
X07143Y-11307D01*
X07135Y-11317D01*
X07126Y-11336D01*
X07126Y-11384D01*
X07135Y-11403D01*
X07143Y-11412D01*
X07161Y-11422D01*
X07195Y-11422D01*
X07212Y-11412D01*
X07221Y-11403D01*
X07229Y-11384D01*
X06873Y-09314D02*
X06864Y-09323D01*
X06838Y-09333D01*
X06821Y-09333D01*
X06796Y-09323D01*
X06778Y-09304D01*
X06770Y-09285D01*
X06761Y-09247D01*
X06761Y-09219D01*
X06770Y-09181D01*
X06778Y-09162D01*
X06796Y-09142D01*
X06821Y-09133D01*
X06838Y-09133D01*
X06864Y-09142D01*
X06873Y-09152D01*
X07044Y-09333D02*
X06941Y-09333D01*
X06993Y-09333D02*
X06993Y-09133D01*
X06976Y-09162D01*
X06958Y-09181D01*
X06941Y-09190D01*
X07155Y-09133D02*
X07172Y-09133D01*
X07189Y-09142D01*
X07198Y-09152D01*
X07207Y-09171D01*
X07215Y-09209D01*
X07215Y-09257D01*
X07207Y-09295D01*
X07198Y-09314D01*
X07189Y-09323D01*
X07172Y-09333D01*
X07155Y-09333D01*
X07138Y-09323D01*
X07129Y-09314D01*
X07121Y-09295D01*
X07112Y-09257D01*
X07112Y-09209D01*
X07121Y-09171D01*
X07129Y-09152D01*
X07138Y-09142D01*
X07155Y-09133D01*
X06873Y-10790D02*
X06864Y-10799D01*
X06838Y-10809D01*
X06821Y-10809D01*
X06796Y-10799D01*
X06778Y-10780D01*
X06770Y-10761D01*
X06761Y-10723D01*
X06761Y-10695D01*
X06770Y-10657D01*
X06778Y-10638D01*
X06796Y-10618D01*
X06821Y-10609D01*
X06838Y-10609D01*
X06864Y-10618D01*
X06873Y-10628D01*
X07044Y-10809D02*
X06941Y-10809D01*
X06993Y-10809D02*
X06993Y-10609D01*
X06976Y-10638D01*
X06958Y-10657D01*
X06941Y-10666D01*
X07215Y-10809D02*
X07112Y-10809D01*
X07164Y-10809D02*
X07164Y-10609D01*
X07147Y-10638D01*
X07129Y-10657D01*
X07112Y-10666D01*
X13947Y-15278D02*
X13887Y-15183D01*
X13844Y-15278D02*
X13844Y-15078D01*
X13912Y-15078D01*
X13930Y-15087D01*
X13938Y-15097D01*
X13947Y-15116D01*
X13947Y-15145D01*
X13938Y-15164D01*
X13930Y-15173D01*
X13912Y-15183D01*
X13844Y-15183D01*
X14007Y-15078D02*
X14118Y-15078D01*
X14058Y-15154D01*
X14084Y-15154D01*
X14101Y-15164D01*
X14110Y-15173D01*
X14118Y-15192D01*
X14118Y-15240D01*
X14110Y-15259D01*
X14101Y-15268D01*
X14084Y-15278D01*
X14032Y-15278D01*
X14015Y-15268D01*
X14007Y-15259D01*
X12136Y-15278D02*
X12076Y-15183D01*
X12033Y-15278D02*
X12033Y-15078D01*
X12101Y-15078D01*
X12119Y-15087D01*
X12127Y-15097D01*
X12136Y-15116D01*
X12136Y-15145D01*
X12127Y-15164D01*
X12119Y-15173D01*
X12101Y-15183D01*
X12033Y-15183D01*
X12290Y-15145D02*
X12290Y-15278D01*
X12247Y-15068D02*
X12204Y-15211D01*
X12316Y-15211D01*
X15476Y-11755D02*
X15467Y-11764D01*
X15441Y-11774D01*
X15424Y-11774D01*
X15399Y-11764D01*
X15381Y-11745D01*
X15373Y-11726D01*
X15364Y-11688D01*
X15364Y-11660D01*
X15373Y-11622D01*
X15381Y-11603D01*
X15399Y-11583D01*
X15424Y-11574D01*
X15441Y-11574D01*
X15467Y-11583D01*
X15476Y-11593D01*
X15647Y-11774D02*
X15544Y-11774D01*
X15596Y-11774D02*
X15596Y-11574D01*
X15579Y-11603D01*
X15561Y-11622D01*
X15544Y-11631D01*
X15707Y-11574D02*
X15818Y-11574D01*
X15758Y-11650D01*
X15784Y-11650D01*
X15801Y-11660D01*
X15810Y-11669D01*
X15818Y-11688D01*
X15818Y-11736D01*
X15810Y-11755D01*
X15801Y-11764D01*
X15784Y-11774D01*
X15732Y-11774D01*
X15715Y-11764D01*
X15707Y-11755D01*
X12641Y-14078D02*
X12632Y-14087D01*
X12606Y-14097D01*
X12589Y-14097D01*
X12564Y-14087D01*
X12546Y-14068D01*
X12538Y-14049D01*
X12529Y-14011D01*
X12529Y-13983D01*
X12538Y-13945D01*
X12546Y-13926D01*
X12564Y-13906D01*
X12589Y-13897D01*
X12606Y-13897D01*
X12632Y-13906D01*
X12641Y-13916D01*
X12812Y-14097D02*
X12709Y-14097D01*
X12761Y-14097D02*
X12761Y-13897D01*
X12744Y-13926D01*
X12726Y-13945D01*
X12709Y-13954D01*
X12966Y-13964D02*
X12966Y-14097D01*
X12923Y-13887D02*
X12880Y-14030D01*
X12992Y-14030D01*
X02936Y-08527D02*
X02927Y-08536D01*
X02901Y-08546D01*
X02884Y-08546D01*
X02859Y-08536D01*
X02841Y-08517D01*
X02833Y-08498D01*
X02824Y-08460D01*
X02824Y-08432D01*
X02833Y-08394D01*
X02841Y-08375D01*
X02859Y-08355D01*
X02884Y-08346D01*
X02901Y-08346D01*
X02927Y-08355D01*
X02936Y-08365D01*
X03107Y-08546D02*
X03004Y-08546D01*
X03056Y-08546D02*
X03056Y-08346D01*
X03039Y-08375D01*
X03021Y-08394D01*
X03004Y-08403D01*
X03270Y-08346D02*
X03184Y-08346D01*
X03175Y-08441D01*
X03184Y-08432D01*
X03201Y-08422D01*
X03244Y-08422D01*
X03261Y-08432D01*
X03270Y-08441D01*
X03278Y-08460D01*
X03278Y-08508D01*
X03270Y-08527D01*
X03261Y-08536D01*
X03244Y-08546D01*
X03201Y-08546D01*
X03184Y-08536D01*
X03175Y-08527D01*
X02936Y-09412D02*
X02927Y-09421D01*
X02901Y-09431D01*
X02884Y-09431D01*
X02859Y-09421D01*
X02841Y-09402D01*
X02833Y-09383D01*
X02824Y-09345D01*
X02824Y-09317D01*
X02833Y-09279D01*
X02841Y-09260D01*
X02859Y-09240D01*
X02884Y-09231D01*
X02901Y-09231D01*
X02927Y-09240D01*
X02936Y-09250D01*
X03107Y-09431D02*
X03004Y-09431D01*
X03056Y-09431D02*
X03056Y-09231D01*
X03039Y-09260D01*
X03021Y-09279D01*
X03004Y-09288D01*
X03261Y-09231D02*
X03227Y-09231D01*
X03210Y-09240D01*
X03201Y-09250D01*
X03184Y-09279D01*
X03175Y-09317D01*
X03175Y-09393D01*
X03184Y-09412D01*
X03192Y-09421D01*
X03210Y-09431D01*
X03244Y-09431D01*
X03261Y-09421D01*
X03270Y-09412D01*
X03278Y-09393D01*
X03278Y-09345D01*
X03270Y-09326D01*
X03261Y-09317D01*
X03244Y-09307D01*
X03210Y-09307D01*
X03192Y-09317D01*
X03184Y-09326D01*
X03175Y-09345D01*
G54D13*
X06440Y-14571D02*
X06421Y-14590D01*
X06365Y-14608D01*
X06327Y-14608D01*
X06271Y-14590D01*
X06234Y-14552D01*
X06215Y-14515D01*
X06196Y-14440D01*
X06196Y-14383D01*
X06215Y-14308D01*
X06234Y-14271D01*
X06271Y-14233D01*
X06327Y-14214D01*
X06365Y-14214D01*
X06421Y-14233D01*
X06440Y-14252D01*
X06815Y-14608D02*
X06590Y-14608D01*
X06703Y-14608D02*
X06703Y-14214D01*
X06665Y-14271D01*
X06628Y-14308D01*
X06590Y-14327D01*
X06946Y-14214D02*
X07209Y-14214D01*
X07040Y-14608D01*
G54D22*
X12680Y-08763D02*
X12671Y-08772D01*
X12645Y-08782D01*
X12628Y-08782D01*
X12603Y-08772D01*
X12585Y-08753D01*
X12577Y-08734D01*
X12568Y-08696D01*
X12568Y-08668D01*
X12577Y-08630D01*
X12585Y-08611D01*
X12603Y-08591D01*
X12628Y-08582D01*
X12645Y-08582D01*
X12671Y-08591D01*
X12680Y-08601D01*
X12851Y-08782D02*
X12748Y-08782D01*
X12800Y-08782D02*
X12800Y-08582D01*
X12783Y-08611D01*
X12765Y-08630D01*
X12748Y-08639D01*
X12954Y-08668D02*
X12936Y-08658D01*
X12928Y-08649D01*
X12919Y-08630D01*
X12919Y-08620D01*
X12928Y-08601D01*
X12936Y-08591D01*
X12954Y-08582D01*
X12988Y-08582D01*
X13005Y-08591D01*
X13014Y-08601D01*
X13022Y-08620D01*
X13022Y-08630D01*
X13014Y-08649D01*
X13005Y-08658D01*
X12988Y-08668D01*
X12954Y-08668D01*
X12936Y-08677D01*
X12928Y-08687D01*
X12919Y-08706D01*
X12919Y-08744D01*
X12928Y-08763D01*
X12936Y-08772D01*
X12954Y-08782D01*
X12988Y-08782D01*
X13005Y-08772D01*
X13014Y-08763D01*
X13022Y-08744D01*
X13022Y-08706D01*
X13014Y-08687D01*
X13005Y-08677D01*
X12988Y-08668D01*
X10633Y-06440D02*
X10624Y-06449D01*
X10598Y-06459D01*
X10581Y-06459D01*
X10556Y-06449D01*
X10538Y-06430D01*
X10530Y-06411D01*
X10521Y-06373D01*
X10521Y-06345D01*
X10530Y-06307D01*
X10538Y-06288D01*
X10556Y-06268D01*
X10581Y-06259D01*
X10598Y-06259D01*
X10624Y-06268D01*
X10633Y-06278D01*
X10804Y-06459D02*
X10701Y-06459D01*
X10753Y-06459D02*
X10753Y-06259D01*
X10736Y-06288D01*
X10718Y-06307D01*
X10701Y-06316D01*
X10889Y-06459D02*
X10924Y-06459D01*
X10941Y-06449D01*
X10949Y-06440D01*
X10967Y-06411D01*
X10975Y-06373D01*
X10975Y-06297D01*
X10967Y-06278D01*
X10958Y-06268D01*
X10941Y-06259D01*
X10907Y-06259D01*
X10889Y-06268D01*
X10881Y-06278D01*
X10872Y-06297D01*
X10872Y-06345D01*
X10881Y-06364D01*
X10889Y-06373D01*
X10907Y-06383D01*
X10941Y-06383D01*
X10958Y-06373D01*
X10967Y-06364D01*
X10975Y-06345D01*
X08468Y-12109D02*
X08459Y-12118D01*
X08433Y-12128D01*
X08416Y-12128D01*
X08391Y-12118D01*
X08373Y-12099D01*
X08365Y-12080D01*
X08356Y-12042D01*
X08356Y-12014D01*
X08365Y-11976D01*
X08373Y-11957D01*
X08391Y-11937D01*
X08416Y-11928D01*
X08433Y-11928D01*
X08459Y-11937D01*
X08468Y-11947D01*
X08536Y-11947D02*
X08545Y-11937D01*
X08562Y-11928D01*
X08605Y-11928D01*
X08622Y-11937D01*
X08631Y-11947D01*
X08639Y-11966D01*
X08639Y-11985D01*
X08631Y-12014D01*
X08528Y-12128D01*
X08639Y-12128D01*
X08750Y-11928D02*
X08767Y-11928D01*
X08784Y-11937D01*
X08793Y-11947D01*
X08802Y-11966D01*
X08810Y-12004D01*
X08810Y-12052D01*
X08802Y-12090D01*
X08793Y-12109D01*
X08784Y-12118D01*
X08767Y-12128D01*
X08750Y-12128D01*
X08733Y-12118D01*
X08724Y-12109D01*
X08716Y-12090D01*
X08707Y-12052D01*
X08707Y-12004D01*
X08716Y-11966D01*
X08724Y-11947D01*
X08733Y-11937D01*
X08750Y-11928D01*
X06893Y-09944D02*
X06884Y-09953D01*
X06858Y-09963D01*
X06841Y-09963D01*
X06816Y-09953D01*
X06798Y-09934D01*
X06790Y-09915D01*
X06781Y-09877D01*
X06781Y-09849D01*
X06790Y-09811D01*
X06798Y-09792D01*
X06816Y-09772D01*
X06841Y-09763D01*
X06858Y-09763D01*
X06884Y-09772D01*
X06893Y-09782D01*
X06961Y-09782D02*
X06970Y-09772D01*
X06987Y-09763D01*
X07030Y-09763D01*
X07047Y-09772D01*
X07056Y-09782D01*
X07064Y-09801D01*
X07064Y-09820D01*
X07056Y-09849D01*
X06953Y-09963D01*
X07064Y-09963D01*
X07235Y-09963D02*
X07132Y-09963D01*
X07184Y-09963D02*
X07184Y-09763D01*
X07167Y-09792D01*
X07149Y-09811D01*
X07132Y-09820D01*
G54D19*
X09367Y-06455D02*
X09355Y-06467D01*
X09320Y-06479D01*
X09296Y-06479D01*
X09260Y-06467D01*
X09236Y-06443D01*
X09225Y-06420D01*
X09213Y-06372D01*
X09213Y-06336D01*
X09225Y-06289D01*
X09236Y-06265D01*
X09260Y-06241D01*
X09296Y-06229D01*
X09320Y-06229D01*
X09355Y-06241D01*
X09367Y-06253D01*
X09463Y-06253D02*
X09475Y-06241D01*
X09498Y-06229D01*
X09558Y-06229D01*
X09582Y-06241D01*
X09594Y-06253D01*
X09605Y-06277D01*
X09605Y-06301D01*
X09594Y-06336D01*
X09451Y-06479D01*
X09605Y-06479D01*
G54D22*
X08160Y-14175D02*
X08100Y-14080D01*
X08057Y-14175D02*
X08057Y-13975D01*
X08125Y-13975D01*
X08143Y-13984D01*
X08151Y-13994D01*
X08160Y-14013D01*
X08160Y-14042D01*
X08151Y-14061D01*
X08143Y-14070D01*
X08125Y-14080D01*
X08057Y-14080D01*
X08323Y-13975D02*
X08237Y-13975D01*
X08228Y-14070D01*
X08237Y-14061D01*
X08254Y-14051D01*
X08297Y-14051D01*
X08314Y-14061D01*
X08323Y-14070D01*
X08331Y-14089D01*
X08331Y-14137D01*
X08323Y-14156D01*
X08314Y-14165D01*
X08297Y-14175D01*
X08254Y-14175D01*
X08237Y-14165D01*
X08228Y-14156D01*
X08869Y-14175D02*
X08809Y-14080D01*
X08766Y-14175D02*
X08766Y-13975D01*
X08834Y-13975D01*
X08852Y-13984D01*
X08860Y-13994D01*
X08869Y-14013D01*
X08869Y-14042D01*
X08860Y-14061D01*
X08852Y-14070D01*
X08834Y-14080D01*
X08766Y-14080D01*
X09023Y-13975D02*
X08989Y-13975D01*
X08972Y-13984D01*
X08963Y-13994D01*
X08946Y-14023D01*
X08937Y-14061D01*
X08937Y-14137D01*
X08946Y-14156D01*
X08954Y-14165D01*
X08972Y-14175D01*
X09006Y-14175D01*
X09023Y-14165D01*
X09032Y-14156D01*
X09040Y-14137D01*
X09040Y-14089D01*
X09032Y-14070D01*
X09023Y-14061D01*
X09006Y-14051D01*
X08972Y-14051D01*
X08954Y-14061D01*
X08946Y-14070D01*
X08937Y-14089D01*
G54D10*
X10049Y-15316D02*
X10049Y-14922D01*
X10462Y-15279D02*
X10443Y-15298D01*
X10387Y-15316D01*
X10349Y-15316D01*
X10293Y-15298D01*
X10256Y-15260D01*
X10237Y-15223D01*
X10218Y-15148D01*
X10218Y-15091D01*
X10237Y-15016D01*
X10256Y-14979D01*
X10293Y-14941D01*
X10349Y-14922D01*
X10387Y-14922D01*
X10443Y-14941D01*
X10462Y-14960D01*
X10612Y-14960D02*
X10631Y-14941D01*
X10668Y-14922D01*
X10762Y-14922D01*
X10800Y-14941D01*
X10818Y-14960D01*
X10837Y-14998D01*
X10837Y-15035D01*
X10818Y-15091D01*
X10593Y-15316D01*
X10837Y-15316D01*
G54D22*
X11814Y-13527D02*
X11805Y-13536D01*
X11779Y-13546D01*
X11762Y-13546D01*
X11737Y-13536D01*
X11719Y-13517D01*
X11711Y-13498D01*
X11702Y-13460D01*
X11702Y-13432D01*
X11711Y-13394D01*
X11719Y-13375D01*
X11737Y-13355D01*
X11762Y-13346D01*
X11779Y-13346D01*
X11805Y-13355D01*
X11814Y-13365D01*
X11882Y-13365D02*
X11891Y-13355D01*
X11908Y-13346D01*
X11951Y-13346D01*
X11968Y-13355D01*
X11977Y-13365D01*
X11985Y-13384D01*
X11985Y-13403D01*
X11977Y-13432D01*
X11874Y-13546D01*
X11985Y-13546D01*
X12053Y-13365D02*
X12062Y-13355D01*
X12079Y-13346D01*
X12122Y-13346D01*
X12139Y-13355D01*
X12148Y-13365D01*
X12156Y-13384D01*
X12156Y-13403D01*
X12148Y-13432D01*
X12045Y-13546D01*
X12156Y-13546D01*
M02*
