M48
INCH,TZ
T1C0.024
T2C0.025
T3C0.030
T4C0.032
T5C0.039
T6C0.040
T7C0.118
%
G90
G05
T1
X5748Y-16890
X6536Y-16890
T2
X1535Y-8543
X4921Y-14291
X5709Y-4724
X5827Y-9291
X5984Y-6378
X6260Y-7756
X6496Y-9724
X6535Y-15354
X6575Y-7244
X6693Y-10158
X7008Y-6811
X7835Y-7598
X8504Y-14567
X8543Y-10669
X8583Y-5512
X8583Y-9803
X8976Y-11535
X9055Y-9134
X9055Y-9961
X9331Y-4370
X9409Y-8189
X9409Y-9528
X9882Y-8268
X10197Y-11417
X10630Y-8268
X10866Y-14252
X11102Y-9724
X11181Y-8543
X11969Y-16693
X12789Y-12489
X12874Y-7205
X13071Y-16260
X13189Y-18150
X13989Y-11689
T3
X4689Y-7889
X4689Y-9889
T4
X3543Y-16142
T5
X649Y-5020
X649Y-6792
X1674Y-12540
X1674Y-14272
X3209Y-5020
X3209Y-6792
X8878Y-15571
X8878Y-17343
X11438Y-15571
X11438Y-17343
X14271Y-4823
X14271Y-6595
X14271Y-7775
X14271Y-9547
X16831Y-4823
X16831Y-6595
X16831Y-7775
X16831Y-9547
T6
X639Y-16689
X639Y-17689
X689Y-1189
X689Y-8689
X689Y-9689
X1689Y-1189
X2689Y-1189
X2689Y-19189
X3689Y-1189
X3689Y-19189
X4689Y-1189
X4689Y-19189
X5689Y-1189
X5689Y-19189
X5709Y-12177
X5709Y-13177
X6689Y-1189
X6689Y-19189
X6693Y-12177
X6693Y-13177
X7689Y-1189
X7689Y-19189
X8689Y-1189
X8689Y-19189
X9689Y-1189
X9689Y-19189
X10689Y-1189
X10689Y-19189
X11689Y-1189
X11689Y-19189
X12689Y-1189
X12689Y-19189
X13689Y-1189
X13689Y-19189
X14689Y-1189
X14689Y-19189
X15237Y-12678
X15689Y-1189
X15689Y-19189
X15945Y-13386
X16689Y-1189
X16689Y-19189
X17689Y-1189
X17689Y-19189
X18689Y-2189
X18689Y-3189
X18689Y-4189
X18689Y-5189
X18689Y-6189
X18689Y-7189
X18689Y-8189
X18689Y-9189
X18689Y-10189
X18689Y-11189
X18689Y-12189
X18689Y-13189
X18689Y-14189
X18689Y-15189
X18689Y-16189
X18689Y-17189
T7
X1969Y-3150
X16142Y-16535
T0
M30
