G04 (created by PCBNEW-RS274X (2012-01-19 BZR 3256)-stable) date 06/08/2012 15:41:16*
G01*
G70*
G90*
%MOIN*%
G04 Gerber Fmt 3.4, Leading zero omitted, Abs format*
%FSLAX34Y34*%
G04 APERTURE LIST*
%ADD10C,0.006000*%
%ADD11C,0.007900*%
%ADD12C,0.003900*%
%ADD13R,0.045000X0.045000*%
%ADD14C,0.045000*%
%ADD15C,0.050000*%
%ADD16R,0.060000X0.060000*%
%ADD17C,0.060000*%
%ADD18C,0.056000*%
%ADD19R,0.128000X0.074800*%
%ADD20R,0.037400X0.074800*%
%ADD21R,0.045000X0.025000*%
%ADD22R,0.025000X0.045000*%
%ADD23R,0.039400X0.039400*%
%ADD24R,0.078700X0.110300*%
%ADD25C,0.059100*%
%ADD26C,0.039400*%
%ADD27C,0.236200*%
%ADD28R,0.055000X0.035000*%
%ADD29R,0.050000X0.015000*%
%ADD30C,0.035000*%
%ADD31C,0.010000*%
%ADD32C,0.012000*%
%ADD33C,0.025000*%
%ADD34C,0.016000*%
G04 APERTURE END LIST*
G54D10*
G54D11*
X17690Y-00441D02*
X17821Y-00441D01*
X17821Y-00235D02*
X17821Y-00629D01*
X17634Y-00629D01*
X17333Y-00253D02*
X17371Y-00235D01*
X17446Y-00235D01*
X17483Y-00253D01*
X17502Y-00291D01*
X17502Y-00441D01*
X17483Y-00478D01*
X17446Y-00497D01*
X17371Y-00497D01*
X17333Y-00478D01*
X17314Y-00441D01*
X17314Y-00403D01*
X17502Y-00366D01*
X17089Y-00235D02*
X17126Y-00253D01*
X17145Y-00291D01*
X17145Y-00629D01*
X16939Y-00235D02*
X16939Y-00497D01*
X16939Y-00629D02*
X16958Y-00610D01*
X16939Y-00591D01*
X16920Y-00610D01*
X16939Y-00629D01*
X16939Y-00591D01*
X16789Y-00235D02*
X16582Y-00497D01*
X16789Y-00497D02*
X16582Y-00235D01*
X15907Y-00235D02*
X16038Y-00422D01*
X16132Y-00235D02*
X16132Y-00629D01*
X15982Y-00629D01*
X15945Y-00610D01*
X15926Y-00591D01*
X15907Y-00553D01*
X15907Y-00497D01*
X15926Y-00460D01*
X15945Y-00441D01*
X15982Y-00422D01*
X16132Y-00422D01*
X15738Y-00235D02*
X15738Y-00497D01*
X15738Y-00629D02*
X15757Y-00610D01*
X15738Y-00591D01*
X15719Y-00610D01*
X15738Y-00629D01*
X15738Y-00591D01*
X15400Y-00253D02*
X15438Y-00235D01*
X15513Y-00235D01*
X15550Y-00253D01*
X15569Y-00291D01*
X15569Y-00441D01*
X15550Y-00478D01*
X15513Y-00497D01*
X15438Y-00497D01*
X15400Y-00478D01*
X15381Y-00441D01*
X15381Y-00403D01*
X15569Y-00366D01*
X15043Y-00497D02*
X15043Y-00178D01*
X15062Y-00141D01*
X15081Y-00122D01*
X15118Y-00103D01*
X15175Y-00103D01*
X15212Y-00122D01*
X15043Y-00253D02*
X15081Y-00235D01*
X15156Y-00235D01*
X15193Y-00253D01*
X15212Y-00272D01*
X15231Y-00310D01*
X15231Y-00422D01*
X15212Y-00460D01*
X15193Y-00478D01*
X15156Y-00497D01*
X15081Y-00497D01*
X15043Y-00478D01*
X14706Y-00253D02*
X14744Y-00235D01*
X14819Y-00235D01*
X14856Y-00253D01*
X14875Y-00291D01*
X14875Y-00441D01*
X14856Y-00478D01*
X14819Y-00497D01*
X14744Y-00497D01*
X14706Y-00478D01*
X14687Y-00441D01*
X14687Y-00403D01*
X14875Y-00366D01*
X14518Y-00235D02*
X14518Y-00497D01*
X14518Y-00422D02*
X14499Y-00460D01*
X14481Y-00478D01*
X14443Y-00497D01*
X14406Y-00497D01*
G54D12*
X00000Y-19685D02*
X00000Y00000D01*
X19685Y-19685D02*
X00000Y-19685D01*
X19685Y00000D02*
X19685Y-19685D01*
X00000Y00000D02*
X19685Y00000D01*
G54D13*
X06536Y-16890D03*
G54D14*
X05748Y-16890D03*
G54D15*
X01674Y-14272D03*
X01674Y-12540D03*
G54D16*
X18689Y-17189D03*
G54D17*
X18689Y-16189D03*
X18689Y-15189D03*
X18689Y-14189D03*
G54D16*
X13689Y-01189D03*
G54D17*
X12689Y-01189D03*
X11689Y-01189D03*
X10689Y-01189D03*
G54D16*
X17689Y-01189D03*
G54D17*
X16689Y-01189D03*
X15689Y-01189D03*
X14689Y-01189D03*
G54D16*
X18689Y-13189D03*
G54D17*
X18689Y-12189D03*
X18689Y-11189D03*
X18689Y-10189D03*
G54D16*
X18689Y-05189D03*
G54D17*
X18689Y-04189D03*
X18689Y-03189D03*
X18689Y-02189D03*
G54D16*
X18689Y-09189D03*
G54D17*
X18689Y-08189D03*
X18689Y-07189D03*
X18689Y-06189D03*
G54D16*
X06689Y-19189D03*
G54D17*
X07689Y-19189D03*
X08689Y-19189D03*
X09689Y-19189D03*
G54D16*
X10689Y-19189D03*
G54D17*
X11689Y-19189D03*
X12689Y-19189D03*
X13689Y-19189D03*
G54D16*
X14689Y-19189D03*
G54D17*
X15689Y-19189D03*
X16689Y-19189D03*
X17689Y-19189D03*
G54D16*
X09689Y-01189D03*
G54D17*
X08689Y-01189D03*
X07689Y-01189D03*
X06689Y-01189D03*
G54D16*
X03689Y-01189D03*
G54D17*
X02689Y-01189D03*
X01689Y-01189D03*
X00689Y-01189D03*
X02689Y-19189D03*
X03689Y-19189D03*
X04689Y-19189D03*
X05689Y-19189D03*
G54D18*
X04689Y-09889D03*
X04689Y-07889D03*
G54D19*
X03780Y-14567D03*
G54D20*
X04686Y-12165D03*
X03780Y-12165D03*
X02874Y-12165D03*
G54D21*
X11378Y-07387D03*
X11378Y-06787D03*
G54D22*
X11669Y-08071D03*
X12269Y-08071D03*
G54D21*
X10118Y-06787D03*
X10118Y-07387D03*
G54D22*
X11590Y-09646D03*
X12190Y-09646D03*
G54D21*
X09213Y-05418D03*
X09213Y-04818D03*
G54D16*
X00639Y-16689D03*
G54D17*
X00639Y-17689D03*
G54D16*
X00689Y-09689D03*
G54D17*
X00689Y-08689D03*
G54D23*
X03543Y-16142D03*
G54D16*
X05689Y-01189D03*
G54D17*
X04689Y-01189D03*
G54D22*
X08095Y-08346D03*
X07495Y-08346D03*
X08095Y-11417D03*
X07495Y-11417D03*
X08095Y-09252D03*
X07495Y-09252D03*
X08095Y-10669D03*
X07495Y-10669D03*
G54D10*
G36*
X16369Y-13386D02*
X15945Y-13810D01*
X15521Y-13386D01*
X15945Y-12962D01*
X16369Y-13386D01*
X16369Y-13386D01*
G37*
G54D17*
X15237Y-12678D03*
G54D21*
X13439Y-15489D03*
X13439Y-14889D03*
X12689Y-15489D03*
X12689Y-14889D03*
G54D22*
X14489Y-11689D03*
X15089Y-11689D03*
G54D21*
X12756Y-13007D03*
X12756Y-13607D03*
G54D22*
X03189Y-07889D03*
X02589Y-07889D03*
X03189Y-09889D03*
X02589Y-09889D03*
G54D24*
X07579Y-15354D03*
X05807Y-15354D03*
G54D25*
X00649Y-06792D03*
X00649Y-05020D03*
X03209Y-05020D03*
X03209Y-06792D03*
X11438Y-15571D03*
X11438Y-17343D03*
X08878Y-17343D03*
X08878Y-15571D03*
G54D16*
X06693Y-13177D03*
G54D17*
X06693Y-12177D03*
G54D16*
X05709Y-13177D03*
G54D17*
X05709Y-12177D03*
G54D26*
X18898Y-18504D03*
X12598Y-03543D03*
G54D27*
X16142Y-16535D03*
X01969Y-03150D03*
G54D22*
X11669Y-08701D03*
X12269Y-08701D03*
G54D21*
X10748Y-06787D03*
X10748Y-07387D03*
G54D22*
X08095Y-12047D03*
X07495Y-12047D03*
X08095Y-09882D03*
X07495Y-09882D03*
G54D28*
X09409Y-06830D03*
X09409Y-07580D03*
G54D21*
X08150Y-13686D03*
X08150Y-13086D03*
X08898Y-13686D03*
X08898Y-13086D03*
G54D29*
X09701Y-13750D03*
X09701Y-14006D03*
X09701Y-14262D03*
X09701Y-14518D03*
X11401Y-14518D03*
X11401Y-14262D03*
X11401Y-14006D03*
X11401Y-13750D03*
G54D21*
X11890Y-12456D03*
X11890Y-13056D03*
G54D25*
X14271Y-06595D03*
X14271Y-04823D03*
X16831Y-04823D03*
X16831Y-06595D03*
X14271Y-09547D03*
X14271Y-07775D03*
X16831Y-07775D03*
X16831Y-09547D03*
G54D30*
X11181Y-08543D03*
X09409Y-09528D03*
X01535Y-08543D03*
X08583Y-09803D03*
X09409Y-08189D03*
X11969Y-16693D03*
X08976Y-11535D03*
X10197Y-11417D03*
X10866Y-14252D03*
X08543Y-10669D03*
X06260Y-07756D03*
X10630Y-08268D03*
X11102Y-09724D03*
X07835Y-07598D03*
X09882Y-08268D03*
X05984Y-06378D03*
X09055Y-09134D03*
X07008Y-06811D03*
X06693Y-10158D03*
X06496Y-09724D03*
X12874Y-07205D03*
X08504Y-14567D03*
X05827Y-09291D03*
X08583Y-05512D03*
X06535Y-15354D03*
X04921Y-14291D03*
X13071Y-16260D03*
X13989Y-11689D03*
X13189Y-18150D03*
X12789Y-12489D03*
X09331Y-04370D03*
X06575Y-07244D03*
X09055Y-09961D03*
X05709Y-04724D03*
G54D31*
X11181Y-08543D02*
X11280Y-08642D01*
X11401Y-13750D02*
X11401Y-13158D01*
G54D32*
X10924Y-10688D02*
X10255Y-10688D01*
X11393Y-11157D02*
X10924Y-10688D01*
G54D31*
X05197Y-11575D02*
X04882Y-11260D01*
G54D32*
X11669Y-08071D02*
X11669Y-08292D01*
G54D31*
X05197Y-12086D02*
X05197Y-11575D01*
X05197Y-12362D02*
X05197Y-12086D01*
G54D33*
X09823Y-10688D02*
X10433Y-10078D01*
G54D32*
X10255Y-10688D02*
X09823Y-10688D01*
G54D33*
X06161Y-17697D02*
X06536Y-17322D01*
G54D32*
X11393Y-12456D02*
X11393Y-11826D01*
G54D33*
X09409Y-08189D02*
X09409Y-08740D01*
X07835Y-12676D02*
X07834Y-12677D01*
G54D31*
X11378Y-08583D02*
X11378Y-08582D01*
G54D32*
X11393Y-13150D02*
X11393Y-12953D01*
G54D33*
X05689Y-18169D02*
X06161Y-17697D01*
X05689Y-19189D02*
X05689Y-18268D01*
X08976Y-11535D02*
X09409Y-11102D01*
X09409Y-11102D02*
X09823Y-10688D01*
X06161Y-17697D02*
X06169Y-17689D01*
G54D31*
X11280Y-08642D02*
X11280Y-08681D01*
G54D32*
X08095Y-12047D02*
X08464Y-12047D01*
X11969Y-16693D02*
X06733Y-16693D01*
G54D33*
X07972Y-12539D02*
X08464Y-12047D01*
X05689Y-18268D02*
X05689Y-18169D01*
G54D32*
X08150Y-13086D02*
X08898Y-13086D01*
G54D33*
X01639Y-19289D02*
X01656Y-19289D01*
X09409Y-08740D02*
X10197Y-09528D01*
X06536Y-16890D02*
X06536Y-17322D01*
G54D32*
X11669Y-08292D02*
X11378Y-08583D01*
G54D33*
X11378Y-08583D02*
X11280Y-08681D01*
X00639Y-17689D02*
X00639Y-18889D01*
X02677Y-18268D02*
X05689Y-18268D01*
G54D34*
X08095Y-11417D02*
X08858Y-11417D01*
G54D33*
X11280Y-08681D02*
X10433Y-09528D01*
G54D31*
X07520Y-12677D02*
X06536Y-12677D01*
G54D32*
X11393Y-12953D02*
X11393Y-12456D01*
G54D31*
X03307Y-10669D02*
X03150Y-10512D01*
G54D34*
X11669Y-08701D02*
X11669Y-08071D01*
G54D33*
X07835Y-12676D02*
X07972Y-12539D01*
G54D31*
X11890Y-12456D02*
X11393Y-12456D01*
X07520Y-12677D02*
X07834Y-12677D01*
G54D34*
X08858Y-11417D02*
X08976Y-11535D01*
G54D33*
X01656Y-19289D02*
X02677Y-18268D01*
G54D31*
X09409Y-08189D02*
X09409Y-07580D01*
G54D33*
X07520Y-15295D02*
X07520Y-13622D01*
X06536Y-16890D02*
X07579Y-15847D01*
G54D31*
X04409Y-11260D02*
X03898Y-11260D01*
G54D33*
X08464Y-12047D02*
X08976Y-11535D01*
G54D31*
X01929Y-10512D02*
X01535Y-10118D01*
X04882Y-11260D02*
X04409Y-11260D01*
G54D33*
X10433Y-10078D02*
X10433Y-09528D01*
G54D32*
X11393Y-11826D02*
X11393Y-11157D01*
X08150Y-12717D02*
X07972Y-12539D01*
G54D33*
X07835Y-12676D02*
X07520Y-12991D01*
G54D32*
X06733Y-16693D02*
X06536Y-16890D01*
G54D31*
X08583Y-09528D02*
X08583Y-09803D01*
X08307Y-09252D02*
X08583Y-09528D01*
X08095Y-09882D02*
X08504Y-09882D01*
G54D33*
X10433Y-09528D02*
X10197Y-09528D01*
X07520Y-15295D02*
X07579Y-15354D01*
X00639Y-18889D02*
X01039Y-19289D01*
G54D32*
X09449Y-08149D02*
X09409Y-08189D01*
G54D31*
X08504Y-09882D02*
X08583Y-09803D01*
X06536Y-12677D02*
X05512Y-12677D01*
G54D32*
X08150Y-13086D02*
X08150Y-12717D01*
G54D33*
X08976Y-11535D02*
X08741Y-11535D01*
X07579Y-15847D02*
X07579Y-15354D01*
G54D31*
X11401Y-13158D02*
X11393Y-13150D01*
X05512Y-12677D02*
X05197Y-12362D01*
G54D33*
X07520Y-12991D02*
X07520Y-13622D01*
G54D31*
X03150Y-10512D02*
X01929Y-10512D01*
X01535Y-10118D02*
X01535Y-08543D01*
G54D33*
X01039Y-19289D02*
X01639Y-19289D01*
G54D31*
X03898Y-11260D02*
X03307Y-10669D01*
G54D33*
X10197Y-09528D02*
X09409Y-09528D01*
G54D31*
X08095Y-09252D02*
X08307Y-09252D01*
X10197Y-11417D02*
X09331Y-12283D01*
X09331Y-12283D02*
X09331Y-13750D01*
G54D32*
X09331Y-13750D02*
X09701Y-13750D01*
X08962Y-13750D02*
X09331Y-13750D01*
X08898Y-13686D02*
X08962Y-13750D01*
G54D31*
X09701Y-14006D02*
X10227Y-14006D01*
X10473Y-14252D02*
X10866Y-14252D01*
X10227Y-14006D02*
X10473Y-14252D01*
G54D32*
X08470Y-14006D02*
X09701Y-14006D01*
X08150Y-13686D02*
X08470Y-14006D01*
G54D31*
X08095Y-07858D02*
X08095Y-08346D01*
X07689Y-04437D02*
X06260Y-05866D01*
X07677Y-07756D02*
X07835Y-07598D01*
X07835Y-07598D02*
X08095Y-07858D01*
G54D32*
X11378Y-07598D02*
X11378Y-07387D01*
G54D34*
X10118Y-07387D02*
X10748Y-07387D01*
G54D31*
X07401Y-07756D02*
X07677Y-07756D01*
X05984Y-06142D02*
X05984Y-06378D01*
G54D32*
X08095Y-10669D02*
X08543Y-10669D01*
G54D31*
X07401Y-07756D02*
X06260Y-07756D01*
X07689Y-01189D02*
X07689Y-04437D01*
G54D32*
X10118Y-07387D02*
X10118Y-08032D01*
X11180Y-09646D02*
X11102Y-09724D01*
X10787Y-08111D02*
X10865Y-08111D01*
G54D31*
X06260Y-05866D02*
X05984Y-06142D01*
G54D32*
X11590Y-09646D02*
X11180Y-09646D01*
X10118Y-08032D02*
X09882Y-08268D01*
X10787Y-08111D02*
X10630Y-08268D01*
X10865Y-08111D02*
X11378Y-07598D01*
G54D31*
X16831Y-04823D02*
X16831Y-05610D01*
X17410Y-06189D02*
X18689Y-06189D01*
X16831Y-05610D02*
X17410Y-06189D01*
X08976Y-08267D02*
X09055Y-08346D01*
X08543Y-06811D02*
X08976Y-07244D01*
X09055Y-09134D02*
X09055Y-08346D01*
X07008Y-06811D02*
X08543Y-06811D01*
X08976Y-07244D02*
X08976Y-08267D01*
X03780Y-15905D02*
X03543Y-16142D01*
X03543Y-16575D02*
X02559Y-17559D01*
X03780Y-14567D02*
X03780Y-15905D01*
X03543Y-16142D02*
X03543Y-16575D01*
X06693Y-12177D02*
X06693Y-10158D01*
X05827Y-12059D02*
X05827Y-10393D01*
X05709Y-12177D02*
X05827Y-12059D01*
X05827Y-10393D02*
X06496Y-09724D01*
X03189Y-07889D02*
X04689Y-07889D01*
X03189Y-09889D02*
X04689Y-09889D01*
G54D33*
X14370Y-06891D02*
X14271Y-06792D01*
X14961Y-08857D02*
X14961Y-07482D01*
G54D31*
X12874Y-07205D02*
X12854Y-07185D01*
G54D34*
X12269Y-09567D02*
X12269Y-08701D01*
X12190Y-09646D02*
X12269Y-09567D01*
G54D33*
X13247Y-06792D02*
X14271Y-06792D01*
G54D31*
X12008Y-13819D02*
X12008Y-14095D01*
G54D33*
X14271Y-09547D02*
X14961Y-08857D01*
X15689Y-10886D02*
X14291Y-09488D01*
X14291Y-06772D02*
X14271Y-06792D01*
G54D31*
X09409Y-06830D02*
X09452Y-06787D01*
G54D33*
X12269Y-08071D02*
X12269Y-07770D01*
X12854Y-07185D02*
X13247Y-06792D01*
X12269Y-07770D02*
X12854Y-07185D01*
G54D31*
X16142Y-14336D02*
X16383Y-14095D01*
G54D33*
X14291Y-06181D02*
X14291Y-06772D01*
G54D34*
X07495Y-10669D02*
X07495Y-09252D01*
G54D33*
X13779Y-14095D02*
X15788Y-14095D01*
G54D31*
X11438Y-15571D02*
X11438Y-14310D01*
X11890Y-13568D02*
X12008Y-13686D01*
G54D32*
X12689Y-14280D02*
X12874Y-14095D01*
G54D33*
X14961Y-07482D02*
X14370Y-06891D01*
G54D31*
X12008Y-13686D02*
X12008Y-13819D01*
G54D33*
X11142Y-14567D02*
X11063Y-14646D01*
G54D31*
X11132Y-14006D02*
X10984Y-13858D01*
G54D34*
X05827Y-09291D02*
X05827Y-08819D01*
G54D31*
X10118Y-06787D02*
X10748Y-06787D01*
X11401Y-14518D02*
X11401Y-14262D01*
G54D33*
X03756Y-07189D02*
X05960Y-07189D01*
G54D31*
X11401Y-14006D02*
X11132Y-14006D01*
X16142Y-16535D02*
X16142Y-14336D01*
G54D33*
X03622Y-07323D02*
X03756Y-07189D01*
X07677Y-05512D02*
X08583Y-05512D01*
X09449Y-14646D02*
X09370Y-14567D01*
G54D31*
X10039Y-12559D02*
X10039Y-12402D01*
G54D33*
X09701Y-14646D02*
X10472Y-14646D01*
G54D34*
X15689Y-11789D02*
X15689Y-11689D01*
G54D32*
X09701Y-14518D02*
X09701Y-14567D01*
G54D33*
X11614Y-14095D02*
X11142Y-14567D01*
G54D32*
X12689Y-14889D02*
X12689Y-14280D01*
G54D33*
X09370Y-14567D02*
X08504Y-14567D01*
X09449Y-14646D02*
X09701Y-14646D01*
G54D31*
X11993Y-14095D02*
X12008Y-14095D01*
X11401Y-14006D02*
X11525Y-14006D01*
G54D32*
X13439Y-14889D02*
X13439Y-14095D01*
G54D34*
X07067Y-06082D02*
X07086Y-06063D01*
G54D33*
X05960Y-07189D02*
X07067Y-06082D01*
G54D31*
X10984Y-13858D02*
X10906Y-13780D01*
G54D33*
X05748Y-16890D02*
X05748Y-15413D01*
X12689Y-14095D02*
X12874Y-14095D01*
X11063Y-14646D02*
X10472Y-14646D01*
X10276Y-05512D02*
X08583Y-05512D01*
G54D34*
X12269Y-08701D02*
X12269Y-08071D01*
G54D33*
X14291Y-06181D02*
X13622Y-05512D01*
G54D34*
X07495Y-08346D02*
X07495Y-09252D01*
X02589Y-07889D02*
X02589Y-09889D01*
G54D33*
X15788Y-14095D02*
X15985Y-14095D01*
X16889Y-12989D02*
X15989Y-12089D01*
G54D34*
X07637Y-05512D02*
X07677Y-05512D01*
G54D33*
X10276Y-05512D02*
X13622Y-05512D01*
G54D31*
X10039Y-11024D02*
X09488Y-11575D01*
G54D33*
X15689Y-11689D02*
X15689Y-10886D01*
G54D34*
X05827Y-08819D02*
X05827Y-08346D01*
G54D31*
X11890Y-13056D02*
X11890Y-13568D01*
G54D33*
X15985Y-14095D02*
X16383Y-14095D01*
G54D31*
X10906Y-13780D02*
X10551Y-13780D01*
G54D34*
X07495Y-11417D02*
X07495Y-10669D01*
G54D31*
X10551Y-13780D02*
X10039Y-13268D01*
G54D33*
X02598Y-07880D02*
X02598Y-07480D01*
G54D32*
X09701Y-14567D02*
X09701Y-14518D01*
X10118Y-05670D02*
X10276Y-05512D01*
G54D31*
X09213Y-05418D02*
X09213Y-05512D01*
X11438Y-14310D02*
X11653Y-14095D01*
G54D34*
X12689Y-13589D02*
X12689Y-14095D01*
G54D33*
X16889Y-13589D02*
X16889Y-12989D01*
G54D31*
X10866Y-11575D02*
X10866Y-11220D01*
G54D33*
X05748Y-15413D02*
X05807Y-15354D01*
G54D31*
X09119Y-05512D02*
X08583Y-05512D01*
X14370Y-06694D02*
X14370Y-06891D01*
X14271Y-06595D02*
X14370Y-06694D01*
G54D33*
X12008Y-14095D02*
X12087Y-14095D01*
G54D31*
X10039Y-13268D02*
X10039Y-12756D01*
G54D33*
X11653Y-14095D02*
X12008Y-14095D01*
G54D31*
X10866Y-11220D02*
X10670Y-11024D01*
X09213Y-05418D02*
X09119Y-05512D01*
G54D33*
X02598Y-07480D02*
X02755Y-07323D01*
X00689Y-08689D02*
X01465Y-07913D01*
X01465Y-07913D02*
X02589Y-07913D01*
G54D31*
X10670Y-11024D02*
X10118Y-11024D01*
X10039Y-12402D02*
X10866Y-11575D01*
X10039Y-12756D02*
X10039Y-12559D01*
G54D34*
X02589Y-07889D02*
X02589Y-07913D01*
G54D33*
X16383Y-14095D02*
X16889Y-13589D01*
G54D31*
X05866Y-09252D02*
X05827Y-09291D01*
G54D33*
X11653Y-14095D02*
X11614Y-14095D01*
X02589Y-07889D02*
X02598Y-07880D01*
G54D32*
X07495Y-12047D02*
X07495Y-11417D01*
G54D31*
X10118Y-11024D02*
X10039Y-11024D01*
G54D33*
X05807Y-15354D02*
X06535Y-15354D01*
X13439Y-14095D02*
X13779Y-14095D01*
G54D31*
X07495Y-09252D02*
X05866Y-09252D01*
G54D33*
X12874Y-14095D02*
X13439Y-14095D01*
G54D31*
X11525Y-14006D02*
X11614Y-14095D01*
G54D34*
X05827Y-07322D02*
X05960Y-07189D01*
G54D33*
X02755Y-07323D02*
X03622Y-07323D01*
G54D34*
X05827Y-08346D02*
X05827Y-07322D01*
X15689Y-11689D02*
X15089Y-11689D01*
G54D31*
X11401Y-14262D02*
X11401Y-14006D01*
G54D33*
X12087Y-14095D02*
X12689Y-14095D01*
G54D31*
X09701Y-14518D02*
X09701Y-14646D01*
X09213Y-05418D02*
X09213Y-05512D01*
G54D32*
X10118Y-06787D02*
X10118Y-05670D01*
G54D31*
X09452Y-06787D02*
X10118Y-06787D01*
G54D33*
X15989Y-12089D02*
X15689Y-11789D01*
G54D31*
X09213Y-05512D02*
X09213Y-05418D01*
X10748Y-06787D02*
X11378Y-06787D01*
G54D33*
X07067Y-06082D02*
X07637Y-05512D01*
X01989Y-13439D02*
X01039Y-13439D01*
X00639Y-13839D02*
X00639Y-16689D01*
X00639Y-13839D02*
X01039Y-13439D01*
X02874Y-12554D02*
X01989Y-13439D01*
X02874Y-12165D02*
X02874Y-12554D01*
G54D34*
X04921Y-12400D02*
X04686Y-12165D01*
X04921Y-14291D02*
X04921Y-12400D01*
G54D32*
X13071Y-16260D02*
X12977Y-16166D01*
X12689Y-15878D02*
X13071Y-16260D01*
X12689Y-15489D02*
X12689Y-15878D01*
X14489Y-11689D02*
X13989Y-11689D01*
X13583Y-17878D02*
X13583Y-15985D01*
X13189Y-18150D02*
X13583Y-17878D01*
X13439Y-15489D02*
X13425Y-15503D01*
X13425Y-15827D02*
X13425Y-15503D01*
X13583Y-15985D02*
X13425Y-15827D01*
G54D31*
X12756Y-12522D02*
X12756Y-13007D01*
X12789Y-12489D02*
X12756Y-12522D01*
X09213Y-04488D02*
X09331Y-04370D01*
X09213Y-04818D02*
X09213Y-04488D01*
G54D33*
X03780Y-12165D02*
X03780Y-11654D01*
X03780Y-11654D02*
X03032Y-10906D01*
X00689Y-10492D02*
X00689Y-09689D01*
X01103Y-10906D02*
X00689Y-10492D01*
X03032Y-10906D02*
X01103Y-10906D01*
G54D31*
X03505Y-04724D02*
X05709Y-04724D01*
X08661Y-09291D02*
X09055Y-09685D01*
X05689Y-04744D02*
X05709Y-04724D01*
X08661Y-07716D02*
X08189Y-07244D01*
X08661Y-08464D02*
X08661Y-08465D01*
X03209Y-05020D02*
X03505Y-04724D01*
X08661Y-08465D02*
X08661Y-09291D01*
X08189Y-07244D02*
X07441Y-07244D01*
X08661Y-07716D02*
X08661Y-08465D01*
X09055Y-09961D02*
X09055Y-09685D01*
X07441Y-07244D02*
X06575Y-07244D01*
X10296Y-17343D02*
X11689Y-18736D01*
X11689Y-18736D02*
X11689Y-19189D01*
X08878Y-17343D02*
X10296Y-17343D01*
G54D10*
G36*
X07152Y-14561D02*
X07138Y-14561D01*
X07049Y-14598D01*
X06981Y-14666D01*
X06944Y-14755D01*
X06944Y-14851D01*
X06944Y-15953D01*
X06946Y-15959D01*
X06483Y-16423D01*
X06450Y-16423D01*
X06450Y-15466D01*
X06450Y-15242D01*
X06449Y-14852D01*
X06449Y-14753D01*
X06411Y-14662D01*
X06341Y-14592D01*
X06249Y-14554D01*
X05919Y-14553D01*
X05857Y-14615D01*
X05857Y-15304D01*
X06388Y-15304D01*
X06450Y-15242D01*
X06450Y-15466D01*
X06388Y-15404D01*
X05857Y-15404D01*
X05857Y-16093D01*
X05919Y-16155D01*
X06249Y-16154D01*
X06341Y-16116D01*
X06411Y-16046D01*
X06449Y-15955D01*
X06449Y-15856D01*
X06450Y-15466D01*
X06450Y-16423D01*
X06263Y-16423D01*
X06174Y-16460D01*
X06106Y-16528D01*
X06069Y-16617D01*
X06069Y-16640D01*
X06002Y-16707D01*
X06002Y-16565D01*
X05985Y-16479D01*
X05810Y-16420D01*
X05757Y-16423D01*
X05757Y-16093D01*
X05757Y-15404D01*
X05757Y-15304D01*
X05757Y-14615D01*
X05695Y-14553D01*
X05365Y-14554D01*
X05273Y-14592D01*
X05203Y-14662D01*
X05165Y-14753D01*
X05165Y-14852D01*
X05164Y-15242D01*
X05226Y-15304D01*
X05757Y-15304D01*
X05757Y-15404D01*
X05226Y-15404D01*
X05164Y-15466D01*
X05165Y-15856D01*
X05165Y-15955D01*
X05203Y-16046D01*
X05273Y-16116D01*
X05365Y-16154D01*
X05695Y-16155D01*
X05757Y-16093D01*
X05757Y-16423D01*
X05625Y-16432D01*
X05511Y-16479D01*
X05494Y-16565D01*
X05748Y-16819D01*
X06002Y-16565D01*
X06002Y-16707D01*
X05819Y-16890D01*
X06069Y-17140D01*
X06069Y-17163D01*
X06100Y-17237D01*
X06002Y-17335D01*
X06002Y-17215D01*
X05748Y-16961D01*
X05677Y-17032D01*
X05677Y-16890D01*
X05423Y-16636D01*
X05337Y-16653D01*
X05278Y-16828D01*
X05290Y-17013D01*
X05337Y-17127D01*
X05423Y-17144D01*
X05677Y-16890D01*
X05677Y-17032D01*
X05494Y-17215D01*
X05511Y-17301D01*
X05686Y-17360D01*
X05871Y-17348D01*
X05985Y-17301D01*
X06002Y-17215D01*
X06002Y-17335D01*
X05909Y-17429D01*
X05903Y-17435D01*
X05900Y-17437D01*
X05437Y-17900D01*
X04578Y-17900D01*
X04578Y-15125D01*
X04625Y-15078D01*
X04662Y-14989D01*
X04662Y-14893D01*
X04662Y-14623D01*
X04684Y-14645D01*
X04838Y-14709D01*
X05004Y-14709D01*
X05158Y-14645D01*
X05275Y-14528D01*
X05339Y-14374D01*
X05339Y-14208D01*
X05275Y-14054D01*
X05244Y-14023D01*
X05244Y-13654D01*
X05272Y-13682D01*
X05361Y-13719D01*
X05457Y-13719D01*
X06057Y-13719D01*
X06146Y-13682D01*
X06201Y-13627D01*
X06256Y-13682D01*
X06345Y-13719D01*
X06441Y-13719D01*
X07041Y-13719D01*
X07130Y-13682D01*
X07152Y-13660D01*
X07152Y-14561D01*
X07152Y-14561D01*
G37*
G54D31*
X07152Y-14561D02*
X07138Y-14561D01*
X07049Y-14598D01*
X06981Y-14666D01*
X06944Y-14755D01*
X06944Y-14851D01*
X06944Y-15953D01*
X06946Y-15959D01*
X06483Y-16423D01*
X06450Y-16423D01*
X06450Y-15466D01*
X06450Y-15242D01*
X06449Y-14852D01*
X06449Y-14753D01*
X06411Y-14662D01*
X06341Y-14592D01*
X06249Y-14554D01*
X05919Y-14553D01*
X05857Y-14615D01*
X05857Y-15304D01*
X06388Y-15304D01*
X06450Y-15242D01*
X06450Y-15466D01*
X06388Y-15404D01*
X05857Y-15404D01*
X05857Y-16093D01*
X05919Y-16155D01*
X06249Y-16154D01*
X06341Y-16116D01*
X06411Y-16046D01*
X06449Y-15955D01*
X06449Y-15856D01*
X06450Y-15466D01*
X06450Y-16423D01*
X06263Y-16423D01*
X06174Y-16460D01*
X06106Y-16528D01*
X06069Y-16617D01*
X06069Y-16640D01*
X06002Y-16707D01*
X06002Y-16565D01*
X05985Y-16479D01*
X05810Y-16420D01*
X05757Y-16423D01*
X05757Y-16093D01*
X05757Y-15404D01*
X05757Y-15304D01*
X05757Y-14615D01*
X05695Y-14553D01*
X05365Y-14554D01*
X05273Y-14592D01*
X05203Y-14662D01*
X05165Y-14753D01*
X05165Y-14852D01*
X05164Y-15242D01*
X05226Y-15304D01*
X05757Y-15304D01*
X05757Y-15404D01*
X05226Y-15404D01*
X05164Y-15466D01*
X05165Y-15856D01*
X05165Y-15955D01*
X05203Y-16046D01*
X05273Y-16116D01*
X05365Y-16154D01*
X05695Y-16155D01*
X05757Y-16093D01*
X05757Y-16423D01*
X05625Y-16432D01*
X05511Y-16479D01*
X05494Y-16565D01*
X05748Y-16819D01*
X06002Y-16565D01*
X06002Y-16707D01*
X05819Y-16890D01*
X06069Y-17140D01*
X06069Y-17163D01*
X06100Y-17237D01*
X06002Y-17335D01*
X06002Y-17215D01*
X05748Y-16961D01*
X05677Y-17032D01*
X05677Y-16890D01*
X05423Y-16636D01*
X05337Y-16653D01*
X05278Y-16828D01*
X05290Y-17013D01*
X05337Y-17127D01*
X05423Y-17144D01*
X05677Y-16890D01*
X05677Y-17032D01*
X05494Y-17215D01*
X05511Y-17301D01*
X05686Y-17360D01*
X05871Y-17348D01*
X05985Y-17301D01*
X06002Y-17215D01*
X06002Y-17335D01*
X05909Y-17429D01*
X05903Y-17435D01*
X05900Y-17437D01*
X05437Y-17900D01*
X04578Y-17900D01*
X04578Y-15125D01*
X04625Y-15078D01*
X04662Y-14989D01*
X04662Y-14893D01*
X04662Y-14623D01*
X04684Y-14645D01*
X04838Y-14709D01*
X05004Y-14709D01*
X05158Y-14645D01*
X05275Y-14528D01*
X05339Y-14374D01*
X05339Y-14208D01*
X05275Y-14054D01*
X05244Y-14023D01*
X05244Y-13654D01*
X05272Y-13682D01*
X05361Y-13719D01*
X05457Y-13719D01*
X06057Y-13719D01*
X06146Y-13682D01*
X06201Y-13627D01*
X06256Y-13682D01*
X06345Y-13719D01*
X06441Y-13719D01*
X07041Y-13719D01*
X07130Y-13682D01*
X07152Y-13660D01*
X07152Y-14561D01*
G54D10*
G36*
X09837Y-11194D02*
X09779Y-11334D01*
X09779Y-11420D01*
X09124Y-12076D01*
X09060Y-12171D01*
X09038Y-12283D01*
X09038Y-12719D01*
X08625Y-12719D01*
X08536Y-12756D01*
X08524Y-12768D01*
X08512Y-12756D01*
X08453Y-12731D01*
X08453Y-12717D01*
X08452Y-12716D01*
X08430Y-12601D01*
X08724Y-12308D01*
X08724Y-12307D01*
X08726Y-12305D01*
X09091Y-11939D01*
X09213Y-11889D01*
X09330Y-11772D01*
X09380Y-11650D01*
X09669Y-11362D01*
X09837Y-11194D01*
X09837Y-11194D01*
G37*
G54D31*
X09837Y-11194D02*
X09779Y-11334D01*
X09779Y-11420D01*
X09124Y-12076D01*
X09060Y-12171D01*
X09038Y-12283D01*
X09038Y-12719D01*
X08625Y-12719D01*
X08536Y-12756D01*
X08524Y-12768D01*
X08512Y-12756D01*
X08453Y-12731D01*
X08453Y-12717D01*
X08452Y-12716D01*
X08430Y-12601D01*
X08724Y-12308D01*
X08724Y-12307D01*
X08726Y-12305D01*
X09091Y-11939D01*
X09213Y-11889D01*
X09330Y-11772D01*
X09380Y-11650D01*
X09669Y-11362D01*
X09837Y-11194D01*
G54D10*
G36*
X11108Y-13433D02*
X11103Y-13433D01*
X11014Y-13470D01*
X10946Y-13538D01*
X10909Y-13627D01*
X10909Y-13723D01*
X10909Y-13834D01*
X10783Y-13834D01*
X10629Y-13898D01*
X10581Y-13945D01*
X10434Y-13799D01*
X10339Y-13735D01*
X10227Y-13713D01*
X10193Y-13713D01*
X10193Y-13627D01*
X10156Y-13538D01*
X10088Y-13470D01*
X09999Y-13433D01*
X09903Y-13433D01*
X09624Y-13433D01*
X09624Y-12404D01*
X10193Y-11835D01*
X10280Y-11835D01*
X10434Y-11771D01*
X10551Y-11654D01*
X10615Y-11500D01*
X10615Y-11334D01*
X10551Y-11180D01*
X10434Y-11063D01*
X10280Y-10999D01*
X10114Y-10999D01*
X09974Y-11056D01*
X10040Y-10991D01*
X10255Y-10991D01*
X10799Y-10991D01*
X11090Y-11282D01*
X11090Y-11826D01*
X11090Y-12456D01*
X11090Y-12953D01*
X11090Y-13150D01*
X11108Y-13240D01*
X11108Y-13433D01*
X11108Y-13433D01*
G37*
G54D31*
X11108Y-13433D02*
X11103Y-13433D01*
X11014Y-13470D01*
X10946Y-13538D01*
X10909Y-13627D01*
X10909Y-13723D01*
X10909Y-13834D01*
X10783Y-13834D01*
X10629Y-13898D01*
X10581Y-13945D01*
X10434Y-13799D01*
X10339Y-13735D01*
X10227Y-13713D01*
X10193Y-13713D01*
X10193Y-13627D01*
X10156Y-13538D01*
X10088Y-13470D01*
X09999Y-13433D01*
X09903Y-13433D01*
X09624Y-13433D01*
X09624Y-12404D01*
X10193Y-11835D01*
X10280Y-11835D01*
X10434Y-11771D01*
X10551Y-11654D01*
X10615Y-11500D01*
X10615Y-11334D01*
X10551Y-11180D01*
X10434Y-11063D01*
X10280Y-10999D01*
X10114Y-10999D01*
X09974Y-11056D01*
X10040Y-10991D01*
X10255Y-10991D01*
X10799Y-10991D01*
X11090Y-11282D01*
X11090Y-11826D01*
X11090Y-12456D01*
X11090Y-12953D01*
X11090Y-13150D01*
X11108Y-13240D01*
X11108Y-13433D01*
G54D10*
G36*
X19423Y-19423D02*
X18178Y-19423D01*
X18231Y-19298D01*
X18231Y-19082D01*
X18149Y-18883D01*
X17997Y-18730D01*
X17798Y-18647D01*
X17582Y-18647D01*
X17548Y-18661D01*
X17548Y-16262D01*
X17369Y-15825D01*
X17369Y-09655D01*
X17369Y-09441D01*
X17369Y-07883D01*
X17369Y-07669D01*
X17287Y-07471D01*
X17136Y-07320D01*
X16939Y-07237D01*
X16725Y-07237D01*
X16527Y-07319D01*
X16376Y-07470D01*
X16293Y-07667D01*
X16293Y-07881D01*
X16375Y-08079D01*
X16526Y-08230D01*
X16723Y-08313D01*
X16937Y-08313D01*
X17135Y-08231D01*
X17286Y-08080D01*
X17369Y-07883D01*
X17369Y-09441D01*
X17287Y-09243D01*
X17136Y-09092D01*
X16939Y-09009D01*
X16725Y-09009D01*
X16527Y-09091D01*
X16376Y-09242D01*
X16293Y-09439D01*
X16293Y-09653D01*
X16375Y-09851D01*
X16526Y-10002D01*
X16723Y-10085D01*
X16937Y-10085D01*
X17135Y-10003D01*
X17286Y-09852D01*
X17369Y-09655D01*
X17369Y-15825D01*
X17336Y-15745D01*
X17329Y-15735D01*
X17145Y-15603D01*
X17074Y-15674D01*
X17074Y-15532D01*
X16942Y-15348D01*
X16611Y-15208D01*
X16611Y-13434D01*
X16611Y-13338D01*
X16574Y-13249D01*
X16506Y-13181D01*
X16082Y-12757D01*
X15993Y-12720D01*
X15897Y-12720D01*
X15808Y-12757D01*
X15779Y-12786D01*
X15779Y-12571D01*
X15697Y-12372D01*
X15545Y-12219D01*
X15346Y-12136D01*
X15328Y-12136D01*
X15355Y-12125D01*
X15425Y-12055D01*
X15463Y-11964D01*
X15463Y-11865D01*
X15464Y-11801D01*
X15464Y-11577D01*
X15463Y-11513D01*
X15463Y-11414D01*
X15425Y-11323D01*
X15355Y-11253D01*
X15263Y-11215D01*
X15201Y-11214D01*
X15139Y-11276D01*
X15139Y-11639D01*
X15402Y-11639D01*
X15464Y-11577D01*
X15464Y-11801D01*
X15402Y-11739D01*
X15189Y-11739D01*
X15139Y-11739D01*
X15039Y-11739D01*
X15039Y-11639D01*
X15039Y-11589D01*
X15039Y-11276D01*
X14977Y-11214D01*
X14915Y-11215D01*
X14823Y-11253D01*
X14811Y-11265D01*
X14811Y-09625D01*
X14811Y-06673D01*
X14809Y-06637D01*
X14809Y-04931D01*
X14809Y-04717D01*
X14727Y-04519D01*
X14576Y-04368D01*
X14379Y-04285D01*
X14165Y-04285D01*
X13967Y-04367D01*
X13816Y-04518D01*
X13733Y-04715D01*
X13733Y-04929D01*
X13815Y-05127D01*
X13966Y-05278D01*
X14163Y-05361D01*
X14377Y-05361D01*
X14575Y-05279D01*
X14726Y-05128D01*
X14809Y-04931D01*
X14809Y-06637D01*
X14799Y-06461D01*
X14739Y-06316D01*
X14646Y-06291D01*
X14575Y-06362D01*
X14575Y-06220D01*
X14550Y-06127D01*
X14349Y-06055D01*
X14137Y-06067D01*
X13992Y-06127D01*
X13967Y-06220D01*
X14271Y-06524D01*
X14575Y-06220D01*
X14575Y-06362D01*
X14342Y-06595D01*
X14646Y-06899D01*
X14739Y-06874D01*
X14811Y-06673D01*
X14811Y-09625D01*
X14809Y-09589D01*
X14809Y-07883D01*
X14809Y-07669D01*
X14727Y-07471D01*
X14576Y-07320D01*
X14575Y-07319D01*
X14575Y-06970D01*
X14271Y-06666D01*
X14200Y-06737D01*
X14200Y-06595D01*
X13896Y-06291D01*
X13803Y-06316D01*
X13731Y-06517D01*
X13743Y-06729D01*
X13803Y-06874D01*
X13896Y-06899D01*
X14200Y-06595D01*
X14200Y-06737D01*
X13967Y-06970D01*
X13992Y-07063D01*
X14193Y-07135D01*
X14405Y-07123D01*
X14550Y-07063D01*
X14575Y-06970D01*
X14575Y-07319D01*
X14379Y-07237D01*
X14165Y-07237D01*
X13967Y-07319D01*
X13816Y-07470D01*
X13733Y-07667D01*
X13733Y-07881D01*
X13815Y-08079D01*
X13966Y-08230D01*
X14163Y-08313D01*
X14377Y-08313D01*
X14575Y-08231D01*
X14726Y-08080D01*
X14809Y-07883D01*
X14809Y-09589D01*
X14799Y-09413D01*
X14739Y-09268D01*
X14646Y-09243D01*
X14575Y-09314D01*
X14575Y-09172D01*
X14550Y-09079D01*
X14349Y-09007D01*
X14137Y-09019D01*
X13992Y-09079D01*
X13967Y-09172D01*
X14271Y-09476D01*
X14575Y-09172D01*
X14575Y-09314D01*
X14342Y-09547D01*
X14646Y-09851D01*
X14739Y-09826D01*
X14811Y-09625D01*
X14811Y-11265D01*
X14784Y-11292D01*
X14751Y-11259D01*
X14662Y-11222D01*
X14575Y-11222D01*
X14575Y-09922D01*
X14271Y-09618D01*
X14200Y-09689D01*
X14200Y-09547D01*
X13896Y-09243D01*
X13803Y-09268D01*
X13731Y-09469D01*
X13743Y-09681D01*
X13803Y-09826D01*
X13896Y-09851D01*
X14200Y-09547D01*
X14200Y-09689D01*
X13967Y-09922D01*
X13992Y-10015D01*
X14193Y-10087D01*
X14405Y-10075D01*
X14550Y-10015D01*
X14575Y-09922D01*
X14575Y-11222D01*
X14566Y-11222D01*
X14316Y-11222D01*
X14227Y-11259D01*
X14173Y-11312D01*
X14072Y-11271D01*
X13906Y-11271D01*
X13752Y-11335D01*
X13635Y-11452D01*
X13571Y-11606D01*
X13571Y-11772D01*
X13635Y-11926D01*
X13752Y-12043D01*
X13906Y-12107D01*
X14072Y-12107D01*
X14173Y-12065D01*
X14227Y-12119D01*
X14316Y-12156D01*
X14412Y-12156D01*
X14662Y-12156D01*
X14751Y-12119D01*
X14784Y-12086D01*
X14823Y-12125D01*
X14915Y-12163D01*
X14977Y-12164D01*
X14989Y-12152D01*
X14989Y-12164D01*
X15039Y-12164D01*
X15061Y-12164D01*
X15039Y-12173D01*
X14931Y-12218D01*
X14778Y-12370D01*
X14695Y-12569D01*
X14695Y-12785D01*
X14777Y-12984D01*
X14929Y-13137D01*
X15128Y-13220D01*
X15344Y-13220D01*
X15316Y-13249D01*
X15279Y-13338D01*
X15279Y-13434D01*
X15316Y-13523D01*
X15384Y-13591D01*
X15808Y-14015D01*
X15897Y-14052D01*
X15993Y-14052D01*
X16082Y-14015D01*
X16150Y-13947D01*
X16574Y-13523D01*
X16611Y-13434D01*
X16611Y-15208D01*
X16428Y-15132D01*
X15869Y-15129D01*
X15352Y-15341D01*
X15342Y-15348D01*
X15210Y-15532D01*
X16142Y-16464D01*
X17074Y-15532D01*
X17074Y-15674D01*
X16213Y-16535D01*
X17145Y-17467D01*
X17329Y-17335D01*
X17545Y-16821D01*
X17548Y-16262D01*
X17548Y-18661D01*
X17383Y-18729D01*
X17230Y-18881D01*
X17188Y-18979D01*
X17149Y-18883D01*
X17074Y-18807D01*
X17074Y-17538D01*
X16142Y-16606D01*
X16071Y-16677D01*
X16071Y-16535D01*
X15139Y-15603D01*
X14955Y-15735D01*
X14739Y-16249D01*
X14736Y-16808D01*
X14948Y-17325D01*
X14955Y-17335D01*
X15139Y-17467D01*
X16071Y-16535D01*
X16071Y-16677D01*
X15210Y-17538D01*
X15342Y-17722D01*
X15856Y-17938D01*
X16415Y-17941D01*
X16932Y-17729D01*
X16942Y-17722D01*
X17074Y-17538D01*
X17074Y-18807D01*
X16997Y-18730D01*
X16798Y-18647D01*
X16582Y-18647D01*
X16383Y-18729D01*
X16230Y-18881D01*
X16188Y-18979D01*
X16149Y-18883D01*
X15997Y-18730D01*
X15798Y-18647D01*
X15582Y-18647D01*
X15383Y-18729D01*
X15231Y-18880D01*
X15231Y-18841D01*
X15194Y-18752D01*
X15126Y-18684D01*
X15037Y-18647D01*
X14941Y-18647D01*
X14341Y-18647D01*
X14252Y-18684D01*
X14184Y-18752D01*
X14147Y-18841D01*
X14147Y-18880D01*
X13997Y-18730D01*
X13914Y-18695D01*
X13914Y-15001D01*
X13914Y-14777D01*
X13913Y-14715D01*
X13875Y-14623D01*
X13805Y-14553D01*
X13714Y-14515D01*
X13615Y-14515D01*
X13551Y-14514D01*
X13489Y-14576D01*
X13489Y-14839D01*
X13852Y-14839D01*
X13914Y-14777D01*
X13914Y-15001D01*
X13852Y-14939D01*
X13539Y-14939D01*
X13489Y-14939D01*
X13389Y-14939D01*
X13389Y-14839D01*
X13389Y-14576D01*
X13327Y-14514D01*
X13263Y-14515D01*
X13239Y-14515D01*
X13239Y-03671D01*
X13239Y-03416D01*
X13142Y-03180D01*
X12961Y-03000D01*
X12726Y-02902D01*
X12471Y-02902D01*
X12235Y-02999D01*
X12055Y-03180D01*
X11957Y-03415D01*
X11957Y-03670D01*
X12054Y-03906D01*
X12235Y-04086D01*
X12470Y-04184D01*
X12725Y-04184D01*
X12961Y-04087D01*
X13141Y-03906D01*
X13239Y-03671D01*
X13239Y-14515D01*
X13231Y-14515D01*
X13231Y-13719D01*
X13169Y-13657D01*
X12806Y-13657D01*
X12806Y-13920D01*
X12868Y-13982D01*
X12932Y-13981D01*
X13031Y-13981D01*
X13122Y-13943D01*
X13192Y-13873D01*
X13230Y-13781D01*
X13231Y-13719D01*
X13231Y-14515D01*
X13164Y-14515D01*
X13073Y-14553D01*
X13064Y-14562D01*
X13055Y-14553D01*
X12964Y-14515D01*
X12865Y-14515D01*
X12801Y-14514D01*
X12739Y-14576D01*
X12739Y-14839D01*
X13026Y-14839D01*
X13102Y-14839D01*
X13389Y-14839D01*
X13389Y-14939D01*
X13339Y-14939D01*
X13102Y-14939D01*
X13026Y-14939D01*
X12789Y-14939D01*
X12739Y-14939D01*
X12706Y-14939D01*
X12706Y-13920D01*
X12706Y-13657D01*
X12343Y-13657D01*
X12281Y-13719D01*
X12282Y-13781D01*
X12320Y-13873D01*
X12390Y-13943D01*
X12481Y-13981D01*
X12580Y-13981D01*
X12644Y-13982D01*
X12706Y-13920D01*
X12706Y-14939D01*
X12639Y-14939D01*
X12639Y-14839D01*
X12639Y-14576D01*
X12577Y-14514D01*
X12513Y-14515D01*
X12414Y-14515D01*
X12323Y-14553D01*
X12253Y-14623D01*
X12215Y-14715D01*
X12214Y-14777D01*
X12276Y-14839D01*
X12639Y-14839D01*
X12639Y-14939D01*
X12589Y-14939D01*
X12276Y-14939D01*
X12214Y-15001D01*
X12215Y-15063D01*
X12253Y-15155D01*
X12292Y-15194D01*
X12259Y-15227D01*
X12222Y-15316D01*
X12222Y-15412D01*
X12222Y-15662D01*
X12259Y-15751D01*
X12327Y-15819D01*
X12386Y-15843D01*
X12386Y-15878D01*
X12409Y-15994D01*
X12475Y-16092D01*
X12653Y-16270D01*
X12653Y-16343D01*
X12717Y-16497D01*
X12834Y-16614D01*
X12988Y-16678D01*
X13154Y-16678D01*
X13280Y-16625D01*
X13280Y-17718D01*
X13261Y-17732D01*
X13106Y-17732D01*
X12952Y-17796D01*
X12835Y-17913D01*
X12771Y-18067D01*
X12771Y-18233D01*
X12835Y-18387D01*
X12952Y-18504D01*
X13106Y-18568D01*
X13272Y-18568D01*
X13426Y-18504D01*
X13543Y-18387D01*
X13607Y-18233D01*
X13607Y-18229D01*
X13755Y-18128D01*
X13776Y-18105D01*
X13797Y-18092D01*
X13813Y-18067D01*
X13837Y-18043D01*
X13846Y-18018D01*
X13863Y-17994D01*
X13870Y-17958D01*
X13880Y-17933D01*
X13879Y-17909D01*
X13886Y-17878D01*
X13886Y-15985D01*
X13863Y-15869D01*
X13818Y-15801D01*
X13869Y-15751D01*
X13906Y-15662D01*
X13906Y-15566D01*
X13906Y-15316D01*
X13869Y-15227D01*
X13836Y-15194D01*
X13875Y-15155D01*
X13913Y-15063D01*
X13914Y-15001D01*
X13914Y-18695D01*
X13798Y-18647D01*
X13582Y-18647D01*
X13383Y-18729D01*
X13230Y-18881D01*
X13188Y-18979D01*
X13149Y-18883D01*
X12997Y-18730D01*
X12798Y-18647D01*
X12582Y-18647D01*
X12383Y-18729D01*
X12230Y-18881D01*
X12188Y-18979D01*
X12149Y-18883D01*
X11997Y-18730D01*
X11979Y-18722D01*
X11960Y-18624D01*
X11959Y-18623D01*
X11896Y-18529D01*
X11895Y-18528D01*
X11188Y-17821D01*
X11330Y-17881D01*
X11544Y-17881D01*
X11742Y-17799D01*
X11893Y-17648D01*
X11976Y-17451D01*
X11976Y-17237D01*
X11923Y-17111D01*
X12052Y-17111D01*
X12206Y-17047D01*
X12323Y-16930D01*
X12387Y-16776D01*
X12387Y-16610D01*
X12323Y-16456D01*
X12206Y-16339D01*
X12052Y-16275D01*
X11978Y-16275D01*
X11978Y-15649D01*
X11966Y-15437D01*
X11906Y-15292D01*
X11813Y-15267D01*
X11742Y-15338D01*
X11742Y-15196D01*
X11717Y-15103D01*
X11516Y-15031D01*
X11304Y-15043D01*
X11159Y-15103D01*
X11134Y-15196D01*
X11438Y-15500D01*
X11742Y-15196D01*
X11742Y-15338D01*
X11509Y-15571D01*
X11813Y-15875D01*
X11906Y-15850D01*
X11978Y-15649D01*
X11978Y-16275D01*
X11886Y-16275D01*
X11742Y-16334D01*
X11742Y-15946D01*
X11438Y-15642D01*
X11367Y-15713D01*
X11367Y-15571D01*
X11063Y-15267D01*
X10970Y-15292D01*
X10898Y-15493D01*
X10910Y-15705D01*
X10970Y-15850D01*
X11063Y-15875D01*
X11367Y-15571D01*
X11367Y-15713D01*
X11134Y-15946D01*
X11159Y-16039D01*
X11360Y-16111D01*
X11572Y-16099D01*
X11717Y-16039D01*
X11742Y-15946D01*
X11742Y-16334D01*
X11732Y-16339D01*
X11681Y-16390D01*
X09416Y-16390D01*
X09416Y-15679D01*
X09416Y-15465D01*
X09334Y-15267D01*
X09183Y-15116D01*
X08986Y-15033D01*
X08772Y-15033D01*
X08574Y-15115D01*
X08423Y-15266D01*
X08340Y-15463D01*
X08340Y-15677D01*
X08422Y-15875D01*
X08573Y-16026D01*
X08770Y-16109D01*
X08984Y-16109D01*
X09182Y-16027D01*
X09333Y-15876D01*
X09416Y-15679D01*
X09416Y-16390D01*
X07556Y-16390D01*
X07799Y-16147D01*
X08020Y-16147D01*
X08109Y-16110D01*
X08177Y-16042D01*
X08214Y-15953D01*
X08214Y-15857D01*
X08214Y-14755D01*
X08177Y-14666D01*
X08109Y-14598D01*
X08020Y-14561D01*
X07924Y-14561D01*
X07888Y-14561D01*
X07888Y-14053D01*
X07973Y-14053D01*
X08088Y-14053D01*
X08255Y-14220D01*
X08256Y-14220D01*
X08354Y-14286D01*
X08470Y-14309D01*
X09209Y-14309D01*
X09209Y-14377D01*
X09202Y-14394D01*
X09201Y-14419D01*
X09238Y-14456D01*
X09246Y-14474D01*
X09314Y-14542D01*
X09345Y-14555D01*
X09263Y-14555D01*
X09201Y-14617D01*
X09202Y-14642D01*
X09240Y-14734D01*
X09310Y-14804D01*
X09401Y-14842D01*
X09500Y-14842D01*
X09589Y-14843D01*
X09651Y-14781D01*
X09651Y-14579D01*
X09751Y-14579D01*
X09751Y-14781D01*
X09813Y-14843D01*
X09902Y-14842D01*
X10001Y-14842D01*
X10092Y-14804D01*
X10162Y-14734D01*
X10200Y-14642D01*
X10201Y-14617D01*
X10139Y-14555D01*
X10056Y-14555D01*
X10088Y-14542D01*
X10156Y-14474D01*
X10163Y-14456D01*
X10201Y-14419D01*
X10200Y-14394D01*
X10265Y-14459D01*
X10266Y-14459D01*
X10329Y-14501D01*
X10360Y-14522D01*
X10361Y-14523D01*
X10472Y-14544D01*
X10473Y-14545D01*
X10568Y-14545D01*
X10629Y-14606D01*
X10783Y-14670D01*
X10913Y-14670D01*
X10940Y-14734D01*
X11010Y-14804D01*
X11101Y-14842D01*
X11200Y-14842D01*
X11289Y-14843D01*
X11351Y-14781D01*
X11351Y-14618D01*
X11351Y-14555D01*
X11351Y-14525D01*
X11351Y-14481D01*
X11351Y-14418D01*
X11351Y-14362D01*
X11351Y-14299D01*
X11351Y-14269D01*
X11351Y-14255D01*
X11351Y-14225D01*
X11351Y-14212D01*
X11451Y-14212D01*
X11451Y-14225D01*
X11451Y-14255D01*
X11451Y-14269D01*
X11451Y-14299D01*
X11451Y-14481D01*
X11451Y-14525D01*
X11481Y-14555D01*
X11451Y-14555D01*
X11451Y-14781D01*
X11513Y-14843D01*
X11602Y-14842D01*
X11701Y-14842D01*
X11792Y-14804D01*
X11862Y-14734D01*
X11900Y-14642D01*
X11901Y-14617D01*
X11839Y-14555D01*
X11775Y-14555D01*
X11792Y-14548D01*
X11862Y-14478D01*
X11876Y-14443D01*
X11901Y-14419D01*
X11900Y-14394D01*
X11898Y-14390D01*
X11900Y-14386D01*
X11901Y-14361D01*
X11876Y-14336D01*
X11862Y-14302D01*
X11822Y-14262D01*
X11862Y-14222D01*
X11876Y-14187D01*
X11901Y-14163D01*
X11900Y-14138D01*
X11898Y-14134D01*
X11900Y-14130D01*
X11901Y-14105D01*
X11876Y-14080D01*
X11862Y-14046D01*
X11817Y-14001D01*
X11856Y-13962D01*
X11863Y-13944D01*
X11901Y-13907D01*
X11900Y-13882D01*
X11893Y-13865D01*
X11893Y-13777D01*
X11893Y-13627D01*
X11856Y-13538D01*
X11788Y-13470D01*
X11699Y-13433D01*
X11694Y-13433D01*
X11694Y-13430D01*
X11714Y-13430D01*
X11778Y-13431D01*
X11840Y-13369D01*
X11840Y-13156D01*
X11840Y-13106D01*
X11840Y-13006D01*
X11940Y-13006D01*
X11940Y-13106D01*
X11940Y-13156D01*
X11940Y-13369D01*
X12002Y-13431D01*
X12066Y-13430D01*
X12165Y-13430D01*
X12256Y-13392D01*
X12326Y-13322D01*
X12341Y-13284D01*
X12359Y-13302D01*
X12320Y-13341D01*
X12282Y-13433D01*
X12281Y-13495D01*
X12343Y-13557D01*
X12656Y-13557D01*
X12706Y-13557D01*
X12806Y-13557D01*
X12856Y-13557D01*
X13169Y-13557D01*
X13231Y-13495D01*
X13230Y-13433D01*
X13192Y-13341D01*
X13153Y-13302D01*
X13186Y-13269D01*
X13223Y-13180D01*
X13223Y-13084D01*
X13223Y-12834D01*
X13186Y-12745D01*
X13150Y-12709D01*
X13207Y-12572D01*
X13207Y-12406D01*
X13143Y-12252D01*
X13026Y-12135D01*
X12872Y-12071D01*
X12706Y-12071D01*
X12644Y-12096D01*
X12644Y-08813D01*
X12644Y-08589D01*
X12643Y-08525D01*
X12643Y-08426D01*
X12626Y-08386D01*
X12643Y-08346D01*
X12643Y-08247D01*
X12644Y-08183D01*
X12644Y-07959D01*
X12643Y-07895D01*
X12643Y-07796D01*
X12605Y-07705D01*
X12535Y-07635D01*
X12443Y-07597D01*
X12381Y-07596D01*
X12319Y-07658D01*
X12319Y-08021D01*
X12582Y-08021D01*
X12644Y-07959D01*
X12644Y-08183D01*
X12582Y-08121D01*
X12319Y-08121D01*
X12319Y-08288D01*
X12319Y-08484D01*
X12319Y-08651D01*
X12582Y-08651D01*
X12644Y-08589D01*
X12644Y-08813D01*
X12582Y-08751D01*
X12319Y-08751D01*
X12319Y-09114D01*
X12381Y-09176D01*
X12443Y-09175D01*
X12535Y-09137D01*
X12605Y-09067D01*
X12643Y-08976D01*
X12643Y-08877D01*
X12644Y-08813D01*
X12644Y-12096D01*
X12565Y-12129D01*
X12565Y-09758D01*
X12565Y-09534D01*
X12564Y-09470D01*
X12564Y-09371D01*
X12526Y-09280D01*
X12456Y-09210D01*
X12364Y-09172D01*
X12302Y-09171D01*
X12240Y-09233D01*
X12240Y-09596D01*
X12503Y-09596D01*
X12565Y-09534D01*
X12565Y-09758D01*
X12503Y-09696D01*
X12240Y-09696D01*
X12240Y-10059D01*
X12302Y-10121D01*
X12364Y-10120D01*
X12456Y-10082D01*
X12526Y-10012D01*
X12564Y-09921D01*
X12564Y-09822D01*
X12565Y-09758D01*
X12565Y-12129D01*
X12552Y-12135D01*
X12435Y-12252D01*
X12371Y-12406D01*
X12371Y-12572D01*
X12411Y-12669D01*
X12394Y-12677D01*
X12326Y-12745D01*
X12312Y-12776D01*
X12287Y-12751D01*
X12320Y-12718D01*
X12357Y-12629D01*
X12357Y-12533D01*
X12357Y-12283D01*
X12320Y-12194D01*
X12252Y-12126D01*
X12163Y-12089D01*
X12067Y-12089D01*
X11696Y-12089D01*
X11696Y-11826D01*
X11696Y-11157D01*
X11673Y-11041D01*
X11607Y-10943D01*
X11138Y-10474D01*
X11040Y-10408D01*
X10924Y-10385D01*
X10646Y-10385D01*
X10693Y-10339D01*
X10693Y-10338D01*
X10773Y-10219D01*
X10800Y-10078D01*
X10801Y-10078D01*
X10801Y-10014D01*
X10865Y-10078D01*
X11019Y-10142D01*
X11185Y-10142D01*
X11335Y-10079D01*
X11417Y-10113D01*
X11513Y-10113D01*
X11763Y-10113D01*
X11852Y-10076D01*
X11885Y-10043D01*
X11924Y-10082D01*
X12016Y-10120D01*
X12078Y-10121D01*
X12140Y-10059D01*
X12140Y-09746D01*
X12140Y-09696D01*
X12140Y-09596D01*
X12140Y-09546D01*
X12140Y-09233D01*
X12078Y-09171D01*
X12016Y-09172D01*
X11924Y-09210D01*
X11885Y-09249D01*
X11852Y-09216D01*
X11763Y-09179D01*
X11667Y-09179D01*
X11417Y-09179D01*
X11328Y-09216D01*
X11260Y-09284D01*
X11241Y-09329D01*
X11185Y-09306D01*
X11175Y-09306D01*
X11378Y-09102D01*
X11407Y-09131D01*
X11496Y-09168D01*
X11592Y-09168D01*
X11842Y-09168D01*
X11931Y-09131D01*
X11964Y-09098D01*
X12003Y-09137D01*
X12095Y-09175D01*
X12157Y-09176D01*
X12219Y-09114D01*
X12219Y-08801D01*
X12219Y-08751D01*
X12219Y-08651D01*
X12219Y-08601D01*
X12219Y-08484D01*
X12219Y-08288D01*
X12219Y-08171D01*
X12219Y-08121D01*
X12219Y-08021D01*
X12219Y-07971D01*
X12219Y-07658D01*
X12157Y-07596D01*
X12095Y-07597D01*
X12003Y-07635D01*
X11964Y-07674D01*
X11931Y-07641D01*
X11842Y-07604D01*
X11826Y-07604D01*
X11845Y-07560D01*
X11845Y-07464D01*
X11845Y-07214D01*
X11808Y-07125D01*
X11775Y-07092D01*
X11814Y-07053D01*
X11852Y-06961D01*
X11853Y-06899D01*
X11853Y-06675D01*
X11852Y-06613D01*
X11814Y-06521D01*
X11744Y-06451D01*
X11653Y-06413D01*
X11554Y-06413D01*
X11490Y-06412D01*
X11428Y-06474D01*
X11428Y-06737D01*
X11791Y-06737D01*
X11853Y-06675D01*
X11853Y-06899D01*
X11791Y-06837D01*
X11478Y-06837D01*
X11428Y-06837D01*
X11328Y-06837D01*
X11328Y-06737D01*
X11328Y-06474D01*
X11266Y-06412D01*
X11202Y-06413D01*
X11103Y-06413D01*
X11063Y-06429D01*
X11023Y-06413D01*
X10924Y-06413D01*
X10860Y-06412D01*
X10798Y-06474D01*
X10798Y-06737D01*
X10965Y-06737D01*
X11161Y-06737D01*
X11328Y-06737D01*
X11328Y-06837D01*
X11278Y-06837D01*
X11161Y-06837D01*
X10965Y-06837D01*
X10848Y-06837D01*
X10798Y-06837D01*
X10698Y-06837D01*
X10698Y-06737D01*
X10698Y-06474D01*
X10636Y-06412D01*
X10572Y-06413D01*
X10473Y-06413D01*
X10433Y-06429D01*
X10393Y-06413D01*
X10294Y-06413D01*
X10230Y-06412D01*
X10168Y-06474D01*
X10168Y-06737D01*
X10335Y-06737D01*
X10531Y-06737D01*
X10698Y-06737D01*
X10698Y-06837D01*
X10648Y-06837D01*
X10531Y-06837D01*
X10335Y-06837D01*
X10218Y-06837D01*
X10168Y-06837D01*
X10068Y-06837D01*
X10068Y-06737D01*
X10068Y-06474D01*
X10006Y-06412D01*
X09942Y-06413D01*
X09843Y-06413D01*
X09796Y-06432D01*
X09749Y-06412D01*
X09749Y-04453D01*
X09749Y-04287D01*
X09685Y-04133D01*
X09568Y-04016D01*
X09414Y-03952D01*
X09248Y-03952D01*
X09094Y-04016D01*
X08977Y-04133D01*
X08913Y-04287D01*
X08913Y-04453D01*
X08916Y-04460D01*
X08851Y-04488D01*
X08783Y-04556D01*
X08746Y-04645D01*
X08746Y-04741D01*
X08746Y-04991D01*
X08783Y-05080D01*
X08816Y-05113D01*
X08777Y-05152D01*
X08739Y-05244D01*
X08738Y-05306D01*
X08800Y-05368D01*
X09113Y-05368D01*
X09163Y-05368D01*
X09263Y-05368D01*
X09313Y-05368D01*
X09626Y-05368D01*
X09688Y-05306D01*
X09687Y-05244D01*
X09649Y-05152D01*
X09610Y-05113D01*
X09643Y-05080D01*
X09680Y-04991D01*
X09680Y-04895D01*
X09680Y-04645D01*
X09670Y-04621D01*
X09685Y-04607D01*
X09749Y-04453D01*
X09749Y-06412D01*
X09734Y-06406D01*
X09688Y-06406D01*
X09688Y-05530D01*
X09626Y-05468D01*
X09263Y-05468D01*
X09263Y-05731D01*
X09325Y-05793D01*
X09389Y-05792D01*
X09488Y-05792D01*
X09579Y-05754D01*
X09649Y-05684D01*
X09687Y-05592D01*
X09688Y-05530D01*
X09688Y-06406D01*
X09635Y-06406D01*
X09521Y-06405D01*
X09459Y-06467D01*
X09459Y-06780D01*
X09872Y-06780D01*
X09915Y-06737D01*
X10068Y-06737D01*
X10068Y-06837D01*
X10018Y-06837D01*
X09705Y-06837D01*
X09662Y-06880D01*
X09509Y-06880D01*
X09459Y-06880D01*
X09359Y-06880D01*
X09359Y-06780D01*
X09359Y-06730D01*
X09359Y-06467D01*
X09297Y-06405D01*
X09183Y-06406D01*
X09163Y-06406D01*
X09163Y-05731D01*
X09163Y-05468D01*
X08800Y-05468D01*
X08738Y-05530D01*
X08739Y-05592D01*
X08777Y-05684D01*
X08847Y-05754D01*
X08938Y-05792D01*
X09037Y-05792D01*
X09101Y-05793D01*
X09163Y-05731D01*
X09163Y-06406D01*
X09084Y-06406D01*
X08993Y-06444D01*
X08923Y-06514D01*
X08885Y-06606D01*
X08884Y-06718D01*
X08896Y-06730D01*
X08884Y-06730D01*
X08884Y-06738D01*
X08750Y-06604D01*
X08655Y-06540D01*
X08543Y-06518D01*
X07306Y-06518D01*
X07245Y-06457D01*
X07091Y-06393D01*
X06925Y-06393D01*
X06771Y-06457D01*
X06654Y-06574D01*
X06590Y-06728D01*
X06590Y-06826D01*
X06492Y-06826D01*
X06338Y-06890D01*
X06221Y-07007D01*
X06157Y-07161D01*
X06157Y-07327D01*
X06163Y-07343D01*
X06023Y-07402D01*
X05906Y-07519D01*
X05842Y-07673D01*
X05842Y-07839D01*
X05906Y-07993D01*
X06023Y-08110D01*
X06177Y-08174D01*
X06343Y-08174D01*
X06497Y-08110D01*
X06558Y-08049D01*
X07130Y-08049D01*
X07121Y-08071D01*
X07121Y-08170D01*
X07120Y-08234D01*
X07182Y-08296D01*
X07395Y-08296D01*
X07445Y-08296D01*
X07545Y-08296D01*
X07545Y-08396D01*
X07545Y-08446D01*
X07545Y-08759D01*
X07585Y-08799D01*
X07545Y-08839D01*
X07545Y-09152D01*
X07545Y-09202D01*
X07545Y-09302D01*
X07545Y-09352D01*
X07545Y-09469D01*
X07545Y-09665D01*
X07545Y-09782D01*
X07545Y-09832D01*
X07545Y-09932D01*
X07545Y-09982D01*
X07545Y-10256D01*
X07545Y-10295D01*
X07545Y-10569D01*
X07545Y-10619D01*
X07545Y-10719D01*
X07545Y-10769D01*
X07545Y-11004D01*
X07545Y-11082D01*
X07545Y-11317D01*
X07545Y-11367D01*
X07545Y-11467D01*
X07545Y-11517D01*
X07545Y-11634D01*
X07545Y-11830D01*
X07545Y-11947D01*
X07545Y-11997D01*
X07545Y-12097D01*
X07445Y-12097D01*
X07445Y-11997D01*
X07445Y-11947D01*
X07445Y-11830D01*
X07445Y-11634D01*
X07445Y-11467D01*
X07445Y-11367D01*
X07445Y-11082D01*
X07445Y-11004D01*
X07445Y-10719D01*
X07445Y-10619D01*
X07445Y-10295D01*
X07445Y-10256D01*
X07445Y-09932D01*
X07445Y-09832D01*
X07445Y-09665D01*
X07445Y-09469D01*
X07445Y-09302D01*
X07445Y-09202D01*
X07445Y-08839D01*
X07405Y-08799D01*
X07445Y-08759D01*
X07445Y-08396D01*
X07182Y-08396D01*
X07120Y-08458D01*
X07121Y-08522D01*
X07121Y-08621D01*
X07159Y-08712D01*
X07229Y-08782D01*
X07270Y-08799D01*
X07229Y-08816D01*
X07159Y-08886D01*
X07121Y-08977D01*
X07121Y-09076D01*
X07120Y-09140D01*
X07182Y-09202D01*
X07445Y-09202D01*
X07445Y-09302D01*
X07182Y-09302D01*
X07120Y-09364D01*
X07121Y-09428D01*
X07121Y-09527D01*
X07137Y-09567D01*
X07121Y-09607D01*
X07121Y-09706D01*
X07120Y-09770D01*
X07182Y-09832D01*
X07445Y-09832D01*
X07445Y-09932D01*
X07182Y-09932D01*
X07120Y-09994D01*
X07121Y-10058D01*
X07121Y-10157D01*
X07159Y-10248D01*
X07186Y-10275D01*
X07159Y-10303D01*
X07121Y-10394D01*
X07121Y-10493D01*
X07120Y-10557D01*
X07182Y-10619D01*
X07445Y-10619D01*
X07445Y-10719D01*
X07182Y-10719D01*
X07120Y-10781D01*
X07121Y-10845D01*
X07121Y-10944D01*
X07159Y-11035D01*
X07167Y-11043D01*
X07159Y-11051D01*
X07121Y-11142D01*
X07121Y-11241D01*
X07120Y-11305D01*
X07182Y-11367D01*
X07445Y-11367D01*
X07445Y-11467D01*
X07182Y-11467D01*
X07120Y-11529D01*
X07121Y-11593D01*
X07121Y-11692D01*
X07137Y-11732D01*
X07121Y-11772D01*
X07121Y-11838D01*
X07001Y-11718D01*
X06986Y-11711D01*
X06986Y-10456D01*
X07047Y-10395D01*
X07111Y-10241D01*
X07111Y-10075D01*
X07047Y-09921D01*
X06930Y-09804D01*
X06914Y-09797D01*
X06914Y-09641D01*
X06850Y-09487D01*
X06733Y-09370D01*
X06579Y-09306D01*
X06413Y-09306D01*
X06259Y-09370D01*
X06142Y-09487D01*
X06078Y-09641D01*
X06078Y-09728D01*
X05620Y-10186D01*
X05556Y-10281D01*
X05534Y-10393D01*
X05534Y-11663D01*
X05490Y-11681D01*
X05490Y-11575D01*
X05468Y-11463D01*
X05467Y-11462D01*
X05446Y-11431D01*
X05404Y-11368D01*
X05404Y-11367D01*
X05089Y-11053D01*
X04994Y-10989D01*
X04882Y-10967D01*
X04409Y-10967D01*
X04019Y-10967D01*
X03514Y-10462D01*
X03394Y-10342D01*
X03451Y-10319D01*
X03519Y-10251D01*
X03547Y-10182D01*
X04244Y-10182D01*
X04246Y-10185D01*
X04393Y-10332D01*
X04585Y-10412D01*
X04793Y-10412D01*
X04985Y-10332D01*
X05132Y-10185D01*
X05212Y-09993D01*
X05212Y-09785D01*
X05212Y-07993D01*
X05212Y-07785D01*
X05132Y-07593D01*
X04985Y-07446D01*
X04793Y-07366D01*
X04585Y-07366D01*
X04393Y-07446D01*
X04246Y-07593D01*
X04244Y-07596D01*
X03747Y-07596D01*
X03747Y-06900D01*
X03747Y-06686D01*
X03665Y-06488D01*
X03514Y-06337D01*
X03317Y-06254D01*
X03103Y-06254D01*
X02905Y-06336D01*
X02754Y-06487D01*
X02671Y-06684D01*
X02671Y-06898D01*
X02753Y-07096D01*
X02904Y-07247D01*
X03101Y-07330D01*
X03315Y-07330D01*
X03513Y-07248D01*
X03664Y-07097D01*
X03747Y-06900D01*
X03747Y-07596D01*
X03547Y-07596D01*
X03519Y-07527D01*
X03451Y-07459D01*
X03362Y-07422D01*
X03266Y-07422D01*
X03016Y-07422D01*
X02927Y-07459D01*
X02894Y-07492D01*
X02855Y-07453D01*
X02763Y-07415D01*
X02701Y-07414D01*
X02639Y-07476D01*
X02639Y-07789D01*
X02639Y-07839D01*
X02639Y-07939D01*
X02639Y-07989D01*
X02639Y-08302D01*
X02701Y-08364D01*
X02763Y-08363D01*
X02855Y-08325D01*
X02894Y-08286D01*
X02927Y-08319D01*
X03016Y-08356D01*
X03112Y-08356D01*
X03362Y-08356D01*
X03451Y-08319D01*
X03519Y-08251D01*
X03547Y-08182D01*
X04244Y-08182D01*
X04246Y-08185D01*
X04393Y-08332D01*
X04585Y-08412D01*
X04793Y-08412D01*
X04985Y-08332D01*
X05132Y-08185D01*
X05212Y-07993D01*
X05212Y-09785D01*
X05132Y-09593D01*
X04985Y-09446D01*
X04793Y-09366D01*
X04585Y-09366D01*
X04393Y-09446D01*
X04246Y-09593D01*
X04244Y-09596D01*
X03547Y-09596D01*
X03519Y-09527D01*
X03451Y-09459D01*
X03362Y-09422D01*
X03266Y-09422D01*
X03016Y-09422D01*
X02927Y-09459D01*
X02894Y-09492D01*
X02855Y-09453D01*
X02763Y-09415D01*
X02701Y-09414D01*
X02639Y-09476D01*
X02639Y-09789D01*
X02639Y-09839D01*
X02639Y-09939D01*
X02539Y-09939D01*
X02539Y-09839D01*
X02539Y-09476D01*
X02539Y-08302D01*
X02539Y-07939D01*
X02539Y-07839D01*
X02539Y-07476D01*
X02477Y-07414D01*
X02415Y-07415D01*
X02323Y-07453D01*
X02253Y-07523D01*
X02215Y-07614D01*
X02215Y-07713D01*
X02214Y-07777D01*
X02276Y-07839D01*
X02539Y-07839D01*
X02539Y-07939D01*
X02276Y-07939D01*
X02214Y-08001D01*
X02215Y-08065D01*
X02215Y-08164D01*
X02253Y-08255D01*
X02323Y-08325D01*
X02415Y-08363D01*
X02477Y-08364D01*
X02539Y-08302D01*
X02539Y-09476D01*
X02477Y-09414D01*
X02415Y-09415D01*
X02323Y-09453D01*
X02253Y-09523D01*
X02215Y-09614D01*
X02215Y-09713D01*
X02214Y-09777D01*
X02276Y-09839D01*
X02539Y-09839D01*
X02539Y-09939D01*
X02489Y-09939D01*
X02276Y-09939D01*
X02214Y-10001D01*
X02215Y-10065D01*
X02215Y-10164D01*
X02237Y-10219D01*
X02050Y-10219D01*
X01828Y-09997D01*
X01828Y-08841D01*
X01889Y-08780D01*
X01953Y-08626D01*
X01953Y-08460D01*
X01889Y-08306D01*
X01772Y-08189D01*
X01618Y-08125D01*
X01452Y-08125D01*
X01298Y-08189D01*
X01181Y-08306D01*
X01140Y-08402D01*
X01067Y-08381D01*
X00997Y-08451D01*
X00997Y-08311D01*
X00970Y-08217D01*
X00768Y-08146D01*
X00555Y-08157D01*
X00408Y-08217D01*
X00381Y-08311D01*
X00689Y-08618D01*
X00997Y-08311D01*
X00997Y-08451D01*
X00760Y-08689D01*
X01067Y-08997D01*
X01161Y-08970D01*
X01215Y-08814D01*
X01242Y-08841D01*
X01242Y-10118D01*
X01264Y-10230D01*
X01328Y-10325D01*
X01541Y-10538D01*
X01255Y-10538D01*
X01057Y-10339D01*
X01057Y-10222D01*
X01126Y-10194D01*
X01194Y-10126D01*
X01231Y-10037D01*
X01231Y-09941D01*
X01231Y-09341D01*
X01194Y-09252D01*
X01126Y-09184D01*
X01037Y-09147D01*
X00974Y-09147D01*
X00997Y-09067D01*
X00689Y-08760D01*
X00381Y-09067D01*
X00403Y-09147D01*
X00341Y-09147D01*
X00262Y-09179D01*
X00262Y-08982D01*
X00311Y-08997D01*
X00618Y-08689D01*
X00311Y-08381D01*
X00262Y-08395D01*
X00262Y-07165D01*
X00344Y-07247D01*
X00541Y-07330D01*
X00755Y-07330D01*
X00953Y-07248D01*
X01104Y-07097D01*
X01187Y-06900D01*
X01187Y-06686D01*
X01105Y-06488D01*
X00954Y-06337D01*
X00757Y-06254D01*
X00543Y-06254D01*
X00345Y-06336D01*
X00262Y-06419D01*
X00262Y-05393D01*
X00344Y-05475D01*
X00541Y-05558D01*
X00755Y-05558D01*
X00953Y-05476D01*
X01104Y-05325D01*
X01187Y-05128D01*
X01187Y-04914D01*
X01105Y-04716D01*
X00954Y-04565D01*
X00757Y-04482D01*
X00543Y-04482D01*
X00345Y-04564D01*
X00262Y-04647D01*
X00262Y-01528D01*
X00381Y-01648D01*
X00580Y-01731D01*
X00796Y-01731D01*
X00995Y-01649D01*
X01148Y-01497D01*
X01189Y-01398D01*
X01229Y-01495D01*
X01381Y-01648D01*
X01580Y-01731D01*
X01796Y-01731D01*
X01995Y-01649D01*
X02148Y-01497D01*
X02189Y-01398D01*
X02229Y-01495D01*
X02381Y-01648D01*
X02580Y-01731D01*
X02796Y-01731D01*
X02995Y-01649D01*
X03147Y-01497D01*
X03147Y-01537D01*
X03184Y-01626D01*
X03252Y-01694D01*
X03341Y-01731D01*
X03437Y-01731D01*
X04037Y-01731D01*
X04126Y-01694D01*
X04194Y-01626D01*
X04231Y-01537D01*
X04231Y-01497D01*
X04381Y-01648D01*
X04580Y-01731D01*
X04796Y-01731D01*
X04995Y-01649D01*
X05147Y-01497D01*
X05147Y-01537D01*
X05184Y-01626D01*
X05252Y-01694D01*
X05341Y-01731D01*
X05437Y-01731D01*
X06037Y-01731D01*
X06126Y-01694D01*
X06194Y-01626D01*
X06231Y-01537D01*
X06231Y-01497D01*
X06381Y-01648D01*
X06580Y-01731D01*
X06796Y-01731D01*
X06995Y-01649D01*
X07148Y-01497D01*
X07189Y-01398D01*
X07229Y-01495D01*
X07381Y-01648D01*
X07396Y-01654D01*
X07396Y-04315D01*
X06127Y-05584D01*
X06127Y-04807D01*
X06127Y-04641D01*
X06063Y-04487D01*
X05946Y-04370D01*
X05792Y-04306D01*
X05626Y-04306D01*
X05472Y-04370D01*
X05411Y-04431D01*
X03505Y-04431D01*
X03393Y-04453D01*
X03375Y-04464D01*
X03375Y-02877D01*
X03163Y-02360D01*
X03156Y-02350D01*
X02972Y-02218D01*
X02901Y-02289D01*
X02901Y-02147D01*
X02769Y-01963D01*
X02255Y-01747D01*
X01696Y-01744D01*
X01179Y-01956D01*
X01169Y-01963D01*
X01037Y-02147D01*
X01969Y-03079D01*
X02901Y-02147D01*
X02901Y-02289D01*
X02040Y-03150D01*
X02972Y-04082D01*
X03156Y-03950D01*
X03372Y-03436D01*
X03375Y-02877D01*
X03375Y-04464D01*
X03361Y-04474D01*
X03337Y-04490D01*
X03317Y-04482D01*
X03103Y-04482D01*
X02905Y-04564D01*
X02901Y-04568D01*
X02901Y-04153D01*
X01969Y-03221D01*
X01898Y-03292D01*
X01898Y-03150D01*
X00966Y-02218D01*
X00782Y-02350D01*
X00566Y-02864D01*
X00563Y-03423D01*
X00775Y-03940D01*
X00782Y-03950D01*
X00966Y-04082D01*
X01898Y-03150D01*
X01898Y-03292D01*
X01037Y-04153D01*
X01169Y-04337D01*
X01683Y-04553D01*
X02242Y-04556D01*
X02759Y-04344D01*
X02769Y-04337D01*
X02901Y-04153D01*
X02901Y-04568D01*
X02754Y-04715D01*
X02671Y-04912D01*
X02671Y-05126D01*
X02753Y-05324D01*
X02904Y-05475D01*
X03101Y-05558D01*
X03315Y-05558D01*
X03513Y-05476D01*
X03664Y-05325D01*
X03747Y-05128D01*
X03747Y-05017D01*
X05411Y-05017D01*
X05472Y-05078D01*
X05626Y-05142D01*
X05792Y-05142D01*
X05946Y-05078D01*
X06063Y-04961D01*
X06127Y-04807D01*
X06127Y-05584D01*
X06053Y-05659D01*
X05777Y-05935D01*
X05713Y-06030D01*
X05706Y-06064D01*
X05630Y-06141D01*
X05566Y-06295D01*
X05566Y-06461D01*
X05630Y-06615D01*
X05747Y-06732D01*
X05901Y-06796D01*
X06067Y-06796D01*
X06221Y-06732D01*
X06338Y-06615D01*
X06402Y-06461D01*
X06402Y-06295D01*
X06355Y-06184D01*
X06467Y-06073D01*
X07896Y-04645D01*
X07896Y-04644D01*
X07938Y-04581D01*
X07959Y-04550D01*
X07960Y-04549D01*
X07981Y-04438D01*
X07982Y-04437D01*
X07982Y-01654D01*
X07995Y-01649D01*
X08148Y-01497D01*
X08189Y-01398D01*
X08229Y-01495D01*
X08381Y-01648D01*
X08580Y-01731D01*
X08796Y-01731D01*
X08995Y-01649D01*
X09147Y-01497D01*
X09147Y-01537D01*
X09184Y-01626D01*
X09252Y-01694D01*
X09341Y-01731D01*
X09437Y-01731D01*
X10037Y-01731D01*
X10126Y-01694D01*
X10194Y-01626D01*
X10231Y-01537D01*
X10231Y-01497D01*
X10381Y-01648D01*
X10580Y-01731D01*
X10796Y-01731D01*
X10995Y-01649D01*
X11148Y-01497D01*
X11189Y-01398D01*
X11229Y-01495D01*
X11381Y-01648D01*
X11580Y-01731D01*
X11796Y-01731D01*
X11995Y-01649D01*
X12148Y-01497D01*
X12189Y-01398D01*
X12229Y-01495D01*
X12381Y-01648D01*
X12580Y-01731D01*
X12796Y-01731D01*
X12995Y-01649D01*
X13147Y-01497D01*
X13147Y-01537D01*
X13184Y-01626D01*
X13252Y-01694D01*
X13341Y-01731D01*
X13437Y-01731D01*
X14037Y-01731D01*
X14126Y-01694D01*
X14194Y-01626D01*
X14231Y-01537D01*
X14231Y-01497D01*
X14381Y-01648D01*
X14580Y-01731D01*
X14796Y-01731D01*
X14995Y-01649D01*
X15148Y-01497D01*
X15189Y-01398D01*
X15229Y-01495D01*
X15381Y-01648D01*
X15580Y-01731D01*
X15796Y-01731D01*
X15995Y-01649D01*
X16148Y-01497D01*
X16189Y-01398D01*
X16229Y-01495D01*
X16381Y-01648D01*
X16580Y-01731D01*
X16796Y-01731D01*
X16995Y-01649D01*
X17147Y-01497D01*
X17147Y-01537D01*
X17184Y-01626D01*
X17252Y-01694D01*
X17341Y-01731D01*
X17437Y-01731D01*
X18037Y-01731D01*
X18126Y-01694D01*
X18194Y-01626D01*
X18231Y-01537D01*
X18231Y-01441D01*
X18231Y-00841D01*
X18197Y-00759D01*
X18197Y-00262D01*
X19423Y-00262D01*
X19423Y-18122D01*
X19261Y-17961D01*
X19231Y-17948D01*
X19231Y-17537D01*
X19231Y-17441D01*
X19231Y-16841D01*
X19194Y-16752D01*
X19126Y-16684D01*
X19037Y-16647D01*
X18997Y-16647D01*
X19148Y-16497D01*
X19231Y-16298D01*
X19231Y-16082D01*
X19149Y-15883D01*
X18997Y-15730D01*
X18898Y-15688D01*
X18995Y-15649D01*
X19148Y-15497D01*
X19231Y-15298D01*
X19231Y-15082D01*
X19149Y-14883D01*
X18997Y-14730D01*
X18898Y-14688D01*
X18995Y-14649D01*
X19148Y-14497D01*
X19231Y-14298D01*
X19231Y-14082D01*
X19149Y-13883D01*
X18997Y-13731D01*
X19037Y-13731D01*
X19126Y-13694D01*
X19194Y-13626D01*
X19231Y-13537D01*
X19231Y-13441D01*
X19231Y-12841D01*
X19194Y-12752D01*
X19126Y-12684D01*
X19037Y-12647D01*
X18997Y-12647D01*
X19148Y-12497D01*
X19231Y-12298D01*
X19231Y-12082D01*
X19149Y-11883D01*
X18997Y-11730D01*
X18898Y-11688D01*
X18995Y-11649D01*
X19148Y-11497D01*
X19231Y-11298D01*
X19231Y-11082D01*
X19149Y-10883D01*
X18997Y-10730D01*
X18898Y-10688D01*
X18995Y-10649D01*
X19148Y-10497D01*
X19231Y-10298D01*
X19231Y-10082D01*
X19149Y-09883D01*
X18997Y-09731D01*
X19037Y-09731D01*
X19126Y-09694D01*
X19194Y-09626D01*
X19231Y-09537D01*
X19231Y-09441D01*
X19231Y-08841D01*
X19194Y-08752D01*
X19126Y-08684D01*
X19037Y-08647D01*
X18997Y-08647D01*
X19148Y-08497D01*
X19231Y-08298D01*
X19231Y-08082D01*
X19149Y-07883D01*
X18997Y-07730D01*
X18898Y-07688D01*
X18995Y-07649D01*
X19148Y-07497D01*
X19231Y-07298D01*
X19231Y-07082D01*
X19149Y-06883D01*
X18997Y-06730D01*
X18898Y-06688D01*
X18995Y-06649D01*
X19148Y-06497D01*
X19231Y-06298D01*
X19231Y-06082D01*
X19149Y-05883D01*
X18997Y-05731D01*
X19037Y-05731D01*
X19126Y-05694D01*
X19194Y-05626D01*
X19231Y-05537D01*
X19231Y-05441D01*
X19231Y-04841D01*
X19194Y-04752D01*
X19126Y-04684D01*
X19037Y-04647D01*
X18997Y-04647D01*
X19148Y-04497D01*
X19231Y-04298D01*
X19231Y-04082D01*
X19149Y-03883D01*
X18997Y-03730D01*
X18898Y-03688D01*
X18995Y-03649D01*
X19148Y-03497D01*
X19231Y-03298D01*
X19231Y-03082D01*
X19149Y-02883D01*
X18997Y-02730D01*
X18898Y-02688D01*
X18995Y-02649D01*
X19148Y-02497D01*
X19231Y-02298D01*
X19231Y-02082D01*
X19149Y-01883D01*
X18997Y-01730D01*
X18798Y-01647D01*
X18582Y-01647D01*
X18383Y-01729D01*
X18230Y-01881D01*
X18147Y-02080D01*
X18147Y-02296D01*
X18229Y-02495D01*
X18381Y-02648D01*
X18479Y-02689D01*
X18383Y-02729D01*
X18230Y-02881D01*
X18147Y-03080D01*
X18147Y-03296D01*
X18229Y-03495D01*
X18381Y-03648D01*
X18479Y-03689D01*
X18383Y-03729D01*
X18230Y-03881D01*
X18147Y-04080D01*
X18147Y-04296D01*
X18229Y-04495D01*
X18380Y-04647D01*
X18341Y-04647D01*
X18252Y-04684D01*
X18184Y-04752D01*
X18147Y-04841D01*
X18147Y-04937D01*
X18147Y-05537D01*
X18184Y-05626D01*
X18252Y-05694D01*
X18341Y-05731D01*
X18380Y-05731D01*
X18230Y-05881D01*
X18223Y-05896D01*
X17531Y-05896D01*
X17124Y-05488D01*
X17124Y-05283D01*
X17135Y-05279D01*
X17286Y-05128D01*
X17369Y-04931D01*
X17369Y-04717D01*
X17287Y-04519D01*
X17136Y-04368D01*
X16939Y-04285D01*
X16725Y-04285D01*
X16527Y-04367D01*
X16376Y-04518D01*
X16293Y-04715D01*
X16293Y-04929D01*
X16375Y-05127D01*
X16526Y-05278D01*
X16538Y-05283D01*
X16538Y-05610D01*
X16560Y-05722D01*
X16624Y-05817D01*
X16863Y-06057D01*
X16725Y-06057D01*
X16527Y-06139D01*
X16376Y-06290D01*
X16293Y-06487D01*
X16293Y-06701D01*
X16375Y-06899D01*
X16526Y-07050D01*
X16723Y-07133D01*
X16937Y-07133D01*
X17135Y-07051D01*
X17286Y-06900D01*
X17369Y-06703D01*
X17369Y-06489D01*
X17362Y-06472D01*
X17409Y-06481D01*
X17410Y-06482D01*
X18223Y-06482D01*
X18229Y-06495D01*
X18381Y-06648D01*
X18479Y-06689D01*
X18383Y-06729D01*
X18230Y-06881D01*
X18147Y-07080D01*
X18147Y-07296D01*
X18229Y-07495D01*
X18381Y-07648D01*
X18479Y-07689D01*
X18383Y-07729D01*
X18230Y-07881D01*
X18147Y-08080D01*
X18147Y-08296D01*
X18229Y-08495D01*
X18380Y-08647D01*
X18341Y-08647D01*
X18252Y-08684D01*
X18184Y-08752D01*
X18147Y-08841D01*
X18147Y-08937D01*
X18147Y-09537D01*
X18184Y-09626D01*
X18252Y-09694D01*
X18341Y-09731D01*
X18380Y-09731D01*
X18230Y-09881D01*
X18147Y-10080D01*
X18147Y-10296D01*
X18229Y-10495D01*
X18381Y-10648D01*
X18479Y-10689D01*
X18383Y-10729D01*
X18230Y-10881D01*
X18147Y-11080D01*
X18147Y-11296D01*
X18229Y-11495D01*
X18381Y-11648D01*
X18479Y-11689D01*
X18383Y-11729D01*
X18230Y-11881D01*
X18147Y-12080D01*
X18147Y-12296D01*
X18229Y-12495D01*
X18380Y-12647D01*
X18341Y-12647D01*
X18252Y-12684D01*
X18184Y-12752D01*
X18147Y-12841D01*
X18147Y-12937D01*
X18147Y-13537D01*
X18184Y-13626D01*
X18252Y-13694D01*
X18341Y-13731D01*
X18380Y-13731D01*
X18230Y-13881D01*
X18147Y-14080D01*
X18147Y-14296D01*
X18229Y-14495D01*
X18381Y-14648D01*
X18479Y-14689D01*
X18383Y-14729D01*
X18230Y-14881D01*
X18147Y-15080D01*
X18147Y-15296D01*
X18229Y-15495D01*
X18381Y-15648D01*
X18479Y-15689D01*
X18383Y-15729D01*
X18230Y-15881D01*
X18147Y-16080D01*
X18147Y-16296D01*
X18229Y-16495D01*
X18380Y-16647D01*
X18341Y-16647D01*
X18252Y-16684D01*
X18184Y-16752D01*
X18147Y-16841D01*
X18147Y-16937D01*
X18147Y-17537D01*
X18184Y-17626D01*
X18252Y-17694D01*
X18341Y-17731D01*
X18437Y-17731D01*
X19037Y-17731D01*
X19126Y-17694D01*
X19194Y-17626D01*
X19231Y-17537D01*
X19231Y-17948D01*
X19026Y-17863D01*
X18771Y-17863D01*
X18535Y-17960D01*
X18355Y-18141D01*
X18257Y-18376D01*
X18257Y-18631D01*
X18354Y-18867D01*
X18535Y-19047D01*
X18770Y-19145D01*
X19025Y-19145D01*
X19261Y-19048D01*
X19423Y-18885D01*
X19423Y-19423D01*
X19423Y-19423D01*
G37*
G54D31*
X19423Y-19423D02*
X18178Y-19423D01*
X18231Y-19298D01*
X18231Y-19082D01*
X18149Y-18883D01*
X17997Y-18730D01*
X17798Y-18647D01*
X17582Y-18647D01*
X17548Y-18661D01*
X17548Y-16262D01*
X17369Y-15825D01*
X17369Y-09655D01*
X17369Y-09441D01*
X17369Y-07883D01*
X17369Y-07669D01*
X17287Y-07471D01*
X17136Y-07320D01*
X16939Y-07237D01*
X16725Y-07237D01*
X16527Y-07319D01*
X16376Y-07470D01*
X16293Y-07667D01*
X16293Y-07881D01*
X16375Y-08079D01*
X16526Y-08230D01*
X16723Y-08313D01*
X16937Y-08313D01*
X17135Y-08231D01*
X17286Y-08080D01*
X17369Y-07883D01*
X17369Y-09441D01*
X17287Y-09243D01*
X17136Y-09092D01*
X16939Y-09009D01*
X16725Y-09009D01*
X16527Y-09091D01*
X16376Y-09242D01*
X16293Y-09439D01*
X16293Y-09653D01*
X16375Y-09851D01*
X16526Y-10002D01*
X16723Y-10085D01*
X16937Y-10085D01*
X17135Y-10003D01*
X17286Y-09852D01*
X17369Y-09655D01*
X17369Y-15825D01*
X17336Y-15745D01*
X17329Y-15735D01*
X17145Y-15603D01*
X17074Y-15674D01*
X17074Y-15532D01*
X16942Y-15348D01*
X16611Y-15208D01*
X16611Y-13434D01*
X16611Y-13338D01*
X16574Y-13249D01*
X16506Y-13181D01*
X16082Y-12757D01*
X15993Y-12720D01*
X15897Y-12720D01*
X15808Y-12757D01*
X15779Y-12786D01*
X15779Y-12571D01*
X15697Y-12372D01*
X15545Y-12219D01*
X15346Y-12136D01*
X15328Y-12136D01*
X15355Y-12125D01*
X15425Y-12055D01*
X15463Y-11964D01*
X15463Y-11865D01*
X15464Y-11801D01*
X15464Y-11577D01*
X15463Y-11513D01*
X15463Y-11414D01*
X15425Y-11323D01*
X15355Y-11253D01*
X15263Y-11215D01*
X15201Y-11214D01*
X15139Y-11276D01*
X15139Y-11639D01*
X15402Y-11639D01*
X15464Y-11577D01*
X15464Y-11801D01*
X15402Y-11739D01*
X15189Y-11739D01*
X15139Y-11739D01*
X15039Y-11739D01*
X15039Y-11639D01*
X15039Y-11589D01*
X15039Y-11276D01*
X14977Y-11214D01*
X14915Y-11215D01*
X14823Y-11253D01*
X14811Y-11265D01*
X14811Y-09625D01*
X14811Y-06673D01*
X14809Y-06637D01*
X14809Y-04931D01*
X14809Y-04717D01*
X14727Y-04519D01*
X14576Y-04368D01*
X14379Y-04285D01*
X14165Y-04285D01*
X13967Y-04367D01*
X13816Y-04518D01*
X13733Y-04715D01*
X13733Y-04929D01*
X13815Y-05127D01*
X13966Y-05278D01*
X14163Y-05361D01*
X14377Y-05361D01*
X14575Y-05279D01*
X14726Y-05128D01*
X14809Y-04931D01*
X14809Y-06637D01*
X14799Y-06461D01*
X14739Y-06316D01*
X14646Y-06291D01*
X14575Y-06362D01*
X14575Y-06220D01*
X14550Y-06127D01*
X14349Y-06055D01*
X14137Y-06067D01*
X13992Y-06127D01*
X13967Y-06220D01*
X14271Y-06524D01*
X14575Y-06220D01*
X14575Y-06362D01*
X14342Y-06595D01*
X14646Y-06899D01*
X14739Y-06874D01*
X14811Y-06673D01*
X14811Y-09625D01*
X14809Y-09589D01*
X14809Y-07883D01*
X14809Y-07669D01*
X14727Y-07471D01*
X14576Y-07320D01*
X14575Y-07319D01*
X14575Y-06970D01*
X14271Y-06666D01*
X14200Y-06737D01*
X14200Y-06595D01*
X13896Y-06291D01*
X13803Y-06316D01*
X13731Y-06517D01*
X13743Y-06729D01*
X13803Y-06874D01*
X13896Y-06899D01*
X14200Y-06595D01*
X14200Y-06737D01*
X13967Y-06970D01*
X13992Y-07063D01*
X14193Y-07135D01*
X14405Y-07123D01*
X14550Y-07063D01*
X14575Y-06970D01*
X14575Y-07319D01*
X14379Y-07237D01*
X14165Y-07237D01*
X13967Y-07319D01*
X13816Y-07470D01*
X13733Y-07667D01*
X13733Y-07881D01*
X13815Y-08079D01*
X13966Y-08230D01*
X14163Y-08313D01*
X14377Y-08313D01*
X14575Y-08231D01*
X14726Y-08080D01*
X14809Y-07883D01*
X14809Y-09589D01*
X14799Y-09413D01*
X14739Y-09268D01*
X14646Y-09243D01*
X14575Y-09314D01*
X14575Y-09172D01*
X14550Y-09079D01*
X14349Y-09007D01*
X14137Y-09019D01*
X13992Y-09079D01*
X13967Y-09172D01*
X14271Y-09476D01*
X14575Y-09172D01*
X14575Y-09314D01*
X14342Y-09547D01*
X14646Y-09851D01*
X14739Y-09826D01*
X14811Y-09625D01*
X14811Y-11265D01*
X14784Y-11292D01*
X14751Y-11259D01*
X14662Y-11222D01*
X14575Y-11222D01*
X14575Y-09922D01*
X14271Y-09618D01*
X14200Y-09689D01*
X14200Y-09547D01*
X13896Y-09243D01*
X13803Y-09268D01*
X13731Y-09469D01*
X13743Y-09681D01*
X13803Y-09826D01*
X13896Y-09851D01*
X14200Y-09547D01*
X14200Y-09689D01*
X13967Y-09922D01*
X13992Y-10015D01*
X14193Y-10087D01*
X14405Y-10075D01*
X14550Y-10015D01*
X14575Y-09922D01*
X14575Y-11222D01*
X14566Y-11222D01*
X14316Y-11222D01*
X14227Y-11259D01*
X14173Y-11312D01*
X14072Y-11271D01*
X13906Y-11271D01*
X13752Y-11335D01*
X13635Y-11452D01*
X13571Y-11606D01*
X13571Y-11772D01*
X13635Y-11926D01*
X13752Y-12043D01*
X13906Y-12107D01*
X14072Y-12107D01*
X14173Y-12065D01*
X14227Y-12119D01*
X14316Y-12156D01*
X14412Y-12156D01*
X14662Y-12156D01*
X14751Y-12119D01*
X14784Y-12086D01*
X14823Y-12125D01*
X14915Y-12163D01*
X14977Y-12164D01*
X14989Y-12152D01*
X14989Y-12164D01*
X15039Y-12164D01*
X15061Y-12164D01*
X15039Y-12173D01*
X14931Y-12218D01*
X14778Y-12370D01*
X14695Y-12569D01*
X14695Y-12785D01*
X14777Y-12984D01*
X14929Y-13137D01*
X15128Y-13220D01*
X15344Y-13220D01*
X15316Y-13249D01*
X15279Y-13338D01*
X15279Y-13434D01*
X15316Y-13523D01*
X15384Y-13591D01*
X15808Y-14015D01*
X15897Y-14052D01*
X15993Y-14052D01*
X16082Y-14015D01*
X16150Y-13947D01*
X16574Y-13523D01*
X16611Y-13434D01*
X16611Y-15208D01*
X16428Y-15132D01*
X15869Y-15129D01*
X15352Y-15341D01*
X15342Y-15348D01*
X15210Y-15532D01*
X16142Y-16464D01*
X17074Y-15532D01*
X17074Y-15674D01*
X16213Y-16535D01*
X17145Y-17467D01*
X17329Y-17335D01*
X17545Y-16821D01*
X17548Y-16262D01*
X17548Y-18661D01*
X17383Y-18729D01*
X17230Y-18881D01*
X17188Y-18979D01*
X17149Y-18883D01*
X17074Y-18807D01*
X17074Y-17538D01*
X16142Y-16606D01*
X16071Y-16677D01*
X16071Y-16535D01*
X15139Y-15603D01*
X14955Y-15735D01*
X14739Y-16249D01*
X14736Y-16808D01*
X14948Y-17325D01*
X14955Y-17335D01*
X15139Y-17467D01*
X16071Y-16535D01*
X16071Y-16677D01*
X15210Y-17538D01*
X15342Y-17722D01*
X15856Y-17938D01*
X16415Y-17941D01*
X16932Y-17729D01*
X16942Y-17722D01*
X17074Y-17538D01*
X17074Y-18807D01*
X16997Y-18730D01*
X16798Y-18647D01*
X16582Y-18647D01*
X16383Y-18729D01*
X16230Y-18881D01*
X16188Y-18979D01*
X16149Y-18883D01*
X15997Y-18730D01*
X15798Y-18647D01*
X15582Y-18647D01*
X15383Y-18729D01*
X15231Y-18880D01*
X15231Y-18841D01*
X15194Y-18752D01*
X15126Y-18684D01*
X15037Y-18647D01*
X14941Y-18647D01*
X14341Y-18647D01*
X14252Y-18684D01*
X14184Y-18752D01*
X14147Y-18841D01*
X14147Y-18880D01*
X13997Y-18730D01*
X13914Y-18695D01*
X13914Y-15001D01*
X13914Y-14777D01*
X13913Y-14715D01*
X13875Y-14623D01*
X13805Y-14553D01*
X13714Y-14515D01*
X13615Y-14515D01*
X13551Y-14514D01*
X13489Y-14576D01*
X13489Y-14839D01*
X13852Y-14839D01*
X13914Y-14777D01*
X13914Y-15001D01*
X13852Y-14939D01*
X13539Y-14939D01*
X13489Y-14939D01*
X13389Y-14939D01*
X13389Y-14839D01*
X13389Y-14576D01*
X13327Y-14514D01*
X13263Y-14515D01*
X13239Y-14515D01*
X13239Y-03671D01*
X13239Y-03416D01*
X13142Y-03180D01*
X12961Y-03000D01*
X12726Y-02902D01*
X12471Y-02902D01*
X12235Y-02999D01*
X12055Y-03180D01*
X11957Y-03415D01*
X11957Y-03670D01*
X12054Y-03906D01*
X12235Y-04086D01*
X12470Y-04184D01*
X12725Y-04184D01*
X12961Y-04087D01*
X13141Y-03906D01*
X13239Y-03671D01*
X13239Y-14515D01*
X13231Y-14515D01*
X13231Y-13719D01*
X13169Y-13657D01*
X12806Y-13657D01*
X12806Y-13920D01*
X12868Y-13982D01*
X12932Y-13981D01*
X13031Y-13981D01*
X13122Y-13943D01*
X13192Y-13873D01*
X13230Y-13781D01*
X13231Y-13719D01*
X13231Y-14515D01*
X13164Y-14515D01*
X13073Y-14553D01*
X13064Y-14562D01*
X13055Y-14553D01*
X12964Y-14515D01*
X12865Y-14515D01*
X12801Y-14514D01*
X12739Y-14576D01*
X12739Y-14839D01*
X13026Y-14839D01*
X13102Y-14839D01*
X13389Y-14839D01*
X13389Y-14939D01*
X13339Y-14939D01*
X13102Y-14939D01*
X13026Y-14939D01*
X12789Y-14939D01*
X12739Y-14939D01*
X12706Y-14939D01*
X12706Y-13920D01*
X12706Y-13657D01*
X12343Y-13657D01*
X12281Y-13719D01*
X12282Y-13781D01*
X12320Y-13873D01*
X12390Y-13943D01*
X12481Y-13981D01*
X12580Y-13981D01*
X12644Y-13982D01*
X12706Y-13920D01*
X12706Y-14939D01*
X12639Y-14939D01*
X12639Y-14839D01*
X12639Y-14576D01*
X12577Y-14514D01*
X12513Y-14515D01*
X12414Y-14515D01*
X12323Y-14553D01*
X12253Y-14623D01*
X12215Y-14715D01*
X12214Y-14777D01*
X12276Y-14839D01*
X12639Y-14839D01*
X12639Y-14939D01*
X12589Y-14939D01*
X12276Y-14939D01*
X12214Y-15001D01*
X12215Y-15063D01*
X12253Y-15155D01*
X12292Y-15194D01*
X12259Y-15227D01*
X12222Y-15316D01*
X12222Y-15412D01*
X12222Y-15662D01*
X12259Y-15751D01*
X12327Y-15819D01*
X12386Y-15843D01*
X12386Y-15878D01*
X12409Y-15994D01*
X12475Y-16092D01*
X12653Y-16270D01*
X12653Y-16343D01*
X12717Y-16497D01*
X12834Y-16614D01*
X12988Y-16678D01*
X13154Y-16678D01*
X13280Y-16625D01*
X13280Y-17718D01*
X13261Y-17732D01*
X13106Y-17732D01*
X12952Y-17796D01*
X12835Y-17913D01*
X12771Y-18067D01*
X12771Y-18233D01*
X12835Y-18387D01*
X12952Y-18504D01*
X13106Y-18568D01*
X13272Y-18568D01*
X13426Y-18504D01*
X13543Y-18387D01*
X13607Y-18233D01*
X13607Y-18229D01*
X13755Y-18128D01*
X13776Y-18105D01*
X13797Y-18092D01*
X13813Y-18067D01*
X13837Y-18043D01*
X13846Y-18018D01*
X13863Y-17994D01*
X13870Y-17958D01*
X13880Y-17933D01*
X13879Y-17909D01*
X13886Y-17878D01*
X13886Y-15985D01*
X13863Y-15869D01*
X13818Y-15801D01*
X13869Y-15751D01*
X13906Y-15662D01*
X13906Y-15566D01*
X13906Y-15316D01*
X13869Y-15227D01*
X13836Y-15194D01*
X13875Y-15155D01*
X13913Y-15063D01*
X13914Y-15001D01*
X13914Y-18695D01*
X13798Y-18647D01*
X13582Y-18647D01*
X13383Y-18729D01*
X13230Y-18881D01*
X13188Y-18979D01*
X13149Y-18883D01*
X12997Y-18730D01*
X12798Y-18647D01*
X12582Y-18647D01*
X12383Y-18729D01*
X12230Y-18881D01*
X12188Y-18979D01*
X12149Y-18883D01*
X11997Y-18730D01*
X11979Y-18722D01*
X11960Y-18624D01*
X11959Y-18623D01*
X11896Y-18529D01*
X11895Y-18528D01*
X11188Y-17821D01*
X11330Y-17881D01*
X11544Y-17881D01*
X11742Y-17799D01*
X11893Y-17648D01*
X11976Y-17451D01*
X11976Y-17237D01*
X11923Y-17111D01*
X12052Y-17111D01*
X12206Y-17047D01*
X12323Y-16930D01*
X12387Y-16776D01*
X12387Y-16610D01*
X12323Y-16456D01*
X12206Y-16339D01*
X12052Y-16275D01*
X11978Y-16275D01*
X11978Y-15649D01*
X11966Y-15437D01*
X11906Y-15292D01*
X11813Y-15267D01*
X11742Y-15338D01*
X11742Y-15196D01*
X11717Y-15103D01*
X11516Y-15031D01*
X11304Y-15043D01*
X11159Y-15103D01*
X11134Y-15196D01*
X11438Y-15500D01*
X11742Y-15196D01*
X11742Y-15338D01*
X11509Y-15571D01*
X11813Y-15875D01*
X11906Y-15850D01*
X11978Y-15649D01*
X11978Y-16275D01*
X11886Y-16275D01*
X11742Y-16334D01*
X11742Y-15946D01*
X11438Y-15642D01*
X11367Y-15713D01*
X11367Y-15571D01*
X11063Y-15267D01*
X10970Y-15292D01*
X10898Y-15493D01*
X10910Y-15705D01*
X10970Y-15850D01*
X11063Y-15875D01*
X11367Y-15571D01*
X11367Y-15713D01*
X11134Y-15946D01*
X11159Y-16039D01*
X11360Y-16111D01*
X11572Y-16099D01*
X11717Y-16039D01*
X11742Y-15946D01*
X11742Y-16334D01*
X11732Y-16339D01*
X11681Y-16390D01*
X09416Y-16390D01*
X09416Y-15679D01*
X09416Y-15465D01*
X09334Y-15267D01*
X09183Y-15116D01*
X08986Y-15033D01*
X08772Y-15033D01*
X08574Y-15115D01*
X08423Y-15266D01*
X08340Y-15463D01*
X08340Y-15677D01*
X08422Y-15875D01*
X08573Y-16026D01*
X08770Y-16109D01*
X08984Y-16109D01*
X09182Y-16027D01*
X09333Y-15876D01*
X09416Y-15679D01*
X09416Y-16390D01*
X07556Y-16390D01*
X07799Y-16147D01*
X08020Y-16147D01*
X08109Y-16110D01*
X08177Y-16042D01*
X08214Y-15953D01*
X08214Y-15857D01*
X08214Y-14755D01*
X08177Y-14666D01*
X08109Y-14598D01*
X08020Y-14561D01*
X07924Y-14561D01*
X07888Y-14561D01*
X07888Y-14053D01*
X07973Y-14053D01*
X08088Y-14053D01*
X08255Y-14220D01*
X08256Y-14220D01*
X08354Y-14286D01*
X08470Y-14309D01*
X09209Y-14309D01*
X09209Y-14377D01*
X09202Y-14394D01*
X09201Y-14419D01*
X09238Y-14456D01*
X09246Y-14474D01*
X09314Y-14542D01*
X09345Y-14555D01*
X09263Y-14555D01*
X09201Y-14617D01*
X09202Y-14642D01*
X09240Y-14734D01*
X09310Y-14804D01*
X09401Y-14842D01*
X09500Y-14842D01*
X09589Y-14843D01*
X09651Y-14781D01*
X09651Y-14579D01*
X09751Y-14579D01*
X09751Y-14781D01*
X09813Y-14843D01*
X09902Y-14842D01*
X10001Y-14842D01*
X10092Y-14804D01*
X10162Y-14734D01*
X10200Y-14642D01*
X10201Y-14617D01*
X10139Y-14555D01*
X10056Y-14555D01*
X10088Y-14542D01*
X10156Y-14474D01*
X10163Y-14456D01*
X10201Y-14419D01*
X10200Y-14394D01*
X10265Y-14459D01*
X10266Y-14459D01*
X10329Y-14501D01*
X10360Y-14522D01*
X10361Y-14523D01*
X10472Y-14544D01*
X10473Y-14545D01*
X10568Y-14545D01*
X10629Y-14606D01*
X10783Y-14670D01*
X10913Y-14670D01*
X10940Y-14734D01*
X11010Y-14804D01*
X11101Y-14842D01*
X11200Y-14842D01*
X11289Y-14843D01*
X11351Y-14781D01*
X11351Y-14618D01*
X11351Y-14555D01*
X11351Y-14525D01*
X11351Y-14481D01*
X11351Y-14418D01*
X11351Y-14362D01*
X11351Y-14299D01*
X11351Y-14269D01*
X11351Y-14255D01*
X11351Y-14225D01*
X11351Y-14212D01*
X11451Y-14212D01*
X11451Y-14225D01*
X11451Y-14255D01*
X11451Y-14269D01*
X11451Y-14299D01*
X11451Y-14481D01*
X11451Y-14525D01*
X11481Y-14555D01*
X11451Y-14555D01*
X11451Y-14781D01*
X11513Y-14843D01*
X11602Y-14842D01*
X11701Y-14842D01*
X11792Y-14804D01*
X11862Y-14734D01*
X11900Y-14642D01*
X11901Y-14617D01*
X11839Y-14555D01*
X11775Y-14555D01*
X11792Y-14548D01*
X11862Y-14478D01*
X11876Y-14443D01*
X11901Y-14419D01*
X11900Y-14394D01*
X11898Y-14390D01*
X11900Y-14386D01*
X11901Y-14361D01*
X11876Y-14336D01*
X11862Y-14302D01*
X11822Y-14262D01*
X11862Y-14222D01*
X11876Y-14187D01*
X11901Y-14163D01*
X11900Y-14138D01*
X11898Y-14134D01*
X11900Y-14130D01*
X11901Y-14105D01*
X11876Y-14080D01*
X11862Y-14046D01*
X11817Y-14001D01*
X11856Y-13962D01*
X11863Y-13944D01*
X11901Y-13907D01*
X11900Y-13882D01*
X11893Y-13865D01*
X11893Y-13777D01*
X11893Y-13627D01*
X11856Y-13538D01*
X11788Y-13470D01*
X11699Y-13433D01*
X11694Y-13433D01*
X11694Y-13430D01*
X11714Y-13430D01*
X11778Y-13431D01*
X11840Y-13369D01*
X11840Y-13156D01*
X11840Y-13106D01*
X11840Y-13006D01*
X11940Y-13006D01*
X11940Y-13106D01*
X11940Y-13156D01*
X11940Y-13369D01*
X12002Y-13431D01*
X12066Y-13430D01*
X12165Y-13430D01*
X12256Y-13392D01*
X12326Y-13322D01*
X12341Y-13284D01*
X12359Y-13302D01*
X12320Y-13341D01*
X12282Y-13433D01*
X12281Y-13495D01*
X12343Y-13557D01*
X12656Y-13557D01*
X12706Y-13557D01*
X12806Y-13557D01*
X12856Y-13557D01*
X13169Y-13557D01*
X13231Y-13495D01*
X13230Y-13433D01*
X13192Y-13341D01*
X13153Y-13302D01*
X13186Y-13269D01*
X13223Y-13180D01*
X13223Y-13084D01*
X13223Y-12834D01*
X13186Y-12745D01*
X13150Y-12709D01*
X13207Y-12572D01*
X13207Y-12406D01*
X13143Y-12252D01*
X13026Y-12135D01*
X12872Y-12071D01*
X12706Y-12071D01*
X12644Y-12096D01*
X12644Y-08813D01*
X12644Y-08589D01*
X12643Y-08525D01*
X12643Y-08426D01*
X12626Y-08386D01*
X12643Y-08346D01*
X12643Y-08247D01*
X12644Y-08183D01*
X12644Y-07959D01*
X12643Y-07895D01*
X12643Y-07796D01*
X12605Y-07705D01*
X12535Y-07635D01*
X12443Y-07597D01*
X12381Y-07596D01*
X12319Y-07658D01*
X12319Y-08021D01*
X12582Y-08021D01*
X12644Y-07959D01*
X12644Y-08183D01*
X12582Y-08121D01*
X12319Y-08121D01*
X12319Y-08288D01*
X12319Y-08484D01*
X12319Y-08651D01*
X12582Y-08651D01*
X12644Y-08589D01*
X12644Y-08813D01*
X12582Y-08751D01*
X12319Y-08751D01*
X12319Y-09114D01*
X12381Y-09176D01*
X12443Y-09175D01*
X12535Y-09137D01*
X12605Y-09067D01*
X12643Y-08976D01*
X12643Y-08877D01*
X12644Y-08813D01*
X12644Y-12096D01*
X12565Y-12129D01*
X12565Y-09758D01*
X12565Y-09534D01*
X12564Y-09470D01*
X12564Y-09371D01*
X12526Y-09280D01*
X12456Y-09210D01*
X12364Y-09172D01*
X12302Y-09171D01*
X12240Y-09233D01*
X12240Y-09596D01*
X12503Y-09596D01*
X12565Y-09534D01*
X12565Y-09758D01*
X12503Y-09696D01*
X12240Y-09696D01*
X12240Y-10059D01*
X12302Y-10121D01*
X12364Y-10120D01*
X12456Y-10082D01*
X12526Y-10012D01*
X12564Y-09921D01*
X12564Y-09822D01*
X12565Y-09758D01*
X12565Y-12129D01*
X12552Y-12135D01*
X12435Y-12252D01*
X12371Y-12406D01*
X12371Y-12572D01*
X12411Y-12669D01*
X12394Y-12677D01*
X12326Y-12745D01*
X12312Y-12776D01*
X12287Y-12751D01*
X12320Y-12718D01*
X12357Y-12629D01*
X12357Y-12533D01*
X12357Y-12283D01*
X12320Y-12194D01*
X12252Y-12126D01*
X12163Y-12089D01*
X12067Y-12089D01*
X11696Y-12089D01*
X11696Y-11826D01*
X11696Y-11157D01*
X11673Y-11041D01*
X11607Y-10943D01*
X11138Y-10474D01*
X11040Y-10408D01*
X10924Y-10385D01*
X10646Y-10385D01*
X10693Y-10339D01*
X10693Y-10338D01*
X10773Y-10219D01*
X10800Y-10078D01*
X10801Y-10078D01*
X10801Y-10014D01*
X10865Y-10078D01*
X11019Y-10142D01*
X11185Y-10142D01*
X11335Y-10079D01*
X11417Y-10113D01*
X11513Y-10113D01*
X11763Y-10113D01*
X11852Y-10076D01*
X11885Y-10043D01*
X11924Y-10082D01*
X12016Y-10120D01*
X12078Y-10121D01*
X12140Y-10059D01*
X12140Y-09746D01*
X12140Y-09696D01*
X12140Y-09596D01*
X12140Y-09546D01*
X12140Y-09233D01*
X12078Y-09171D01*
X12016Y-09172D01*
X11924Y-09210D01*
X11885Y-09249D01*
X11852Y-09216D01*
X11763Y-09179D01*
X11667Y-09179D01*
X11417Y-09179D01*
X11328Y-09216D01*
X11260Y-09284D01*
X11241Y-09329D01*
X11185Y-09306D01*
X11175Y-09306D01*
X11378Y-09102D01*
X11407Y-09131D01*
X11496Y-09168D01*
X11592Y-09168D01*
X11842Y-09168D01*
X11931Y-09131D01*
X11964Y-09098D01*
X12003Y-09137D01*
X12095Y-09175D01*
X12157Y-09176D01*
X12219Y-09114D01*
X12219Y-08801D01*
X12219Y-08751D01*
X12219Y-08651D01*
X12219Y-08601D01*
X12219Y-08484D01*
X12219Y-08288D01*
X12219Y-08171D01*
X12219Y-08121D01*
X12219Y-08021D01*
X12219Y-07971D01*
X12219Y-07658D01*
X12157Y-07596D01*
X12095Y-07597D01*
X12003Y-07635D01*
X11964Y-07674D01*
X11931Y-07641D01*
X11842Y-07604D01*
X11826Y-07604D01*
X11845Y-07560D01*
X11845Y-07464D01*
X11845Y-07214D01*
X11808Y-07125D01*
X11775Y-07092D01*
X11814Y-07053D01*
X11852Y-06961D01*
X11853Y-06899D01*
X11853Y-06675D01*
X11852Y-06613D01*
X11814Y-06521D01*
X11744Y-06451D01*
X11653Y-06413D01*
X11554Y-06413D01*
X11490Y-06412D01*
X11428Y-06474D01*
X11428Y-06737D01*
X11791Y-06737D01*
X11853Y-06675D01*
X11853Y-06899D01*
X11791Y-06837D01*
X11478Y-06837D01*
X11428Y-06837D01*
X11328Y-06837D01*
X11328Y-06737D01*
X11328Y-06474D01*
X11266Y-06412D01*
X11202Y-06413D01*
X11103Y-06413D01*
X11063Y-06429D01*
X11023Y-06413D01*
X10924Y-06413D01*
X10860Y-06412D01*
X10798Y-06474D01*
X10798Y-06737D01*
X10965Y-06737D01*
X11161Y-06737D01*
X11328Y-06737D01*
X11328Y-06837D01*
X11278Y-06837D01*
X11161Y-06837D01*
X10965Y-06837D01*
X10848Y-06837D01*
X10798Y-06837D01*
X10698Y-06837D01*
X10698Y-06737D01*
X10698Y-06474D01*
X10636Y-06412D01*
X10572Y-06413D01*
X10473Y-06413D01*
X10433Y-06429D01*
X10393Y-06413D01*
X10294Y-06413D01*
X10230Y-06412D01*
X10168Y-06474D01*
X10168Y-06737D01*
X10335Y-06737D01*
X10531Y-06737D01*
X10698Y-06737D01*
X10698Y-06837D01*
X10648Y-06837D01*
X10531Y-06837D01*
X10335Y-06837D01*
X10218Y-06837D01*
X10168Y-06837D01*
X10068Y-06837D01*
X10068Y-06737D01*
X10068Y-06474D01*
X10006Y-06412D01*
X09942Y-06413D01*
X09843Y-06413D01*
X09796Y-06432D01*
X09749Y-06412D01*
X09749Y-04453D01*
X09749Y-04287D01*
X09685Y-04133D01*
X09568Y-04016D01*
X09414Y-03952D01*
X09248Y-03952D01*
X09094Y-04016D01*
X08977Y-04133D01*
X08913Y-04287D01*
X08913Y-04453D01*
X08916Y-04460D01*
X08851Y-04488D01*
X08783Y-04556D01*
X08746Y-04645D01*
X08746Y-04741D01*
X08746Y-04991D01*
X08783Y-05080D01*
X08816Y-05113D01*
X08777Y-05152D01*
X08739Y-05244D01*
X08738Y-05306D01*
X08800Y-05368D01*
X09113Y-05368D01*
X09163Y-05368D01*
X09263Y-05368D01*
X09313Y-05368D01*
X09626Y-05368D01*
X09688Y-05306D01*
X09687Y-05244D01*
X09649Y-05152D01*
X09610Y-05113D01*
X09643Y-05080D01*
X09680Y-04991D01*
X09680Y-04895D01*
X09680Y-04645D01*
X09670Y-04621D01*
X09685Y-04607D01*
X09749Y-04453D01*
X09749Y-06412D01*
X09734Y-06406D01*
X09688Y-06406D01*
X09688Y-05530D01*
X09626Y-05468D01*
X09263Y-05468D01*
X09263Y-05731D01*
X09325Y-05793D01*
X09389Y-05792D01*
X09488Y-05792D01*
X09579Y-05754D01*
X09649Y-05684D01*
X09687Y-05592D01*
X09688Y-05530D01*
X09688Y-06406D01*
X09635Y-06406D01*
X09521Y-06405D01*
X09459Y-06467D01*
X09459Y-06780D01*
X09872Y-06780D01*
X09915Y-06737D01*
X10068Y-06737D01*
X10068Y-06837D01*
X10018Y-06837D01*
X09705Y-06837D01*
X09662Y-06880D01*
X09509Y-06880D01*
X09459Y-06880D01*
X09359Y-06880D01*
X09359Y-06780D01*
X09359Y-06730D01*
X09359Y-06467D01*
X09297Y-06405D01*
X09183Y-06406D01*
X09163Y-06406D01*
X09163Y-05731D01*
X09163Y-05468D01*
X08800Y-05468D01*
X08738Y-05530D01*
X08739Y-05592D01*
X08777Y-05684D01*
X08847Y-05754D01*
X08938Y-05792D01*
X09037Y-05792D01*
X09101Y-05793D01*
X09163Y-05731D01*
X09163Y-06406D01*
X09084Y-06406D01*
X08993Y-06444D01*
X08923Y-06514D01*
X08885Y-06606D01*
X08884Y-06718D01*
X08896Y-06730D01*
X08884Y-06730D01*
X08884Y-06738D01*
X08750Y-06604D01*
X08655Y-06540D01*
X08543Y-06518D01*
X07306Y-06518D01*
X07245Y-06457D01*
X07091Y-06393D01*
X06925Y-06393D01*
X06771Y-06457D01*
X06654Y-06574D01*
X06590Y-06728D01*
X06590Y-06826D01*
X06492Y-06826D01*
X06338Y-06890D01*
X06221Y-07007D01*
X06157Y-07161D01*
X06157Y-07327D01*
X06163Y-07343D01*
X06023Y-07402D01*
X05906Y-07519D01*
X05842Y-07673D01*
X05842Y-07839D01*
X05906Y-07993D01*
X06023Y-08110D01*
X06177Y-08174D01*
X06343Y-08174D01*
X06497Y-08110D01*
X06558Y-08049D01*
X07130Y-08049D01*
X07121Y-08071D01*
X07121Y-08170D01*
X07120Y-08234D01*
X07182Y-08296D01*
X07395Y-08296D01*
X07445Y-08296D01*
X07545Y-08296D01*
X07545Y-08396D01*
X07545Y-08446D01*
X07545Y-08759D01*
X07585Y-08799D01*
X07545Y-08839D01*
X07545Y-09152D01*
X07545Y-09202D01*
X07545Y-09302D01*
X07545Y-09352D01*
X07545Y-09469D01*
X07545Y-09665D01*
X07545Y-09782D01*
X07545Y-09832D01*
X07545Y-09932D01*
X07545Y-09982D01*
X07545Y-10256D01*
X07545Y-10295D01*
X07545Y-10569D01*
X07545Y-10619D01*
X07545Y-10719D01*
X07545Y-10769D01*
X07545Y-11004D01*
X07545Y-11082D01*
X07545Y-11317D01*
X07545Y-11367D01*
X07545Y-11467D01*
X07545Y-11517D01*
X07545Y-11634D01*
X07545Y-11830D01*
X07545Y-11947D01*
X07545Y-11997D01*
X07545Y-12097D01*
X07445Y-12097D01*
X07445Y-11997D01*
X07445Y-11947D01*
X07445Y-11830D01*
X07445Y-11634D01*
X07445Y-11467D01*
X07445Y-11367D01*
X07445Y-11082D01*
X07445Y-11004D01*
X07445Y-10719D01*
X07445Y-10619D01*
X07445Y-10295D01*
X07445Y-10256D01*
X07445Y-09932D01*
X07445Y-09832D01*
X07445Y-09665D01*
X07445Y-09469D01*
X07445Y-09302D01*
X07445Y-09202D01*
X07445Y-08839D01*
X07405Y-08799D01*
X07445Y-08759D01*
X07445Y-08396D01*
X07182Y-08396D01*
X07120Y-08458D01*
X07121Y-08522D01*
X07121Y-08621D01*
X07159Y-08712D01*
X07229Y-08782D01*
X07270Y-08799D01*
X07229Y-08816D01*
X07159Y-08886D01*
X07121Y-08977D01*
X07121Y-09076D01*
X07120Y-09140D01*
X07182Y-09202D01*
X07445Y-09202D01*
X07445Y-09302D01*
X07182Y-09302D01*
X07120Y-09364D01*
X07121Y-09428D01*
X07121Y-09527D01*
X07137Y-09567D01*
X07121Y-09607D01*
X07121Y-09706D01*
X07120Y-09770D01*
X07182Y-09832D01*
X07445Y-09832D01*
X07445Y-09932D01*
X07182Y-09932D01*
X07120Y-09994D01*
X07121Y-10058D01*
X07121Y-10157D01*
X07159Y-10248D01*
X07186Y-10275D01*
X07159Y-10303D01*
X07121Y-10394D01*
X07121Y-10493D01*
X07120Y-10557D01*
X07182Y-10619D01*
X07445Y-10619D01*
X07445Y-10719D01*
X07182Y-10719D01*
X07120Y-10781D01*
X07121Y-10845D01*
X07121Y-10944D01*
X07159Y-11035D01*
X07167Y-11043D01*
X07159Y-11051D01*
X07121Y-11142D01*
X07121Y-11241D01*
X07120Y-11305D01*
X07182Y-11367D01*
X07445Y-11367D01*
X07445Y-11467D01*
X07182Y-11467D01*
X07120Y-11529D01*
X07121Y-11593D01*
X07121Y-11692D01*
X07137Y-11732D01*
X07121Y-11772D01*
X07121Y-11838D01*
X07001Y-11718D01*
X06986Y-11711D01*
X06986Y-10456D01*
X07047Y-10395D01*
X07111Y-10241D01*
X07111Y-10075D01*
X07047Y-09921D01*
X06930Y-09804D01*
X06914Y-09797D01*
X06914Y-09641D01*
X06850Y-09487D01*
X06733Y-09370D01*
X06579Y-09306D01*
X06413Y-09306D01*
X06259Y-09370D01*
X06142Y-09487D01*
X06078Y-09641D01*
X06078Y-09728D01*
X05620Y-10186D01*
X05556Y-10281D01*
X05534Y-10393D01*
X05534Y-11663D01*
X05490Y-11681D01*
X05490Y-11575D01*
X05468Y-11463D01*
X05467Y-11462D01*
X05446Y-11431D01*
X05404Y-11368D01*
X05404Y-11367D01*
X05089Y-11053D01*
X04994Y-10989D01*
X04882Y-10967D01*
X04409Y-10967D01*
X04019Y-10967D01*
X03514Y-10462D01*
X03394Y-10342D01*
X03451Y-10319D01*
X03519Y-10251D01*
X03547Y-10182D01*
X04244Y-10182D01*
X04246Y-10185D01*
X04393Y-10332D01*
X04585Y-10412D01*
X04793Y-10412D01*
X04985Y-10332D01*
X05132Y-10185D01*
X05212Y-09993D01*
X05212Y-09785D01*
X05212Y-07993D01*
X05212Y-07785D01*
X05132Y-07593D01*
X04985Y-07446D01*
X04793Y-07366D01*
X04585Y-07366D01*
X04393Y-07446D01*
X04246Y-07593D01*
X04244Y-07596D01*
X03747Y-07596D01*
X03747Y-06900D01*
X03747Y-06686D01*
X03665Y-06488D01*
X03514Y-06337D01*
X03317Y-06254D01*
X03103Y-06254D01*
X02905Y-06336D01*
X02754Y-06487D01*
X02671Y-06684D01*
X02671Y-06898D01*
X02753Y-07096D01*
X02904Y-07247D01*
X03101Y-07330D01*
X03315Y-07330D01*
X03513Y-07248D01*
X03664Y-07097D01*
X03747Y-06900D01*
X03747Y-07596D01*
X03547Y-07596D01*
X03519Y-07527D01*
X03451Y-07459D01*
X03362Y-07422D01*
X03266Y-07422D01*
X03016Y-07422D01*
X02927Y-07459D01*
X02894Y-07492D01*
X02855Y-07453D01*
X02763Y-07415D01*
X02701Y-07414D01*
X02639Y-07476D01*
X02639Y-07789D01*
X02639Y-07839D01*
X02639Y-07939D01*
X02639Y-07989D01*
X02639Y-08302D01*
X02701Y-08364D01*
X02763Y-08363D01*
X02855Y-08325D01*
X02894Y-08286D01*
X02927Y-08319D01*
X03016Y-08356D01*
X03112Y-08356D01*
X03362Y-08356D01*
X03451Y-08319D01*
X03519Y-08251D01*
X03547Y-08182D01*
X04244Y-08182D01*
X04246Y-08185D01*
X04393Y-08332D01*
X04585Y-08412D01*
X04793Y-08412D01*
X04985Y-08332D01*
X05132Y-08185D01*
X05212Y-07993D01*
X05212Y-09785D01*
X05132Y-09593D01*
X04985Y-09446D01*
X04793Y-09366D01*
X04585Y-09366D01*
X04393Y-09446D01*
X04246Y-09593D01*
X04244Y-09596D01*
X03547Y-09596D01*
X03519Y-09527D01*
X03451Y-09459D01*
X03362Y-09422D01*
X03266Y-09422D01*
X03016Y-09422D01*
X02927Y-09459D01*
X02894Y-09492D01*
X02855Y-09453D01*
X02763Y-09415D01*
X02701Y-09414D01*
X02639Y-09476D01*
X02639Y-09789D01*
X02639Y-09839D01*
X02639Y-09939D01*
X02539Y-09939D01*
X02539Y-09839D01*
X02539Y-09476D01*
X02539Y-08302D01*
X02539Y-07939D01*
X02539Y-07839D01*
X02539Y-07476D01*
X02477Y-07414D01*
X02415Y-07415D01*
X02323Y-07453D01*
X02253Y-07523D01*
X02215Y-07614D01*
X02215Y-07713D01*
X02214Y-07777D01*
X02276Y-07839D01*
X02539Y-07839D01*
X02539Y-07939D01*
X02276Y-07939D01*
X02214Y-08001D01*
X02215Y-08065D01*
X02215Y-08164D01*
X02253Y-08255D01*
X02323Y-08325D01*
X02415Y-08363D01*
X02477Y-08364D01*
X02539Y-08302D01*
X02539Y-09476D01*
X02477Y-09414D01*
X02415Y-09415D01*
X02323Y-09453D01*
X02253Y-09523D01*
X02215Y-09614D01*
X02215Y-09713D01*
X02214Y-09777D01*
X02276Y-09839D01*
X02539Y-09839D01*
X02539Y-09939D01*
X02489Y-09939D01*
X02276Y-09939D01*
X02214Y-10001D01*
X02215Y-10065D01*
X02215Y-10164D01*
X02237Y-10219D01*
X02050Y-10219D01*
X01828Y-09997D01*
X01828Y-08841D01*
X01889Y-08780D01*
X01953Y-08626D01*
X01953Y-08460D01*
X01889Y-08306D01*
X01772Y-08189D01*
X01618Y-08125D01*
X01452Y-08125D01*
X01298Y-08189D01*
X01181Y-08306D01*
X01140Y-08402D01*
X01067Y-08381D01*
X00997Y-08451D01*
X00997Y-08311D01*
X00970Y-08217D01*
X00768Y-08146D01*
X00555Y-08157D01*
X00408Y-08217D01*
X00381Y-08311D01*
X00689Y-08618D01*
X00997Y-08311D01*
X00997Y-08451D01*
X00760Y-08689D01*
X01067Y-08997D01*
X01161Y-08970D01*
X01215Y-08814D01*
X01242Y-08841D01*
X01242Y-10118D01*
X01264Y-10230D01*
X01328Y-10325D01*
X01541Y-10538D01*
X01255Y-10538D01*
X01057Y-10339D01*
X01057Y-10222D01*
X01126Y-10194D01*
X01194Y-10126D01*
X01231Y-10037D01*
X01231Y-09941D01*
X01231Y-09341D01*
X01194Y-09252D01*
X01126Y-09184D01*
X01037Y-09147D01*
X00974Y-09147D01*
X00997Y-09067D01*
X00689Y-08760D01*
X00381Y-09067D01*
X00403Y-09147D01*
X00341Y-09147D01*
X00262Y-09179D01*
X00262Y-08982D01*
X00311Y-08997D01*
X00618Y-08689D01*
X00311Y-08381D01*
X00262Y-08395D01*
X00262Y-07165D01*
X00344Y-07247D01*
X00541Y-07330D01*
X00755Y-07330D01*
X00953Y-07248D01*
X01104Y-07097D01*
X01187Y-06900D01*
X01187Y-06686D01*
X01105Y-06488D01*
X00954Y-06337D01*
X00757Y-06254D01*
X00543Y-06254D01*
X00345Y-06336D01*
X00262Y-06419D01*
X00262Y-05393D01*
X00344Y-05475D01*
X00541Y-05558D01*
X00755Y-05558D01*
X00953Y-05476D01*
X01104Y-05325D01*
X01187Y-05128D01*
X01187Y-04914D01*
X01105Y-04716D01*
X00954Y-04565D01*
X00757Y-04482D01*
X00543Y-04482D01*
X00345Y-04564D01*
X00262Y-04647D01*
X00262Y-01528D01*
X00381Y-01648D01*
X00580Y-01731D01*
X00796Y-01731D01*
X00995Y-01649D01*
X01148Y-01497D01*
X01189Y-01398D01*
X01229Y-01495D01*
X01381Y-01648D01*
X01580Y-01731D01*
X01796Y-01731D01*
X01995Y-01649D01*
X02148Y-01497D01*
X02189Y-01398D01*
X02229Y-01495D01*
X02381Y-01648D01*
X02580Y-01731D01*
X02796Y-01731D01*
X02995Y-01649D01*
X03147Y-01497D01*
X03147Y-01537D01*
X03184Y-01626D01*
X03252Y-01694D01*
X03341Y-01731D01*
X03437Y-01731D01*
X04037Y-01731D01*
X04126Y-01694D01*
X04194Y-01626D01*
X04231Y-01537D01*
X04231Y-01497D01*
X04381Y-01648D01*
X04580Y-01731D01*
X04796Y-01731D01*
X04995Y-01649D01*
X05147Y-01497D01*
X05147Y-01537D01*
X05184Y-01626D01*
X05252Y-01694D01*
X05341Y-01731D01*
X05437Y-01731D01*
X06037Y-01731D01*
X06126Y-01694D01*
X06194Y-01626D01*
X06231Y-01537D01*
X06231Y-01497D01*
X06381Y-01648D01*
X06580Y-01731D01*
X06796Y-01731D01*
X06995Y-01649D01*
X07148Y-01497D01*
X07189Y-01398D01*
X07229Y-01495D01*
X07381Y-01648D01*
X07396Y-01654D01*
X07396Y-04315D01*
X06127Y-05584D01*
X06127Y-04807D01*
X06127Y-04641D01*
X06063Y-04487D01*
X05946Y-04370D01*
X05792Y-04306D01*
X05626Y-04306D01*
X05472Y-04370D01*
X05411Y-04431D01*
X03505Y-04431D01*
X03393Y-04453D01*
X03375Y-04464D01*
X03375Y-02877D01*
X03163Y-02360D01*
X03156Y-02350D01*
X02972Y-02218D01*
X02901Y-02289D01*
X02901Y-02147D01*
X02769Y-01963D01*
X02255Y-01747D01*
X01696Y-01744D01*
X01179Y-01956D01*
X01169Y-01963D01*
X01037Y-02147D01*
X01969Y-03079D01*
X02901Y-02147D01*
X02901Y-02289D01*
X02040Y-03150D01*
X02972Y-04082D01*
X03156Y-03950D01*
X03372Y-03436D01*
X03375Y-02877D01*
X03375Y-04464D01*
X03361Y-04474D01*
X03337Y-04490D01*
X03317Y-04482D01*
X03103Y-04482D01*
X02905Y-04564D01*
X02901Y-04568D01*
X02901Y-04153D01*
X01969Y-03221D01*
X01898Y-03292D01*
X01898Y-03150D01*
X00966Y-02218D01*
X00782Y-02350D01*
X00566Y-02864D01*
X00563Y-03423D01*
X00775Y-03940D01*
X00782Y-03950D01*
X00966Y-04082D01*
X01898Y-03150D01*
X01898Y-03292D01*
X01037Y-04153D01*
X01169Y-04337D01*
X01683Y-04553D01*
X02242Y-04556D01*
X02759Y-04344D01*
X02769Y-04337D01*
X02901Y-04153D01*
X02901Y-04568D01*
X02754Y-04715D01*
X02671Y-04912D01*
X02671Y-05126D01*
X02753Y-05324D01*
X02904Y-05475D01*
X03101Y-05558D01*
X03315Y-05558D01*
X03513Y-05476D01*
X03664Y-05325D01*
X03747Y-05128D01*
X03747Y-05017D01*
X05411Y-05017D01*
X05472Y-05078D01*
X05626Y-05142D01*
X05792Y-05142D01*
X05946Y-05078D01*
X06063Y-04961D01*
X06127Y-04807D01*
X06127Y-05584D01*
X06053Y-05659D01*
X05777Y-05935D01*
X05713Y-06030D01*
X05706Y-06064D01*
X05630Y-06141D01*
X05566Y-06295D01*
X05566Y-06461D01*
X05630Y-06615D01*
X05747Y-06732D01*
X05901Y-06796D01*
X06067Y-06796D01*
X06221Y-06732D01*
X06338Y-06615D01*
X06402Y-06461D01*
X06402Y-06295D01*
X06355Y-06184D01*
X06467Y-06073D01*
X07896Y-04645D01*
X07896Y-04644D01*
X07938Y-04581D01*
X07959Y-04550D01*
X07960Y-04549D01*
X07981Y-04438D01*
X07982Y-04437D01*
X07982Y-01654D01*
X07995Y-01649D01*
X08148Y-01497D01*
X08189Y-01398D01*
X08229Y-01495D01*
X08381Y-01648D01*
X08580Y-01731D01*
X08796Y-01731D01*
X08995Y-01649D01*
X09147Y-01497D01*
X09147Y-01537D01*
X09184Y-01626D01*
X09252Y-01694D01*
X09341Y-01731D01*
X09437Y-01731D01*
X10037Y-01731D01*
X10126Y-01694D01*
X10194Y-01626D01*
X10231Y-01537D01*
X10231Y-01497D01*
X10381Y-01648D01*
X10580Y-01731D01*
X10796Y-01731D01*
X10995Y-01649D01*
X11148Y-01497D01*
X11189Y-01398D01*
X11229Y-01495D01*
X11381Y-01648D01*
X11580Y-01731D01*
X11796Y-01731D01*
X11995Y-01649D01*
X12148Y-01497D01*
X12189Y-01398D01*
X12229Y-01495D01*
X12381Y-01648D01*
X12580Y-01731D01*
X12796Y-01731D01*
X12995Y-01649D01*
X13147Y-01497D01*
X13147Y-01537D01*
X13184Y-01626D01*
X13252Y-01694D01*
X13341Y-01731D01*
X13437Y-01731D01*
X14037Y-01731D01*
X14126Y-01694D01*
X14194Y-01626D01*
X14231Y-01537D01*
X14231Y-01497D01*
X14381Y-01648D01*
X14580Y-01731D01*
X14796Y-01731D01*
X14995Y-01649D01*
X15148Y-01497D01*
X15189Y-01398D01*
X15229Y-01495D01*
X15381Y-01648D01*
X15580Y-01731D01*
X15796Y-01731D01*
X15995Y-01649D01*
X16148Y-01497D01*
X16189Y-01398D01*
X16229Y-01495D01*
X16381Y-01648D01*
X16580Y-01731D01*
X16796Y-01731D01*
X16995Y-01649D01*
X17147Y-01497D01*
X17147Y-01537D01*
X17184Y-01626D01*
X17252Y-01694D01*
X17341Y-01731D01*
X17437Y-01731D01*
X18037Y-01731D01*
X18126Y-01694D01*
X18194Y-01626D01*
X18231Y-01537D01*
X18231Y-01441D01*
X18231Y-00841D01*
X18197Y-00759D01*
X18197Y-00262D01*
X19423Y-00262D01*
X19423Y-18122D01*
X19261Y-17961D01*
X19231Y-17948D01*
X19231Y-17537D01*
X19231Y-17441D01*
X19231Y-16841D01*
X19194Y-16752D01*
X19126Y-16684D01*
X19037Y-16647D01*
X18997Y-16647D01*
X19148Y-16497D01*
X19231Y-16298D01*
X19231Y-16082D01*
X19149Y-15883D01*
X18997Y-15730D01*
X18898Y-15688D01*
X18995Y-15649D01*
X19148Y-15497D01*
X19231Y-15298D01*
X19231Y-15082D01*
X19149Y-14883D01*
X18997Y-14730D01*
X18898Y-14688D01*
X18995Y-14649D01*
X19148Y-14497D01*
X19231Y-14298D01*
X19231Y-14082D01*
X19149Y-13883D01*
X18997Y-13731D01*
X19037Y-13731D01*
X19126Y-13694D01*
X19194Y-13626D01*
X19231Y-13537D01*
X19231Y-13441D01*
X19231Y-12841D01*
X19194Y-12752D01*
X19126Y-12684D01*
X19037Y-12647D01*
X18997Y-12647D01*
X19148Y-12497D01*
X19231Y-12298D01*
X19231Y-12082D01*
X19149Y-11883D01*
X18997Y-11730D01*
X18898Y-11688D01*
X18995Y-11649D01*
X19148Y-11497D01*
X19231Y-11298D01*
X19231Y-11082D01*
X19149Y-10883D01*
X18997Y-10730D01*
X18898Y-10688D01*
X18995Y-10649D01*
X19148Y-10497D01*
X19231Y-10298D01*
X19231Y-10082D01*
X19149Y-09883D01*
X18997Y-09731D01*
X19037Y-09731D01*
X19126Y-09694D01*
X19194Y-09626D01*
X19231Y-09537D01*
X19231Y-09441D01*
X19231Y-08841D01*
X19194Y-08752D01*
X19126Y-08684D01*
X19037Y-08647D01*
X18997Y-08647D01*
X19148Y-08497D01*
X19231Y-08298D01*
X19231Y-08082D01*
X19149Y-07883D01*
X18997Y-07730D01*
X18898Y-07688D01*
X18995Y-07649D01*
X19148Y-07497D01*
X19231Y-07298D01*
X19231Y-07082D01*
X19149Y-06883D01*
X18997Y-06730D01*
X18898Y-06688D01*
X18995Y-06649D01*
X19148Y-06497D01*
X19231Y-06298D01*
X19231Y-06082D01*
X19149Y-05883D01*
X18997Y-05731D01*
X19037Y-05731D01*
X19126Y-05694D01*
X19194Y-05626D01*
X19231Y-05537D01*
X19231Y-05441D01*
X19231Y-04841D01*
X19194Y-04752D01*
X19126Y-04684D01*
X19037Y-04647D01*
X18997Y-04647D01*
X19148Y-04497D01*
X19231Y-04298D01*
X19231Y-04082D01*
X19149Y-03883D01*
X18997Y-03730D01*
X18898Y-03688D01*
X18995Y-03649D01*
X19148Y-03497D01*
X19231Y-03298D01*
X19231Y-03082D01*
X19149Y-02883D01*
X18997Y-02730D01*
X18898Y-02688D01*
X18995Y-02649D01*
X19148Y-02497D01*
X19231Y-02298D01*
X19231Y-02082D01*
X19149Y-01883D01*
X18997Y-01730D01*
X18798Y-01647D01*
X18582Y-01647D01*
X18383Y-01729D01*
X18230Y-01881D01*
X18147Y-02080D01*
X18147Y-02296D01*
X18229Y-02495D01*
X18381Y-02648D01*
X18479Y-02689D01*
X18383Y-02729D01*
X18230Y-02881D01*
X18147Y-03080D01*
X18147Y-03296D01*
X18229Y-03495D01*
X18381Y-03648D01*
X18479Y-03689D01*
X18383Y-03729D01*
X18230Y-03881D01*
X18147Y-04080D01*
X18147Y-04296D01*
X18229Y-04495D01*
X18380Y-04647D01*
X18341Y-04647D01*
X18252Y-04684D01*
X18184Y-04752D01*
X18147Y-04841D01*
X18147Y-04937D01*
X18147Y-05537D01*
X18184Y-05626D01*
X18252Y-05694D01*
X18341Y-05731D01*
X18380Y-05731D01*
X18230Y-05881D01*
X18223Y-05896D01*
X17531Y-05896D01*
X17124Y-05488D01*
X17124Y-05283D01*
X17135Y-05279D01*
X17286Y-05128D01*
X17369Y-04931D01*
X17369Y-04717D01*
X17287Y-04519D01*
X17136Y-04368D01*
X16939Y-04285D01*
X16725Y-04285D01*
X16527Y-04367D01*
X16376Y-04518D01*
X16293Y-04715D01*
X16293Y-04929D01*
X16375Y-05127D01*
X16526Y-05278D01*
X16538Y-05283D01*
X16538Y-05610D01*
X16560Y-05722D01*
X16624Y-05817D01*
X16863Y-06057D01*
X16725Y-06057D01*
X16527Y-06139D01*
X16376Y-06290D01*
X16293Y-06487D01*
X16293Y-06701D01*
X16375Y-06899D01*
X16526Y-07050D01*
X16723Y-07133D01*
X16937Y-07133D01*
X17135Y-07051D01*
X17286Y-06900D01*
X17369Y-06703D01*
X17369Y-06489D01*
X17362Y-06472D01*
X17409Y-06481D01*
X17410Y-06482D01*
X18223Y-06482D01*
X18229Y-06495D01*
X18381Y-06648D01*
X18479Y-06689D01*
X18383Y-06729D01*
X18230Y-06881D01*
X18147Y-07080D01*
X18147Y-07296D01*
X18229Y-07495D01*
X18381Y-07648D01*
X18479Y-07689D01*
X18383Y-07729D01*
X18230Y-07881D01*
X18147Y-08080D01*
X18147Y-08296D01*
X18229Y-08495D01*
X18380Y-08647D01*
X18341Y-08647D01*
X18252Y-08684D01*
X18184Y-08752D01*
X18147Y-08841D01*
X18147Y-08937D01*
X18147Y-09537D01*
X18184Y-09626D01*
X18252Y-09694D01*
X18341Y-09731D01*
X18380Y-09731D01*
X18230Y-09881D01*
X18147Y-10080D01*
X18147Y-10296D01*
X18229Y-10495D01*
X18381Y-10648D01*
X18479Y-10689D01*
X18383Y-10729D01*
X18230Y-10881D01*
X18147Y-11080D01*
X18147Y-11296D01*
X18229Y-11495D01*
X18381Y-11648D01*
X18479Y-11689D01*
X18383Y-11729D01*
X18230Y-11881D01*
X18147Y-12080D01*
X18147Y-12296D01*
X18229Y-12495D01*
X18380Y-12647D01*
X18341Y-12647D01*
X18252Y-12684D01*
X18184Y-12752D01*
X18147Y-12841D01*
X18147Y-12937D01*
X18147Y-13537D01*
X18184Y-13626D01*
X18252Y-13694D01*
X18341Y-13731D01*
X18380Y-13731D01*
X18230Y-13881D01*
X18147Y-14080D01*
X18147Y-14296D01*
X18229Y-14495D01*
X18381Y-14648D01*
X18479Y-14689D01*
X18383Y-14729D01*
X18230Y-14881D01*
X18147Y-15080D01*
X18147Y-15296D01*
X18229Y-15495D01*
X18381Y-15648D01*
X18479Y-15689D01*
X18383Y-15729D01*
X18230Y-15881D01*
X18147Y-16080D01*
X18147Y-16296D01*
X18229Y-16495D01*
X18380Y-16647D01*
X18341Y-16647D01*
X18252Y-16684D01*
X18184Y-16752D01*
X18147Y-16841D01*
X18147Y-16937D01*
X18147Y-17537D01*
X18184Y-17626D01*
X18252Y-17694D01*
X18341Y-17731D01*
X18437Y-17731D01*
X19037Y-17731D01*
X19126Y-17694D01*
X19194Y-17626D01*
X19231Y-17537D01*
X19231Y-17948D01*
X19026Y-17863D01*
X18771Y-17863D01*
X18535Y-17960D01*
X18355Y-18141D01*
X18257Y-18376D01*
X18257Y-18631D01*
X18354Y-18867D01*
X18535Y-19047D01*
X18770Y-19145D01*
X19025Y-19145D01*
X19261Y-19048D01*
X19423Y-18885D01*
X19423Y-19423D01*
G54D10*
G36*
X04281Y-17900D02*
X02677Y-17900D01*
X02536Y-17928D01*
X02464Y-17976D01*
X02416Y-18008D01*
X01503Y-18921D01*
X01191Y-18921D01*
X01007Y-18736D01*
X01007Y-18087D01*
X01098Y-17997D01*
X01181Y-17798D01*
X01181Y-17582D01*
X01099Y-17383D01*
X00947Y-17231D01*
X00987Y-17231D01*
X01076Y-17194D01*
X01144Y-17126D01*
X01181Y-17037D01*
X01181Y-16941D01*
X01181Y-16341D01*
X01144Y-16252D01*
X01076Y-16184D01*
X01007Y-16155D01*
X01007Y-13991D01*
X01191Y-13807D01*
X01510Y-13807D01*
X01395Y-13855D01*
X01257Y-13993D01*
X01182Y-14174D01*
X01182Y-14370D01*
X01257Y-14551D01*
X01395Y-14689D01*
X01576Y-14764D01*
X01772Y-14764D01*
X01953Y-14689D01*
X02091Y-14551D01*
X02166Y-14370D01*
X02166Y-14174D01*
X02091Y-13993D01*
X01953Y-13855D01*
X01837Y-13807D01*
X01989Y-13807D01*
X02130Y-13779D01*
X02249Y-13699D01*
X03134Y-12815D01*
X03134Y-12814D01*
X03174Y-12753D01*
X03198Y-12744D01*
X03266Y-12676D01*
X03303Y-12587D01*
X03303Y-12491D01*
X03303Y-11743D01*
X03270Y-11665D01*
X03351Y-11745D01*
X03351Y-11839D01*
X03351Y-12587D01*
X03388Y-12676D01*
X03456Y-12744D01*
X03545Y-12781D01*
X03641Y-12781D01*
X04015Y-12781D01*
X04104Y-12744D01*
X04172Y-12676D01*
X04209Y-12587D01*
X04209Y-12491D01*
X04209Y-11743D01*
X04172Y-11654D01*
X04142Y-11624D01*
X04141Y-11623D01*
X04127Y-11553D01*
X04281Y-11553D01*
X04281Y-11685D01*
X04257Y-11743D01*
X04257Y-11839D01*
X04257Y-12587D01*
X04281Y-12644D01*
X04281Y-17900D01*
X04281Y-17900D01*
G37*
G54D31*
X04281Y-17900D02*
X02677Y-17900D01*
X02536Y-17928D01*
X02464Y-17976D01*
X02416Y-18008D01*
X01503Y-18921D01*
X01191Y-18921D01*
X01007Y-18736D01*
X01007Y-18087D01*
X01098Y-17997D01*
X01181Y-17798D01*
X01181Y-17582D01*
X01099Y-17383D01*
X00947Y-17231D01*
X00987Y-17231D01*
X01076Y-17194D01*
X01144Y-17126D01*
X01181Y-17037D01*
X01181Y-16941D01*
X01181Y-16341D01*
X01144Y-16252D01*
X01076Y-16184D01*
X01007Y-16155D01*
X01007Y-13991D01*
X01191Y-13807D01*
X01510Y-13807D01*
X01395Y-13855D01*
X01257Y-13993D01*
X01182Y-14174D01*
X01182Y-14370D01*
X01257Y-14551D01*
X01395Y-14689D01*
X01576Y-14764D01*
X01772Y-14764D01*
X01953Y-14689D01*
X02091Y-14551D01*
X02166Y-14370D01*
X02166Y-14174D01*
X02091Y-13993D01*
X01953Y-13855D01*
X01837Y-13807D01*
X01989Y-13807D01*
X02130Y-13779D01*
X02249Y-13699D01*
X03134Y-12815D01*
X03134Y-12814D01*
X03174Y-12753D01*
X03198Y-12744D01*
X03266Y-12676D01*
X03303Y-12587D01*
X03303Y-12491D01*
X03303Y-11743D01*
X03270Y-11665D01*
X03351Y-11745D01*
X03351Y-11839D01*
X03351Y-12587D01*
X03388Y-12676D01*
X03456Y-12744D01*
X03545Y-12781D01*
X03641Y-12781D01*
X04015Y-12781D01*
X04104Y-12744D01*
X04172Y-12676D01*
X04209Y-12587D01*
X04209Y-12491D01*
X04209Y-11743D01*
X04172Y-11654D01*
X04142Y-11624D01*
X04141Y-11623D01*
X04127Y-11553D01*
X04281Y-11553D01*
X04281Y-11685D01*
X04257Y-11743D01*
X04257Y-11839D01*
X04257Y-12587D01*
X04281Y-12644D01*
X04281Y-17900D01*
M02*
